<svg xmlns="http://www.w3.org/2000/svg" viewBox="0 0 201.387 201.387"><path d="M178.712 63.095l-10.24-17.067a3.409 3.409 0 00-2.927-1.657H35.838c-1.2 0-2.311.628-2.927 1.657l-10.24 17.067a3.417 3.417 0 002.927 5.171h150.187a3.414 3.414 0 002.927-5.171zM31.626 61.44l6.146-10.24h125.841l6.144 10.24H31.626z"/><path d="M179.197 64.679a3.415 3.415 0 00-3.41-3.238H25.6a3.414 3.414 0 00-3.41 3.238l-6.827 133.12a3.415 3.415 0 003.409 3.588h163.84c.935 0 1.83-.384 2.478-1.062a3.422 3.422 0 00.934-2.526l-6.827-133.12zM22.364 194.56l6.477-126.293h143.701l6.477 126.293H22.364z"/><path d="M126.292 75.093c-5.647 0-10.24 4.593-10.24 10.24s4.593 10.24 10.24 10.24 10.24-4.593 10.24-10.24-4.593-10.24-10.24-10.24zm0 13.654c-1.883 0-3.413-1.531-3.413-3.413s1.531-3.413 3.413-3.413 3.413 1.531 3.413 3.413-1.531 3.413-3.413 3.413zM75.092 75.093c-5.647 0-10.24 4.593-10.24 10.24s4.593 10.24 10.24 10.24 10.24-4.593 10.24-10.24-4.593-10.24-10.24-10.24zm0 13.654c-1.882 0-3.413-1.531-3.413-3.413s1.531-3.413 3.413-3.413 3.413 1.531 3.413 3.413-1.531 3.413-3.413 3.413zM100.692 0C84.693 0 71.678 13.015 71.678 29.013v18.773a3.414 3.414 0 003.413 3.413h51.2a3.414 3.414 0 003.413-3.413V29.013C129.705 13.015 116.69 0 100.692 0zm22.186 44.373H78.505v-15.36c0-12.233 9.953-22.187 22.187-22.187s22.187 9.953 22.187 22.187v15.36z"/><path d="M126.292 85.333h-.263a3.414 3.414 0 00-3.15 4.729v17.457c0 12.233-9.953 22.187-22.187 22.187s-22.187-9.953-22.187-22.187V88.747a3.414 3.414 0 00-6.826 0v18.773c0 15.998 13.015 29.013 29.013 29.013s29.013-13.015 29.013-29.013V88.747a3.415 3.415 0 00-3.413-3.414z"/></svg>