<svg height="512" viewBox="0 0 64 64" width="512" xmlns="http://www.w3.org/2000/svg"><path d="M4 2v50h28.54c-1.68 0-3.34-.32-4.9-.94l-1.14-.46A10.33 10.33 0 0120 41h4.3c1.75 0 3.44-.6 4.81-1.69A7.681 7.681 0 0032 33.3V33l1-1h1c1.92 0 3.76-.76 5.12-2.12l1.76-1.76A7.236 7.236 0 0043 23l4.51-4.51c.8-.8 1.74-1.42 2.76-1.85 1.01-.42 2.11-.64 3.24-.64.87 0 1.7.13 2.49.37V2zM38 52h-5.46c1.75 0 3.46-.35 5.05-1 1.58-.66 3.03-1.62 4.27-2.86L56 34v18H42z" fill="#f0d0b4"/><path d="M50 52h8v10H2V52h44z" fill="#aab2bd"/><path d="M40.88 28.12A7.236 7.236 0 0043 23l4.51-4.51c.8-.8 1.74-1.42 2.76-1.85 1.01-.42 2.11-.64 3.24-.64.87 0 1.7.13 2.49.37 1.34.41 2.54 1.15 3.51 2.12a8.423 8.423 0 012.49 6c0 2.25-.89 4.4-2.49 6L56 34 41.86 48.14c-1.24 1.24-2.69 2.2-4.27 2.86-1.59.65-3.3 1-5.05 1-1.68 0-3.34-.32-4.9-.94l-1.14-.46A10.33 10.33 0 0120 41h4.3c1.75 0 3.44-.6 4.81-1.69A7.681 7.681 0 0032 33.3V33l1-1h1c1.92 0 3.76-.76 5.12-2.12zm15.88-.88a4.246 4.246 0 000-6 4.246 4.246 0 00-6 0L50 22l6 6z" fill="#5cd6b3"/><path d="M51.31 28.31c.44.44.69 1.04.69 1.67 0 .65-.27 1.27-.74 1.72L34 48h-4v-4l3-3c1.28 0 2.51-.51 3.41-1.41l.18-.18c.9-.9 1.41-2.13 1.41-3.41v-1l.89-1H39c1.28 0 2.51-.51 3.41-1.41l.18-.18c.9-.9 1.41-2.13 1.41-3.41l2.31-2.31a2.36 2.36 0 011.67-.69h.04c.63 0 1.23.25 1.67.69z" fill="#fcd770"/><g><path d="M60.222 31.192A9.418 9.418 0 0063 24.485c0-3.999-2.491-7.421-6-8.813V1H3v50H1v12h58V51h-2V34.414zM61 24.485c0 2-.778 3.879-2.192 5.293L41.154 47.432A12.104 12.104 0 0132.539 51c-1.558 0-3.08-.293-4.525-.871l-1.144-.458A9.286 9.286 0 0121.053 42h3.246a8.734 8.734 0 005.436-1.907A8.66 8.66 0 0033 33.415l.414-.415H34a8.188 8.188 0 005.828-2.414l1.758-1.758a8.177 8.177 0 002.403-5.403l4.232-4.232A7.441 7.441 0 0153.515 17C57.643 17 61 20.358 61 24.485zM5 34c0-3.888 11.705-8 18-8 1.654 0 3 1.346 3 3s-1.346 3-3 3-3-1.346-3-3v-1h-2v1c0 2.757 2.243 5 5 5s5-2.243 5-5-2.243-5-5-5c-3.859 0-11.499 1.785-16.139 4.766.731-.761 1.602-1.544 2.501-2.346C12.765 23.384 17 19.604 17 14c0-2.757-2.243-5-5-5s-5 2.243-5 5 2.243 5 5 5h1v-2h-1c-1.654 0-3-1.346-3-3s1.346-3 3-3 3 1.346 3 3c0 4.708-3.703 8.013-6.97 10.928C6.904 25.932 5.855 26.88 5 27.831V7h2V5H5V3h50v2h-2v2h2v8.128A9.446 9.446 0 0053.515 15a9.427 9.427 0 00-6.707 2.778L42 22.586V23a6.2 6.2 0 01-1.828 4.414l-1.758 1.758A6.204 6.204 0 0134 31h-1.414L31 32.586v.712a6.668 6.668 0 01-2.516 5.233A6.717 6.717 0 0124.299 40H19v1c0 4.246 2.324 8.046 6.007 10H5zm52 27H3v-8h2v6h2v-6h2v4h2v-4h2v6h2v-6h2v4h2v-4h2v6h2v-6h2v4h2v-4h2v6h2v-6h2v4h2v-4h2v6h2v-6h2v4h2v-4h2v6h2v-6h2v4h2v-4h2v6h2v-6h2zm-2-10H39.779a14.275 14.275 0 002.79-2.154L55 36.414z"/><path d="M48.586 22L56 29.414l1.466-1.465A5.213 5.213 0 0059 24.243 5.249 5.249 0 0053.758 19a5.205 5.205 0 00-3.707 1.535zm2.88-.051A3.217 3.217 0 0153.758 21 3.246 3.246 0 0157 24.243a3.22 3.22 0 01-.949 2.292l-.051.051L51.414 22zM50.399 25.985A3.37 3.37 0 0047.98 25a3.35 3.35 0 00-2.381.986l-2.6 2.6V29a3.804 3.804 0 01-1.121 2.707l-.172.172A3.853 3.853 0 0139 33h-.561L37 34.62V36a3.804 3.804 0 01-1.121 2.707l-.172.172A3.857 3.857 0 0133 40h-.414L29 43.586V49h5.397l17.548-16.573A3.378 3.378 0 0053 29.98c0-.9-.351-1.746-.986-2.38zm.173 4.989L33.603 47H31v-2.586l2.431-2.43a5.87 5.87 0 003.69-1.691l.172-.172A5.787 5.787 0 0039 36v-.62l.348-.391a5.87 5.87 0 003.773-1.696l.172-.172a5.778 5.778 0 001.691-3.691l2.028-2.029c.492-.493 1.43-.544 1.974-.001l1.614 1.615c.258.257.4.6.4.965 0 .374-.156.736-.428.994zM13 5h2v2h-2zM17 5h2v2h-2zM25 5h2v2h-2zM49 5h2v2h-2zM21 5h2v2h-2zM45 5h2v2h-2zM33 5h2v2h-2zM29 5h2v2h-2zM9 5h2v2H9zM41 5h2v2h-2zM37 5h2v2h-2z"/></g></svg>