<svg id="Layer_5" enable-background="new 0 0 64 64" height="512" viewBox="0 0 64 64" width="512" xmlns="http://www.w3.org/2000/svg"><g><g><g><path d="m4 2v50h26 2.54c-1.68 0-3.34-.32-4.9-.94l-1.14-.46c-3.93-1.57-6.5-5.37-6.5-9.6h4.3c1.75 0 3.44-.6 4.81-1.69 1.83-1.46 2.89-3.67 2.89-6.01v-.3l1-1h1c1.92 0 3.76-.76 5.12-2.12l1.76-1.76c1.36-1.36 2.12-3.2 2.12-5.12l4.51-4.51c.8-.8 1.74-1.42 2.76-1.85 1.01-.42 2.11-.64 3.24-.64.87 0 1.7.13 2.49.37v-14.37z" fill="#f0d0b4"/></g><g><path d="m38 52h-4-1.46c1.75 0 3.46-.35 5.05-1 1.58-.66 3.03-1.62 4.27-2.86l14.14-14.14v18h-2-4-4-4z" fill="#f0d0b4"/></g><g><path d="m50 52h4 2 2v10h-56v-10h2 2 4 4 4 4 4 4 2.54 1.46 4 4 4z" fill="#aab2bd"/></g><g><path d="m40.88 28.12c1.36-1.36 2.12-3.2 2.12-5.12l4.51-4.51c.8-.8 1.74-1.42 2.76-1.85 1.01-.42 2.11-.64 3.24-.64.87 0 1.7.13 2.49.37 1.34.41 2.54 1.15 3.51 2.12 1.54 1.53 2.49 3.65 2.49 6 0 2.25-.89 4.4-2.49 6l-3.51 3.51-14.14 14.14c-1.24 1.24-2.69 2.2-4.27 2.86-1.59.65-3.3 1-5.05 1-1.68 0-3.34-.32-4.9-.94l-1.14-.46c-3.93-1.57-6.5-5.37-6.5-9.6h4.3c1.75 0 3.44-.6 4.81-1.69 1.83-1.46 2.89-3.67 2.89-6.01v-.3l1-1h1c1.92 0 3.76-.76 5.12-2.12zm15.88-.88c.79-.79 1.24-1.87 1.24-3 0-1.17-.48-2.23-1.24-3-.77-.76-1.83-1.24-3-1.24-1.13 0-2.21.45-3 1.24l-.76.76 6 6z" fill="#5cd6b3"/></g><g><path d="m51.31 28.31c.44.44.69 1.04.69 1.67 0 .65-.27 1.27-.74 1.72l-17.26 16.3h-4v-4l3-3c1.28 0 2.51-.51 3.41-1.41l.18-.18c.9-.9 1.41-2.13 1.41-3.41v-1l.89-1h.11c1.28 0 2.51-.51 3.41-1.41l.18-.18c.9-.9 1.41-2.13 1.41-3.41l2.31-2.31c.44-.44 1.04-.69 1.67-.69h.04c.63 0 1.23.25 1.67.69z" fill="#fcd770"/></g></g><g><path d="m60.222 31.192c1.792-1.791 2.778-4.172 2.778-6.707 0-3.999-2.491-7.421-6-8.813v-14.672h-54v50h-2v12h58v-12h-2v-16.586zm.778-6.707c0 2-.778 3.879-2.192 5.293l-17.654 17.654c-2.301 2.301-5.361 3.568-8.615 3.568-1.558 0-3.08-.293-4.525-.871l-1.144-.458c-3.253-1.301-5.456-4.248-5.817-7.671h3.246c1.968 0 3.898-.677 5.436-1.907 2.045-1.636 3.23-4.065 3.265-6.678l.414-.415h.586c2.201 0 4.271-.857 5.828-2.414l1.758-1.758c1.456-1.456 2.301-3.361 2.403-5.403l4.232-4.232c1.415-1.414 3.295-2.193 5.294-2.193 4.128 0 7.485 3.358 7.485 7.485zm-56 9.515c0-3.888 11.705-8 18-8 1.654 0 3 1.346 3 3s-1.346 3-3 3-3-1.346-3-3v-1h-2v1c0 2.757 2.243 5 5 5s5-2.243 5-5-2.243-5-5-5c-3.859 0-11.499 1.785-16.139 4.766.731-.761 1.602-1.544 2.501-2.346 3.403-3.036 7.638-6.816 7.638-12.42 0-2.757-2.243-5-5-5s-5 2.243-5 5 2.243 5 5 5h1v-2h-1c-1.654 0-3-1.346-3-3s1.346-3 3-3 3 1.346 3 3c0 4.708-3.703 8.013-6.97 10.928-1.126 1.004-2.175 1.952-3.03 2.903v-20.831h2v-2h-2v-2h50v2h-2v2h2v8.128c-.485-.077-.979-.128-1.485-.128-2.533 0-4.915.987-6.707 2.778l-4.808 4.808v.414c0 1.668-.649 3.235-1.828 4.414l-1.758 1.758c-1.18 1.179-2.747 1.828-4.414 1.828h-1.414l-1.586 1.586v.712c0 2.047-.917 3.954-2.516 5.233-1.183.948-2.67 1.469-4.185 1.469h-5.299v1c0 4.246 2.324 8.046 6.007 10h-20.007zm52 27h-54v-8h2v6h2v-6h2v4h2v-4h2v6h2v-6h2v4h2v-4h2v6h2v-6h2v4h2v-4h2v6h2v-6h2v4h2v-4h2v6h2v-6h2v4h2v-4h2v6h2v-6h2v4h2v-4h2v6h2v-6h2zm-2-10h-15.221c1.001-.597 1.943-1.308 2.79-2.154l12.431-12.432z"/><path d="m48.586 22 7.414 7.414 1.466-1.465c.989-.991 1.534-2.307 1.534-3.706 0-2.891-2.352-5.243-5.242-5.243-1.401 0-2.718.545-3.707 1.535zm2.88-.051c.611-.612 1.425-.949 2.292-.949 1.788 0 3.242 1.455 3.242 3.243 0 .866-.337 1.68-.949 2.292l-.051.051-4.586-4.586z"/><path d="m50.399 25.985c-.636-.635-1.481-.985-2.419-.985-.898 0-1.743.35-2.381.986l-2.6 2.6v.414c0 1.022-.398 1.984-1.121 2.707l-.172.172c-.712.712-1.698 1.121-2.706 1.121h-.561l-1.439 1.62v1.38c0 1.022-.398 1.984-1.121 2.707l-.172.172c-.713.712-1.699 1.121-2.707 1.121h-.414l-3.586 3.586v5.414h5.397l17.548-16.573c.671-.634 1.055-1.525 1.055-2.447 0-.9-.351-1.746-.986-2.38zm.173 4.989-16.969 16.026h-2.603v-2.586l2.431-2.43c1.382-.104 2.707-.708 3.69-1.691l.172-.172c1.101-1.1 1.707-2.564 1.707-4.121v-.62l.348-.391c1.411-.086 2.771-.693 3.773-1.696l.172-.172c.999-.999 1.591-2.296 1.691-3.691l2.028-2.029c.492-.493 1.43-.544 1.974-.001l1.614 1.615c.258.257.4.6.4.965 0 .374-.156.736-.428.994z"/><path d="m13 5h2v2h-2z"/><path d="m17 5h2v2h-2z"/><path d="m25 5h2v2h-2z"/><path d="m49 5h2v2h-2z"/><path d="m21 5h2v2h-2z"/><path d="m45 5h2v2h-2z"/><path d="m33 5h2v2h-2z"/><path d="m29 5h2v2h-2z"/><path d="m9 5h2v2h-2z"/><path d="m41 5h2v2h-2z"/><path d="m37 5h2v2h-2z"/></g></g></svg>