<svg xmlns="http://www.w3.org/2000/svg" width="440.994" height="440.994"><path d="M274.61 249.183c-5.044 0-8.816 3.714-10.618 5.929-4.025 4.951-6.336 12.059-6.336 19.499s2.311 14.548 6.336 19.5c1.802 2.214 5.574 5.928 10.618 5.928s8.816-3.714 10.618-5.928c4.025-4.952 6.336-12.06 6.336-19.5s-2.311-14.548-6.336-19.499c-1.8-2.216-5.574-5.929-10.618-5.929zM166.384 191.81c5.044 0 8.816-3.714 10.618-5.928 4.026-4.952 6.336-12.059 6.336-19.5 0-7.441-2.31-14.547-6.336-19.499-1.802-2.214-5.574-5.928-10.618-5.928-5.044 0-8.816 3.714-10.618 5.928-4.026 4.952-6.336 12.058-6.336 19.499 0 7.441 2.31 14.548 6.336 19.5 1.801 2.215 5.574 5.928 10.618 5.928z"/><path d="M435.289 209.037l-53.984-40.794 19.699-64.751a14.364 14.364 0 00-13.479-18.544l-67.672-1.235-22.065-63.997a14.361 14.361 0 00-9.143-8.979 14.372 14.372 0 00-12.675 1.892l-55.475 38.814-55.475-38.816a14.37 14.37 0 00-21.817 7.087L121.139 83.71l-67.672 1.236a14.364 14.364 0 00-13.48 18.544l19.701 64.75-53.983 40.797a14.36 14.36 0 000 22.921l53.984 40.794-19.699 64.75a14.368 14.368 0 0013.48 18.544l67.672 1.236 22.064 63.996a14.36 14.36 0 0021.815 7.086l55.475-38.814 55.477 38.815a14.367 14.367 0 0021.815-7.087l22.063-63.996 67.675-1.237a14.365 14.365 0 0013.479-18.544l-19.701-64.749 53.984-40.795a14.363 14.363 0 00.001-22.92zM166.384 121.01c20.38 0 36.901 20.314 36.901 45.374 0 25.061-16.521 45.375-36.901 45.375-20.38 0-36.901-20.314-36.901-45.375-.001-25.06 16.521-45.374 36.901-45.374zm-2.346 199.168a12.349 12.349 0 01-10.005 5.125c-2.581 0-5.059-.8-7.163-2.312-5.509-3.957-6.771-11.658-2.813-17.167l132.9-185.01a12.346 12.346 0 0110.005-5.125c2.58 0 5.058.8 7.162 2.312 5.509 3.957 6.771 11.658 2.813 17.167l-132.899 185.01zm110.572-.195c-20.38 0-36.901-20.313-36.901-45.375 0-25.059 16.521-45.373 36.901-45.373s36.9 20.314 36.9 45.373c.002 25.061-16.52 45.375-36.9 45.375z"/></svg>