<svg xmlns="http://www.w3.org/2000/svg" xmlns:xlink="http://www.w3.org/1999/xlink" viewBox="0 0 141.73 155.22"><defs><linearGradient id="a" x1="40.16" y1="72.32" x2="40.16" y2=".05" gradientUnits="userSpaceOnUse"><stop offset="0" stop-color="#7b170f"/><stop offset="1" stop-color="#e20714"/></linearGradient><linearGradient id="b" x1="108.9" y1="72.32" x2="108.9" y2="0" xlink:href="#a"/><linearGradient id="c" x1="-44.74" y1="214.29" x2="66.93" y2="82.96" xlink:href="#a"/><linearGradient id="d" x1="-54.96" y1="205.6" x2="56.7" y2="74.26" xlink:href="#a"/><linearGradient id="e" x1="-57.89" y1="203.1" x2="53.77" y2="71.77" xlink:href="#a"/><linearGradient id="f" x1="-60" y1="201.31" x2="51.67" y2="69.98" xlink:href="#a"/><linearGradient id="g" x1="-61.13" y1="200.35" x2="50.53" y2="69.02" xlink:href="#a"/><linearGradient id="h" x1="-60.82" y1="200.62" x2="50.85" y2="69.28" xlink:href="#a"/><linearGradient id="i" x1="-59.3" y1="201.91" x2="52.37" y2="70.57" xlink:href="#a"/><linearGradient id="j" x1="-56.86" y1="203.99" x2="54.81" y2="72.65" xlink:href="#a"/><linearGradient id="k" x1="-53.66" y1="206.7" x2="58" y2="75.37" xlink:href="#a"/><linearGradient id="l" x1="-49.95" y1="209.86" x2="61.72" y2="78.53" xlink:href="#a"/><linearGradient id="m" x1="-45.97" y1="213.24" x2="65.69" y2="81.91" xlink:href="#a"/><linearGradient id="n" x1="-41.97" y1="216.65" x2="69.7" y2="85.31" xlink:href="#a"/><linearGradient id="o" x1="-38.06" y1="219.97" x2="73.61" y2="88.64" xlink:href="#a"/><linearGradient id="p" x1="-34.51" y1="222.98" x2="77.15" y2="91.65" xlink:href="#a"/><linearGradient id="q" x1="-31.58" y1="225.48" x2="80.08" y2="94.14" xlink:href="#a"/><linearGradient id="r" x1="-29.48" y1="227.27" x2="82.19" y2="95.93" xlink:href="#a"/><linearGradient id="s" x1="-28.34" y1="228.23" x2="83.32" y2="96.9" xlink:href="#a"/><linearGradient id="t" x1="-28.66" y1="227.96" x2="83.01" y2="96.63" xlink:href="#a"/><linearGradient id="u" x1="-30.17" y1="226.67" x2="81.49" y2="95.34" xlink:href="#a"/><linearGradient id="v" x1="-32.62" y1="224.6" x2="79.05" y2="93.26" xlink:href="#a"/><linearGradient id="w" x1="-35.81" y1="221.88" x2="75.86" y2="90.55" xlink:href="#a"/><linearGradient id="x" x1="-39.53" y1="218.72" x2="72.14" y2="87.39" xlink:href="#a"/><linearGradient id="y" x1="-43.5" y1="215.34" x2="68.16" y2="84.01" xlink:href="#a"/><linearGradient id="z" x1="-47.51" y1="211.93" x2="64.16" y2="80.6" xlink:href="#a"/><linearGradient id="aa" x1="-51.42" y1="208.61" x2="60.25" y2="77.28" xlink:href="#a"/><linearGradient id="ac" x1="-53.54" y1="206.8" x2="58.12" y2="75.47" xlink:href="#a"/><linearGradient id="ad" x1="-55.5" y1="205.14" x2="56.16" y2="73.8" xlink:href="#a"/><linearGradient id="ae" x1="-56.99" y1="203.87" x2="54.67" y2="72.54" xlink:href="#a"/><linearGradient id="af" x1="-57.95" y1="203.06" x2="53.72" y2="71.73" xlink:href="#a"/><linearGradient id="ag" x1="-58.33" y1="202.74" x2="53.34" y2="71.4" xlink:href="#a"/><linearGradient id="ah" x1="-58.11" y1="202.92" x2="53.56" y2="71.59" xlink:href="#a"/><linearGradient id="ai" x1="-57.31" y1="203.6" x2="54.36" y2="72.27" xlink:href="#a"/><linearGradient id="aj" x1="-55.96" y1="204.75" x2="55.71" y2="73.42" xlink:href="#a"/><linearGradient id="ak" x1="-54.12" y1="206.32" x2="57.55" y2="74.98" xlink:href="#a"/><linearGradient id="al" x1="-51.87" y1="208.23" x2="59.8" y2="76.9" xlink:href="#a"/><linearGradient id="am" x1="-49.3" y1="210.41" x2="62.36" y2="79.08" xlink:href="#a"/><linearGradient id="an" x1="-46.54" y1="212.76" x2="65.12" y2="81.42" xlink:href="#a"/><linearGradient id="ao" x1="-43.7" y1="215.17" x2="67.97" y2="83.84" xlink:href="#a"/><linearGradient id="ap" x1="-40.91" y1="217.55" x2="70.76" y2="86.22" xlink:href="#a"/><linearGradient id="aq" x1="-38.28" y1="219.78" x2="73.39" y2="88.45" xlink:href="#a"/><linearGradient id="ar" x1="-35.93" y1="221.78" x2="75.73" y2="90.44" xlink:href="#a"/><linearGradient id="as" x1="-33.97" y1="223.44" x2="77.69" y2="92.11" xlink:href="#a"/><linearGradient id="at" x1="-32.48" y1="224.71" x2="79.18" y2="93.38" xlink:href="#a"/><linearGradient id="au" x1="-31.53" y1="225.52" x2="80.14" y2="94.19" xlink:href="#a"/><linearGradient id="av" x1="-31.15" y1="225.84" x2="80.52" y2="94.51" xlink:href="#a"/><linearGradient id="aw" x1="-31.37" y1="225.66" x2="80.3" y2="94.33" xlink:href="#a"/><linearGradient id="ax" x1="-32.17" y1="224.98" x2="79.5" y2="93.64" xlink:href="#a"/><linearGradient id="ay" x1="-33.52" y1="223.83" x2="78.15" y2="92.5" xlink:href="#a"/><linearGradient id="az" x1="-35.36" y1="222.26" x2="76.31" y2="90.93" xlink:href="#a"/><linearGradient id="ba" x1="-37.61" y1="220.35" x2="74.06" y2="89.02" xlink:href="#a"/><linearGradient id="bb" x1="-40.17" y1="218.17" x2="71.49" y2="86.84" xlink:href="#a"/><linearGradient id="bc" x1="-42.93" y1="215.82" x2="68.73" y2="84.49" xlink:href="#a"/><linearGradient id="bd" x1="-45.77" y1="213.41" x2="65.89" y2="82.08" xlink:href="#a"/><linearGradient id="be" x1="-48.57" y1="211.03" x2="63.1" y2="79.7" xlink:href="#a"/><linearGradient id="bf" x1="-51.2" y1="208.8" x2="60.47" y2="77.47" xlink:href="#a"/><linearGradient id="bg" x1="-44.74" y1="214.29" x2="66.93" y2="82.96" xlink:href="#a"/><linearGradient id="bh" x1="-65.41" y1="196.72" x2="46.26" y2="65.38" xlink:href="#a"/><linearGradient id="bi" x1="-67.4" y1="195.02" x2="44.27" y2="63.69" xlink:href="#a"/><linearGradient id="bj" x1="-68.86" y1="193.78" x2="42.81" y2="62.45" xlink:href="#a"/><linearGradient id="bk" x1="-69.74" y1="193.03" x2="41.92" y2="61.7" xlink:href="#a"/><linearGradient id="bl" x1="-69.94" y1="192.86" x2="41.73" y2="61.53" xlink:href="#a"/><linearGradient id="bm" x1="-69.3" y1="193.4" x2="42.36" y2="62.07" xlink:href="#a"/><linearGradient id="bn" x1="-68.08" y1="194.44" x2="43.58" y2="63.11" xlink:href="#a"/><linearGradient id="bo" x1="-66.31" y1="195.95" x2="45.35" y2="64.61" xlink:href="#a"/><linearGradient id="bp" x1="-64.03" y1="197.88" x2="47.63" y2="66.55" xlink:href="#a"/><linearGradient id="bq" x1="-61.31" y1="200.2" x2="50.36" y2="68.87" xlink:href="#a"/><linearGradient id="br" x1="-58.2" y1="202.84" x2="53.46" y2="71.51" xlink:href="#a"/><linearGradient id="bs" x1="-54.79" y1="205.74" x2="56.87" y2="74.41" xlink:href="#a"/><linearGradient id="bt" x1="-51.17" y1="208.82" x2="60.49" y2="77.49" xlink:href="#a"/><linearGradient id="bu" x1="-47.43" y1="212" x2="64.24" y2="80.67" xlink:href="#a"/><linearGradient id="bv" x1="-43.65" y1="215.22" x2="68.02" y2="83.88" xlink:href="#a"/><linearGradient id="bw" x1="-39.88" y1="218.42" x2="71.79" y2="87.09" xlink:href="#a"/><linearGradient id="bx" x1="-36.19" y1="221.56" x2="75.47" y2="90.22" xlink:href="#a"/><linearGradient id="by" x1="-32.68" y1="224.54" x2="78.98" y2="93.21" xlink:href="#a"/><linearGradient id="bz" x1="-29.44" y1="227.3" x2="82.23" y2="95.96" xlink:href="#a"/><linearGradient id="ca" x1="-26.54" y1="229.76" x2="85.12" y2="98.43" xlink:href="#a"/><linearGradient id="cb" x1="-24.07" y1="231.87" x2="87.6" y2="100.53" xlink:href="#a"/><linearGradient id="cc" x1="-22.08" y1="233.56" x2="89.59" y2="102.23" xlink:href="#a"/><linearGradient id="cd" x1="-20.62" y1="234.8" x2="91.05" y2="103.46" xlink:href="#a"/><linearGradient id="ce" x1="-19.73" y1="235.55" x2="91.93" y2="104.22" xlink:href="#a"/><linearGradient id="cf" x1="-19.54" y1="235.72" x2="92.13" y2="104.39" xlink:href="#a"/><linearGradient id="cg" x1="-20.17" y1="235.18" x2="91.49" y2="103.84" xlink:href="#a"/><linearGradient id="ch" x1="-21.39" y1="234.14" x2="90.27" y2="102.81" xlink:href="#a"/><linearGradient id="ci" x1="-23.16" y1="232.63" x2="88.5" y2="101.3" xlink:href="#a"/><linearGradient id="cj" x1="-25.44" y1="230.7" x2="86.23" y2="99.36" xlink:href="#a"/><linearGradient id="ck" x1="-28.17" y1="228.38" x2="83.5" y2="97.05" xlink:href="#a"/><linearGradient id="cl" x1="-31.27" y1="225.74" x2="80.39" y2="94.4" xlink:href="#a"/><linearGradient id="cm" x1="-34.68" y1="222.84" x2="76.99" y2="91.51" xlink:href="#a"/><linearGradient id="cn" x1="-38.3" y1="219.76" x2="73.36" y2="88.43" xlink:href="#a"/><linearGradient id="co" x1="-42.05" y1="216.58" x2="69.62" y2="85.24" xlink:href="#a"/><linearGradient id="cp" x1="-45.83" y1="213.36" x2="65.84" y2="82.03" xlink:href="#a"/><linearGradient id="cq" x1="-49.6" y1="210.16" x2="62.07" y2="78.82" xlink:href="#a"/><linearGradient id="cr" x1="-53.28" y1="207.02" x2="58.38" y2="75.69" xlink:href="#a"/><linearGradient id="cs" x1="-56.79" y1="204.04" x2="54.87" y2="72.71" xlink:href="#a"/><linearGradient id="ct" x1="-60.04" y1="201.28" x2="51.63" y2="69.95" xlink:href="#a"/><linearGradient id="cu" x1="-62.93" y1="198.82" x2="48.73" y2="67.49" xlink:href="#a"/><linearGradient id="cv" x1="-63.39" y1="198.43" x2="48.28" y2="67.1" xlink:href="#a"/><linearGradient id="cw" x1="-65.16" y1="196.92" x2="46.5" y2="65.59" xlink:href="#a"/><linearGradient id="cx" x1="-66.38" y1="195.89" x2="45.29" y2="64.56" xlink:href="#a"/><linearGradient id="cy" x1="-67" y1="195.36" x2="44.67" y2="64.03" xlink:href="#a"/><linearGradient id="cz" x1="-67.01" y1="195.35" x2="44.65" y2="64.02" xlink:href="#a"/><linearGradient id="da" x1="-66.42" y1="195.85" x2="45.24" y2="64.52" xlink:href="#a"/><linearGradient id="db" x1="-65.24" y1="196.86" x2="46.43" y2="65.53" xlink:href="#a"/><linearGradient id="dc" x1="-63.5" y1="198.34" x2="48.17" y2="67.01" xlink:href="#a"/><linearGradient id="dd" x1="-61.24" y1="200.26" x2="50.42" y2="68.92" xlink:href="#a"/><linearGradient id="de" x1="-58.54" y1="202.56" x2="53.13" y2="71.22" xlink:href="#a"/><linearGradient id="df" x1="-55.46" y1="205.18" x2="56.21" y2="73.84" xlink:href="#a"/><linearGradient id="dg" x1="-52.08" y1="208.04" x2="59.58" y2="76.71" xlink:href="#a"/><linearGradient id="dh" x1="-48.51" y1="211.08" x2="63.16" y2="79.75" xlink:href="#a"/><linearGradient id="di" x1="-44.83" y1="214.21" x2="66.83" y2="82.88" xlink:href="#a"/><linearGradient id="dj" x1="-41.15" y1="217.34" x2="70.51" y2="86" xlink:href="#a"/><linearGradient id="dk" x1="-37.57" y1="220.38" x2="74.09" y2="89.05" xlink:href="#a"/><linearGradient id="dl" x1="-34.19" y1="223.26" x2="77.48" y2="91.93" xlink:href="#a"/><linearGradient id="dm" x1="-31.09" y1="225.9" x2="80.58" y2="94.56" xlink:href="#a"/><linearGradient id="dn" x1="-28.36" y1="228.21" x2="83.3" y2="96.88" xlink:href="#a"/><linearGradient id="do" x1="-26.08" y1="230.15" x2="85.58" y2="98.82" xlink:href="#a"/><linearGradient id="dp" x1="-24.31" y1="231.66" x2="87.35" y2="100.32" xlink:href="#a"/><linearGradient id="dq" x1="-23.1" y1="232.69" x2="88.57" y2="101.35" xlink:href="#a"/><linearGradient id="dr" x1="-22.48" y1="233.22" x2="89.19" y2="101.88" xlink:href="#a"/><linearGradient id="ds" x1="-22.46" y1="233.23" x2="89.2" y2="101.9" xlink:href="#a"/><linearGradient id="dt" x1="-23.05" y1="232.73" x2="88.61" y2="101.39" xlink:href="#a"/><linearGradient id="du" x1="-24.24" y1="231.72" x2="87.43" y2="100.39" xlink:href="#a"/><linearGradient id="dv" x1="-25.98" y1="230.24" x2="85.69" y2="98.91" xlink:href="#a"/><linearGradient id="dw" x1="-28.23" y1="228.32" x2="83.43" y2="96.99" xlink:href="#a"/><linearGradient id="dx" x1="-30.94" y1="226.02" x2="80.73" y2="94.69" xlink:href="#a"/><linearGradient id="dy" x1="-34.02" y1="223.4" x2="77.65" y2="92.07" xlink:href="#a"/><linearGradient id="dz" x1="-37.39" y1="220.54" x2="74.27" y2="89.2" xlink:href="#a"/><linearGradient id="ea" x1="-40.97" y1="217.5" x2="70.7" y2="86.16" xlink:href="#a"/><linearGradient id="eb" x1="-44.64" y1="214.37" x2="67.02" y2="83.04" xlink:href="#a"/><linearGradient id="ec" x1="-48.32" y1="211.24" x2="63.35" y2="79.91" xlink:href="#a"/><linearGradient id="ed" x1="-51.9" y1="208.2" x2="59.76" y2="76.87" xlink:href="#a"/><linearGradient id="ee" x1="-55.29" y1="205.32" x2="56.38" y2="73.99" xlink:href="#a"/><linearGradient id="ef" x1="-58.39" y1="202.69" x2="53.28" y2="71.35" xlink:href="#a"/><linearGradient id="eg" x1="-61.11" y1="200.37" x2="50.55" y2="69.03" xlink:href="#a"/><linearGradient id="ek" x1="111.02" y1="154.7" x2="111.02" y2="82.44" xlink:href="#a"/><style>.c{fill:url(#c)}</style></defs><path d="M7 72.32V.05h29.9a36.08 36.08 0 019.66 1.29A35.66 35.66 0 0155.24 5a37.51 37.51 0 017.38 5.68A35.68 35.68 0 0168.35 18 36.53 36.53 0 0172 26.6a35.87 35.87 0 010 19.21 36.61 36.61 0 01-3.68 8.63 35.68 35.68 0 01-5.73 7.31A36.37 36.37 0 0146.54 71a36.08 36.08 0 01-9.66 1.29zm29.9-16.55a19.21 19.21 0 007.59-1.53 20.88 20.88 0 006.35-4.19 19.8 19.8 0 004.37-6.23 18.81 18.81 0 000-15.23 20.24 20.24 0 00-4.37-6.25 20.76 20.76 0 00-6.35-4.21 19 19 0 00-7.59-1.54H23.47v39.18z" fill="url(#a)"/><path d="M102.35 58.75a6.57 6.57 0 011.11-.91 9 9 0 011.28-.65 4.4 4.4 0 011.74-.31h30.41v15.44H80.31V64.8a12.11 12.11 0 013-8.22l30.86-41.1H82.08V0h55.42v7.51a13.17 13.17 0 01-.63 4 12 12 0 01-1.79 3.56z" fill="url(#b)"/><path class="c" d="M52.38 118.55h-.52a15.19 15.19 0 11-4.45-10.74 15.12 15.12 0 014.45 10.74h1A16.23 16.23 0 1048.14 130a16.19 16.19 0 004.76-11.47z"/><path d="M34.86 98.52a2.65 2.65 0 01.57-1.67 1.83 1.83 0 01.57-.48 1.41 1.41 0 011.34 0 1.92 1.92 0 01.8.82 2.71 2.71 0 01.34 1.33h1a3.69 3.69 0 00-.8-2.33 2.86 2.86 0 00-.91-.75 2.46 2.46 0 00-2.28 0 3 3 0 00-1.24 1.24 3.78 3.78 0 00-.47 1.84z" fill="url(#d)"/><path d="M29.74 99.67a3.21 3.21 0 01-.1-.74 2.39 2.39 0 01.36-1.29 1.62 1.62 0 01.39-.43 1.36 1.36 0 01.5-.24 1.12 1.12 0 01.36 0 1.61 1.61 0 01.6.12 2.11 2.11 0 01.83.62 2.7 2.7 0 01.55 1.08l1-.27a3.77 3.77 0 00-1.13-1.85 2.89 2.89 0 00-.86-.54 2.62 2.62 0 00-1-.2 2.27 2.27 0 00-.63.08 2.38 2.38 0 00-.86.42 3 3 0 00-.86 1.11 3.57 3.57 0 00-.3 1.44 4 4 0 00.14 1l1-.27z" fill="url(#e)"/><path d="M25.1 102.11a2.78 2.78 0 01-.39-1.37 2.16 2.16 0 01.21-.93 1.48 1.48 0 01.58-.61 1.43 1.43 0 01.74-.19 2 2 0 011.07.33 2.72 2.72 0 01.91 1l.91-.52a4 4 0 00-1.27-1.33 3.19 3.19 0 00-1.62-.49A2.51 2.51 0 0024 99.34a3.07 3.07 0 00-.33 1.4 3.88 3.88 0 00.52 1.89l.91-.52z" fill="url(#f)"/><path d="M21.24 105.67a2.6 2.6 0 01-.8-1.79 1.81 1.81 0 01.11-.63 1.38 1.38 0 01.32-.5 1.61 1.61 0 01.5-.33 1.85 1.85 0 01.63-.11 2.63 2.63 0 011.79.8l.74-.73a3.63 3.63 0 00-2.53-1.11 2.85 2.85 0 00-1 .18 2.41 2.41 0 00-.86.56 2.45 2.45 0 00-.56.87 2.57 2.57 0 00-.18 1 3.59 3.59 0 001.1 2.52l.74-.73z" fill="url(#g)"/><path d="M18.43 110.1a2.78 2.78 0 01-1-.92 2 2 0 01-.33-1.07 1.48 1.48 0 01.19-.74 1.56 1.56 0 01.62-.57 2 2 0 01.93-.21 2.76 2.76 0 011.37.38l.52-.9a3.8 3.8 0 00-1.89-.52 3.2 3.2 0 00-1.41.32 2.48 2.48 0 00-1.37 2.24 3.11 3.11 0 00.49 1.63 3.84 3.84 0 001.36 1.26l.52-.9z" fill="url(#h)"/><path d="M16.86 115.11a2.74 2.74 0 01-1.34-.81 2.18 2.18 0 01-.36-.57 1.61 1.61 0 01-.12-.6 1.57 1.57 0 01.05-.37 1.49 1.49 0 01.24-.49 1.79 1.79 0 01.71-.54 2.34 2.34 0 011-.21 2.82 2.82 0 01.75.1l.27-1a4 4 0 00-1-.13 3.45 3.45 0 00-1.86.52 2.76 2.76 0 00-.68.64 2.42 2.42 0 00-.42.85 2.35 2.35 0 00-.09.64 2.57 2.57 0 00.2 1 3.25 3.25 0 00.92 1.24 3.84 3.84 0 001.48.75l.26-1z" fill="url(#i)"/><path d="M16.65 120.35a2.65 2.65 0 01-1.68-.56 1.86 1.86 0 01-.48-.58 1.46 1.46 0 010-1.33 2.06 2.06 0 01.82-.81 2.77 2.77 0 011.34-.33v-1a3.66 3.66 0 00-2.34.8 2.79 2.79 0 00-.74.9 2.48 2.48 0 000 2.29 3.08 3.08 0 001.24 1.24 3.83 3.83 0 001.84.46v-1z" fill="url(#j)"/><path d="M17.8 125.47a2.82 2.82 0 01-.75.1 2.33 2.33 0 01-1.29-.36 1.79 1.79 0 01-.43-.39 1.49 1.49 0 01-.24-.49A1.57 1.57 0 0115 124a1.61 1.61 0 01.12-.6 2.41 2.41 0 01.63-.83 2.79 2.79 0 011.07-.55l-.26-1a3.74 3.74 0 00-1.86 1.12 3.16 3.16 0 00-.54.87 2.57 2.57 0 00-.2 1 2.35 2.35 0 00.09.64 2.42 2.42 0 00.42.85 2.73 2.73 0 001.1.86 3.47 3.47 0 001.44.3 4 4 0 001-.13l-.27-1z" fill="url(#k)"/><path d="M20.24 130.12a2.76 2.76 0 01-1.37.38 2 2 0 01-.93-.21 1.56 1.56 0 01-.62-.57 1.48 1.48 0 01-.19-.74 2 2 0 01.33-1.07 2.78 2.78 0 011-.92l-.52-.9a3.84 3.84 0 00-1.33 1.26 3.11 3.11 0 00-.49 1.63 2.48 2.48 0 001.37 2.24 3.2 3.2 0 001.41.32 3.8 3.8 0 001.89-.52l-.52-.9z" fill="url(#l)"/><path d="M23.79 134a2.63 2.63 0 01-1.79.8 1.85 1.85 0 01-.63-.11 1.61 1.61 0 01-.5-.33 1.38 1.38 0 01-.32-.5 1.81 1.81 0 01-.11-.63 2.6 2.6 0 01.8-1.79l-.74-.73a3.61 3.61 0 00-1.1 2.52 2.57 2.57 0 00.18 1 2.45 2.45 0 00.56.87 2.41 2.41 0 00.86.56 2.85 2.85 0 001 .18 3.63 3.63 0 002.53-1.11l-.74-.73z" fill="url(#m)"/><path d="M28.22 136.79a2.72 2.72 0 01-.91 1 2 2 0 01-1.07.33 1.43 1.43 0 01-.74-.19 1.48 1.48 0 01-.58-.61 2.16 2.16 0 01-.21-.93 2.78 2.78 0 01.39-1.39l-.91-.52a3.88 3.88 0 00-.52 1.89 3.07 3.07 0 00.33 1.4 2.51 2.51 0 002.24 1.38 3.1 3.1 0 001.62-.49 4 4 0 001.27-1.33l-.91-.52z" fill="url(#n)"/><path d="M33.23 138.35a2.73 2.73 0 01-.8 1.34 2.13 2.13 0 01-.58.36 1.61 1.61 0 01-.6.12 1.12 1.12 0 01-.36 0 1.36 1.36 0 01-.5-.24 1.83 1.83 0 01-.54-.7 2.54 2.54 0 01-.21-1 3.21 3.21 0 01.1-.74l-1-.27a4 4 0 00-.14 1 3.35 3.35 0 00.53 1.86 2.76 2.76 0 00.63.69 2.38 2.38 0 00.86.42 2.27 2.27 0 00.63.08 2.62 2.62 0 001-.2 3.14 3.14 0 001.23-.92 3.81 3.81 0 00.76-1.47l-1-.27z" fill="url(#o)"/><path d="M38.48 138.57a2.65 2.65 0 01-.57 1.67 1.83 1.83 0 01-.57.48 1.41 1.41 0 01-1.34 0 1.92 1.92 0 01-.8-.82 2.71 2.71 0 01-.34-1.33h-1a3.67 3.67 0 00.8 2.33 2.86 2.86 0 00.91.75 2.46 2.46 0 002.28 0 3 3 0 001.24-1.24 3.78 3.78 0 00.47-1.84z" fill="url(#p)"/><path d="M43.6 137.42a3.21 3.21 0 01.1.74 2.39 2.39 0 01-.36 1.29 1.62 1.62 0 01-.39.43 1.36 1.36 0 01-.5.24 1.12 1.12 0 01-.36 0 1.61 1.61 0 01-.6-.12 2.11 2.11 0 01-.83-.62 2.7 2.7 0 01-.55-1.08l-1 .27a3.77 3.77 0 001.13 1.85 2.89 2.89 0 00.86.54 2.62 2.62 0 001 .2 2.27 2.27 0 00.63-.08 2.38 2.38 0 00.86-.42 3 3 0 00.86-1.11 3.57 3.57 0 00.3-1.44 4 4 0 00-.14-1l-1 .27z" fill="url(#q)"/><path d="M48.24 135a2.78 2.78 0 01.39 1.37 2.16 2.16 0 01-.21.93 1.48 1.48 0 01-.58.61 1.43 1.43 0 01-.74.19 2 2 0 01-1.07-.33 2.72 2.72 0 01-.91-1l-.91.52a4 4 0 001.27 1.33 3.1 3.1 0 001.62.49 2.46 2.46 0 001.26-.34 2.52 2.52 0 001-1 3.07 3.07 0 00.33-1.4 3.88 3.88 0 00-.52-1.89l-.91.52z" fill="url(#r)"/><path d="M52.1 131.42a2.6 2.6 0 01.8 1.79 1.81 1.81 0 01-.11.63 1.38 1.38 0 01-.32.5 1.61 1.61 0 01-.5.33 1.85 1.85 0 01-.63.11 2.63 2.63 0 01-1.79-.8l-.74.73a3.63 3.63 0 002.53 1.11 2.85 2.85 0 001-.18 2.41 2.41 0 00.86-.56 2.45 2.45 0 00.56-.87 2.57 2.57 0 00.18-1 3.61 3.61 0 00-1.1-2.52l-.74.73z" fill="url(#s)"/><path d="M54.91 127a2.78 2.78 0 011 .92 2 2 0 01.33 1.07 1.48 1.48 0 01-.19.74 1.56 1.56 0 01-.62.57 2 2 0 01-.93.21 2.76 2.76 0 01-1.37-.38l-.52.9a3.8 3.8 0 001.89.52 3.2 3.2 0 001.41-.32 2.48 2.48 0 001.34-2.23 3.11 3.11 0 00-.49-1.63 3.84 3.84 0 00-1.33-1.26l-.52.9z" fill="url(#t)"/><path d="M56.48 122a2.74 2.74 0 011.34.81 2.48 2.48 0 01.36.57 1.61 1.61 0 01.12.6 1.57 1.57 0 010 .37 1.49 1.49 0 01-.24.49 1.7 1.7 0 01-.71.54 2.34 2.34 0 01-1 .21 2.82 2.82 0 01-.75-.1l-.27 1a4 4 0 001 .13 3.45 3.45 0 001.86-.52 2.76 2.76 0 00.68-.64 2.42 2.42 0 00.42-.85 2.35 2.35 0 00.09-.64 2.57 2.57 0 00-.2-1 3.14 3.14 0 00-.92-1.23 3.72 3.72 0 00-1.48-.76l-.26 1z" fill="url(#u)"/><path d="M56.69 116.74a2.65 2.65 0 011.68.56 1.86 1.86 0 01.48.58 1.46 1.46 0 010 1.33 2.06 2.06 0 01-.85.79 2.77 2.77 0 01-1.34.33v1a3.66 3.66 0 002.34-.8 2.79 2.79 0 00.74-.9 2.48 2.48 0 000-2.29 3.08 3.08 0 00-1.24-1.24 3.83 3.83 0 00-1.84-.46v1z" fill="url(#v)"/><path d="M55.54 111.62a2.82 2.82 0 01.75-.1 2.33 2.33 0 011.29.36 1.79 1.79 0 01.43.39 1.49 1.49 0 01.24.49 1.57 1.57 0 010 .37 1.61 1.61 0 01-.12.6 2.41 2.41 0 01-.63.83 2.79 2.79 0 01-1.07.55l.26 1A3.74 3.74 0 0058.6 115a3.16 3.16 0 00.54-.87 2.57 2.57 0 00.2-1 2.35 2.35 0 00-.09-.64 2.42 2.42 0 00-.42-.85 2.73 2.73 0 00-1.1-.86 3.47 3.47 0 00-1.44-.3 4 4 0 00-1 .13l.27 1z" fill="url(#w)"/><path d="M53.1 107a2.76 2.76 0 011.37-.38 2 2 0 01.93.21 1.56 1.56 0 01.62.57 1.48 1.48 0 01.19.74 2 2 0 01-.33 1.07 2.78 2.78 0 01-1 .92l.52.9a3.84 3.84 0 001.33-1.26 3.11 3.11 0 00.49-1.63 2.48 2.48 0 00-1.37-2.24 3.2 3.2 0 00-1.41-.32 3.8 3.8 0 00-1.89.52l.52.9z" fill="url(#x)"/><path d="M49.55 103.11a2.63 2.63 0 011.79-.8 1.75 1.75 0 01.62.11 1.54 1.54 0 01.51.33 1.38 1.38 0 01.32.5 1.81 1.81 0 01.11.63 2.6 2.6 0 01-.8 1.79l.74.73a3.59 3.59 0 001.1-2.52 2.57 2.57 0 00-.18-1 2.45 2.45 0 00-.56-.87 2.41 2.41 0 00-.86-.56 2.85 2.85 0 00-1-.18 3.63 3.63 0 00-2.53 1.11l.74.73z" fill="url(#y)"/><path d="M45.12 100.3a2.72 2.72 0 01.91-1 2 2 0 011.07-.3 1.46 1.46 0 01.74.19 1.48 1.48 0 01.58.61 2.16 2.16 0 01.21.93 2.78 2.78 0 01-.39 1.37l.91.52a3.88 3.88 0 00.52-1.89 3.07 3.07 0 00-.33-1.4A2.51 2.51 0 0047.1 98a3.19 3.19 0 00-1.62.49 4 4 0 00-1.27 1.33l.91.52z" fill="url(#z)"/><path d="M40.11 98.74a2.73 2.73 0 01.8-1.34 2 2 0 01.58-.36 1.61 1.61 0 01.6-.12 1.12 1.12 0 01.36 0 1.36 1.36 0 01.5.24 1.83 1.83 0 01.54.7 2.54 2.54 0 01.21 1 3.21 3.21 0 01-.1.74l1 .27a4 4 0 00.14-1 3.35 3.35 0 00-.53-1.86 2.76 2.76 0 00-.63-.69 2.38 2.38 0 00-.86-.42 2.27 2.27 0 00-.63-.08 2.62 2.62 0 00-1 .2 3.14 3.14 0 00-1.23.92 3.81 3.81 0 00-.76 1.47l1 .27z" fill="url(#aa)"/><path class="c" d="M56.67 118.55h-.52a19.48 19.48 0 11-5.71-13.78 19.4 19.4 0 015.71 13.78h1a20.52 20.52 0 10-6 14.5 20.46 20.46 0 006-14.5z"/><circle cx="36.67" cy="100.7" r="1.25" fill="url(#ac)"/><path d="M34.19 100.83a1.26 1.26 0 01-1 1.49 1.25 1.25 0 111-1.49z" fill="url(#ad)"/><path d="M30.56 101.74a1.25 1.25 0 11-1.66-.64 1.25 1.25 0 011.66.64z" fill="url(#ae)"/><path d="M27.2 103.37a1.26 1.26 0 11-1.75-.27 1.26 1.26 0 011.75.27z" fill="url(#af)"/><path d="M24.25 105.68a1.25 1.25 0 01-1.68 1.86 1.25 1.25 0 011.68-1.86z" fill="url(#ag)"/><path d="M21.84 108.54a1.25 1.25 0 11-1.71.46 1.25 1.25 0 011.71-.46z" fill="url(#ah)"/><path d="M20.09 111.84a1.25 1.25 0 01-.78 2.38 1.25 1.25 0 11.78-2.38z" fill="url(#ai)"/><path d="M19.06 115.43a1.26 1.26 0 11-1.38 1.12 1.26 1.26 0 011.38-1.12z" fill="url(#aj)"/><path d="M18.79 119.16a1.26 1.26 0 11-1.11 1.38 1.26 1.26 0 011.11-1.38z" fill="url(#ak)"/><path d="M19.31 122.87a1.25 1.25 0 01.78 2.38 1.25 1.25 0 01-.78-2.38z" fill="url(#al)"/><path d="M20.59 126.38a1.25 1.25 0 11-.46 1.71 1.25 1.25 0 01.46-1.71z" fill="url(#am)"/><path d="M22.57 129.55a1.25 1.25 0 11-.09 1.77 1.25 1.25 0 01.09-1.77z" fill="url(#an)"/><path d="M25.17 132.24a1.26 1.26 0 11.28 1.75 1.25 1.25 0 01-.28-1.75z" fill="url(#ao)"/><path d="M28.27 134.34a1.25 1.25 0 11.63 1.66 1.25 1.25 0 01-.63-1.66z" fill="url(#ap)"/><path d="M31.74 135.74a1.25 1.25 0 011.48-1 1.25 1.25 0 11-.52 2.45 1.24 1.24 0 01-.96-1.45z" fill="url(#aq)"/><circle cx="36.67" cy="136.39" r="1.25" fill="url(#ar)"/><path d="M39.15 136.26a1.26 1.26 0 011-1.49 1.25 1.25 0 11-1 1.49z" fill="url(#as)"/><path d="M42.78 135.35a1.25 1.25 0 111.66.64 1.25 1.25 0 01-1.66-.64z" fill="url(#at)"/><path d="M46.14 133.72a1.26 1.26 0 111.75.27 1.26 1.26 0 01-1.75-.27z" fill="url(#au)"/><path d="M49.09 131.41a1.25 1.25 0 011.68-1.86 1.26 1.26 0 01.09 1.77 1.24 1.24 0 01-1.77.09z" fill="url(#av)"/><path d="M51.5 128.55a1.25 1.25 0 111.71-.46 1.25 1.25 0 01-1.71.46z" fill="url(#aw)"/><path d="M53.25 125.25a1.25 1.25 0 01.78-2.38 1.25 1.25 0 11-.78 2.38z" fill="url(#ax)"/><path d="M54.28 121.66a1.26 1.26 0 111.38-1.12 1.26 1.26 0 01-1.38 1.12z" fill="url(#ay)"/><path d="M54.54 117.93a1.26 1.26 0 111.12-1.38 1.25 1.25 0 01-1.12 1.38z" fill="url(#az)"/><path d="M54 114.22a1.25 1.25 0 01-.78-2.38 1.25 1.25 0 11.78 2.38z" fill="url(#ba)"/><path d="M52.75 110.71a1.25 1.25 0 11.46-1.71 1.25 1.25 0 01-.46 1.71z" fill="url(#bb)"/><path d="M50.77 107.54a1.25 1.25 0 11.09-1.77 1.25 1.25 0 01-.09 1.77z" fill="url(#bc)"/><path d="M48.17 104.85a1.26 1.26 0 11-.28-1.75 1.25 1.25 0 01.28 1.75z" fill="url(#bd)"/><path d="M45.07 102.75a1.25 1.25 0 11-.63-1.65 1.25 1.25 0 01.63 1.65z" fill="url(#be)"/><path d="M41.6 101.35a1.25 1.25 0 01-1.48 1 1.25 1.25 0 11.52-2.45 1.24 1.24 0 01.96 1.45z" fill="url(#bf)"/><path d="M36.67 107.42a11.13 11.13 0 1011.12 11.13 11.12 11.12 0 00-11.12-11.13zm0 14a2.93 2.93 0 112.93-2.92 2.93 2.93 0 01-2.93 2.97z" fill="url(#bg)"/><path d="M26.17 88.76a2.53 2.53 0 01.07-1.76 1.73 1.73 0 01.41-.6 1.42 1.42 0 01.58-.34 1.51 1.51 0 01.67 0 2 2 0 011 .55 2.67 2.67 0 01.68 1.16l1-.28a3.56 3.56 0 00-1.38-2 2.79 2.79 0 00-1.05-.45 2.5 2.5 0 00-1.15.05 2.39 2.39 0 00-1 .57 2.92 2.92 0 00-.82 1.5 3.65 3.65 0 00.01 1.84l1-.28z" fill="url(#bh)"/><path d="M21.64 90.77a2.5 2.5 0 01-.16-.43 2.34 2.34 0 010-1.46 1.64 1.64 0 01.31-.55 1.29 1.29 0 01.47-.36l.2-.08a1.43 1.43 0 01.62 0 2.06 2.06 0 011 .43 2.71 2.71 0 01.77 1l.92-.43a3.56 3.56 0 00-1.51-1.64 2.76 2.76 0 00-1-.34 2.5 2.5 0 00-1.05.07 3 3 0 00-.35.13 2.33 2.33 0 00-.8.62A2.83 2.83 0 0020.4 89a3.76 3.76 0 00.1 1.59 4.45 4.45 0 00.22.57l.92-.43z" fill="url(#bi)"/><path d="M17.48 93.46a2.73 2.73 0 01-.38-.79 2.21 2.21 0 010-1.22 1.5 1.5 0 01.59-.85 1.18 1.18 0 01.39-.19 1.85 1.85 0 011.21.11 2.75 2.75 0 011.13 1l.84-.57a3.72 3.72 0 00-1.57-1.32 2.81 2.81 0 00-1.89-.15 2.42 2.42 0 00-1.67 1.73 3.18 3.18 0 000 1.78 3.67 3.67 0 00.51 1.01l.84-.57z" fill="url(#bj)"/><path d="M13.79 96.77a2.62 2.62 0 01-.64-1.09 2.15 2.15 0 01-.05-1 1.5 1.5 0 01.42-.76 1.35 1.35 0 01.58-.33 1.88 1.88 0 011.12 0 2.65 2.65 0 011.13.73l.74-.7a3.66 3.66 0 00-1.56-1 3 3 0 00-1.72 0 2.3 2.3 0 00-1 .56 2.42 2.42 0 00-.72 1.29 3.14 3.14 0 00.09 1.53 3.8 3.8 0 00.87 1.51l.74-.7z" fill="url(#bk)"/><path d="M10.66 100.62a2.62 2.62 0 01-.92-1.32 2 2 0 01-.07-.79 1.4 1.4 0 011-1.17 2.1 2.1 0 011 0 2.8 2.8 0 011.08.51l.62-.8a3.77 3.77 0 00-1.49-.7 3.12 3.12 0 00-1.52 0 2.48 2.48 0 00-1.28.86 2.45 2.45 0 00-.48 1.14 3 3 0 00.09 1.22 3.65 3.65 0 001.31 1.85l.62-.8z" fill="url(#bl)"/><path d="M8.18 104.91a2.55 2.55 0 01-1.24-1.46 1.66 1.66 0 01-.06-.62 1.43 1.43 0 01.16-.56 1.49 1.49 0 01.39-.44 1.57 1.57 0 01.55-.27 2.5 2.5 0 011.89.26l.49-.89a3.46 3.46 0 00-2.66-.34 2.74 2.74 0 00-.89.44 2.29 2.29 0 00-.65.76 2.23 2.23 0 00-.29 1 2.71 2.71 0 00.1 1 3.54 3.54 0 001.72 2.07l.49-.89z" fill="url(#bm)"/><path d="M6.4 109.53a2.65 2.65 0 01-1-.64 2 2 0 01-.53-.87 1.49 1.49 0 010-.91 1.46 1.46 0 01.42-.59 1.69 1.69 0 01.7-.38 2.64 2.64 0 011.61.08l.34-1a3.64 3.64 0 00-2.23-.09 2.87 2.87 0 00-1.09.58 2.37 2.37 0 00-.7 1 2.5 2.5 0 000 1.53 3.12 3.12 0 00.79 1.31 3.89 3.89 0 001.39.88l.35-1z" fill="url(#bn)"/><path d="M5.36 114.38a2.66 2.66 0 01-1.22-.57 1.94 1.94 0 01-.64-.92 1.34 1.34 0 010-.66 1.4 1.4 0 01.42-.77 2 2 0 01.87-.49 2.64 2.64 0 011.26 0l.19-1a3.75 3.75 0 00-1.74.08 3 3 0 00-1.29.74 2.42 2.42 0 00-.71 1.3 2.39 2.39 0 00.06 1.13 2.91 2.91 0 001 1.42 3.75 3.75 0 001.68.79l.19-1z" fill="url(#bo)"/><path d="M5.09 119.33a2.74 2.74 0 01-1.41-.44 1.83 1.83 0 01-.74-1 1.24 1.24 0 010-.43 1.47 1.47 0 01.4-1 2.28 2.28 0 011-.64 3.06 3.06 0 01.87-.1v-1a3.82 3.82 0 00-1.18.15 3.34 3.34 0 00-1.52.93 2.51 2.51 0 00-.66 1.6 2.32 2.32 0 00.1.74 2.76 2.76 0 001.14 1.51 3.64 3.64 0 001.95.62v-1z" fill="url(#bp)"/><path d="M5.6 124.26A2.63 2.63 0 014 124a1.93 1.93 0 01-.54-.43 1.52 1.52 0 01-.3-.54 1.55 1.55 0 010-.21 1.3 1.3 0 010-.59 1.87 1.87 0 01.53-.81 2.47 2.47 0 011-.54 2.16 2.16 0 01.44-.1l-.13-1a3.86 3.86 0 00-.59.12 3.45 3.45 0 00-1.72 1.1 2.82 2.82 0 00-.47.89 2.45 2.45 0 00-.09 1 2.21 2.21 0 00.08.37 2.43 2.43 0 00.5.92 3 3 0 001.32.88 3.7 3.7 0 001.7.17l-.13-1z" fill="url(#bq)"/><path d="M6.88 129.05a2.62 2.62 0 01-1.72-.05 2.1 2.1 0 01-.61-.41 1.35 1.35 0 01-.33-.58 1.38 1.38 0 010-.67 2 2 0 01.55-1 2.66 2.66 0 011.16-.67l-.29-1a3.63 3.63 0 00-2 1.39 2.91 2.91 0 00-.45 1 2.42 2.42 0 00.63 2.15 3 3 0 001.5.82 3.61 3.61 0 001.84-.03l-.28-1z" fill="url(#br)"/><path d="M8.89 133.58a3.61 3.61 0 01-.42.16 2.52 2.52 0 01-1.47 0 2 2 0 01-.55-.31 1.51 1.51 0 01-.36-.47 1.59 1.59 0 01-.07-.2 1.44 1.44 0 010-.62 2 2 0 01.43-1 2.63 2.63 0 011-.77l-.45-.9A3.7 3.7 0 005.31 131a3 3 0 00-.31 1 2.48 2.48 0 000 1 2.13 2.13 0 00.14.35 2.34 2.34 0 00.61.81 2.86 2.86 0 001.37.62 3.45 3.45 0 001.59-.1 4.37 4.37 0 00.57-.21l-.43-.92z" fill="url(#bs)"/><path d="M11.58 137.74a2.58 2.58 0 01-.79.37 2.21 2.21 0 01-1.22 0 1.52 1.52 0 01-.85-.58 1.59 1.59 0 01-.18-.4 1.76 1.76 0 01.11-1.2 2.61 2.61 0 01.95-1.13L9 134a3.61 3.61 0 00-1.32 1.57 2.6 2.6 0 00.17 2.57 2.58 2.58 0 001.42 1 3.27 3.27 0 001.78 0 3.88 3.88 0 001.07-.51l-.57-.84z" fill="url(#bt)"/><path d="M14.9 141.43a2.8 2.8 0 01-1.1.63 2 2 0 01-1 .05 1.36 1.36 0 01-.77-.42 1.4 1.4 0 01-.32-.57 2 2 0 010-1.13 2.88 2.88 0 01.73-1.13l-.69-.74a3.7 3.7 0 00-1 1.57 2.94 2.94 0 000 1.71 2.51 2.51 0 00.56 1 2.6 2.6 0 001.29.72 3.19 3.19 0 001.5-.07 3.83 3.83 0 001.5-.87l-.69-.74z" fill="url(#bu)"/><path d="M18.74 144.55a2.58 2.58 0 01-1.31.93 1.85 1.85 0 01-.8.06 1.4 1.4 0 01-.66-.28 1.45 1.45 0 01-.51-.76 2.06 2.06 0 010-1 2.73 2.73 0 01.52-1.09l-.8-.62a3.79 3.79 0 00-.71 1.49 3.16 3.16 0 000 1.53 2.48 2.48 0 00.85 1.27 2.39 2.39 0 001.14.48 2.85 2.85 0 001.23-.09 3.58 3.58 0 001.83-1.28l-.8-.62z" fill="url(#bv)"/><path d="M23 147a2.53 2.53 0 01-1.46 1.23 1.88 1.88 0 01-.61.07 1.41 1.41 0 01-1-.55 2 2 0 01-.28-.56 2.56 2.56 0 01.26-1.89l-.88-.49a3.53 3.53 0 00-.35 2.67 2.6 2.6 0 00.44.88 2.42 2.42 0 00.76.66 2.38 2.38 0 001 .29 2.76 2.76 0 001-.1 3.57 3.57 0 002.06-1.73L23 147z" fill="url(#bw)"/><path d="M27.66 148.82a2.73 2.73 0 01-.64 1 2.07 2.07 0 01-.88.54 1.41 1.41 0 01-1.5-.43 2 2 0 01-.37-.7 2.63 2.63 0 01.07-1.61l-.95-.35a3.6 3.6 0 00-.1 2.24 3.05 3.05 0 00.58 1.08 2.54 2.54 0 001 .71 2.46 2.46 0 001.54 0 3 3 0 001.3-.79 3.68 3.68 0 00.88-1.39l-.95-.34z" fill="url(#bx)"/><path d="M32.5 149.86a2.65 2.65 0 01-.56 1.22 1.91 1.91 0 01-.93.63 1.35 1.35 0 01-.66 0 1.44 1.44 0 01-.76-.42 2.12 2.12 0 01-.5-.87 2.78 2.78 0 01-.09-1.22l-1-.19a3.59 3.59 0 00.07 1.73 3.05 3.05 0 00.74 1.3 2.39 2.39 0 002.43.65 2.9 2.9 0 001.43-1 3.73 3.73 0 00.78-1.68l-1-.19z" fill="url(#by)"/><path d="M37.45 150.12a2.6 2.6 0 01-.44 1.42 1.81 1.81 0 01-1 .73 1.54 1.54 0 01-.43.06 1.47 1.47 0 01-.95-.4 2.3 2.3 0 01-.63-1.05 2.73 2.73 0 01-.11-.87h-1a3.82 3.82 0 00.15 1.18 3.24 3.24 0 00.92 1.52 2.53 2.53 0 001.6.66 2.34 2.34 0 00.75-.09 2.81 2.81 0 001.51-1.14 3.73 3.73 0 00.62-2h-1z" fill="url(#bz)"/><path d="M42.38 149.61a2.6 2.6 0 01-.27 1.58 2 2 0 01-.43.54 1.56 1.56 0 01-.55.3l-.21.05a1.47 1.47 0 01-.59-.06 1.71 1.71 0 01-.8-.53 2.45 2.45 0 01-.55-1 3.26 3.26 0 01-.09-.45l-1 .13a3.75 3.75 0 00.13.6 3.4 3.4 0 001.14 1.74 2.5 2.5 0 00.84.49 2.34 2.34 0 001 .09 2.41 2.41 0 00.37-.07 2.53 2.53 0 00.92-.51 3 3 0 00.88-1.31 3.74 3.74 0 00.17-1.71l-1 .13z" fill="url(#ca)"/><path d="M47.17 148.33a2.53 2.53 0 01-.07 1.73 1.73 1.73 0 01-.41.6 1.42 1.42 0 01-.58.34 1.51 1.51 0 01-.67 0 2 2 0 01-1-.55 2.67 2.67 0 01-.68-1.16l-1 .28a3.56 3.56 0 001.38 2 2.79 2.79 0 001 .45 2.5 2.5 0 001.26-.02 2.39 2.39 0 001-.57 2.92 2.92 0 00.82-1.5 3.65 3.65 0 00-.06-1.85l-1 .28z" fill="url(#cb)"/><path d="M51.7 146.32a2.5 2.5 0 01.16.43 2.34 2.34 0 010 1.46 1.64 1.64 0 01-.31.55 1.29 1.29 0 01-.47.36l-.2.08a1.43 1.43 0 01-.62 0 2.06 2.06 0 01-1-.43 2.71 2.71 0 01-.77-1l-.92.43a3.56 3.56 0 001.51 1.64 2.76 2.76 0 001 .34 2.5 2.5 0 001-.07 3 3 0 00.35-.13 2.33 2.33 0 00.8-.62 2.83 2.83 0 00.63-1.37 3.76 3.76 0 00-.1-1.59 4.45 4.45 0 00-.22-.57l-.92.43z" fill="url(#cc)"/><path d="M55.86 143.63a2.73 2.73 0 01.38.79 2.21 2.21 0 010 1.22 1.47 1.47 0 01-.59.85 1.18 1.18 0 01-.39.19 1.85 1.85 0 01-1.21-.11 2.75 2.75 0 01-1.13-1l-.84.57a3.72 3.72 0 001.57 1.32 2.81 2.81 0 001.89.15 2.42 2.42 0 001.67-1.73 3.18 3.18 0 000-1.78 3.94 3.94 0 00-.51-1.08l-.84.57z" fill="url(#cd)"/><path d="M59.55 140.32a2.62 2.62 0 01.64 1.09 2.15 2.15 0 01.05 1 1.5 1.5 0 01-.42.76 1.35 1.35 0 01-.58.33 1.88 1.88 0 01-1.12 0 2.65 2.65 0 01-1.13-.73l-.74.7a3.66 3.66 0 001.56 1 3 3 0 001.72 0 2.3 2.3 0 001-.56 2.42 2.42 0 00.72-1.29 3.14 3.14 0 00-.07-1.49 3.8 3.8 0 00-.87-1.51l-.74.7z" fill="url(#ce)"/><path d="M62.68 136.47a2.62 2.62 0 01.92 1.32 2 2 0 01.07.79 1.4 1.4 0 01-1 1.17 2.1 2.1 0 01-1 0 2.8 2.8 0 01-1.08-.51l-.62.8a3.77 3.77 0 001.49.7 3.12 3.12 0 001.52 0 2.48 2.48 0 001.28-.86 2.45 2.45 0 00.48-1.14 3 3 0 00-.09-1.22 3.65 3.65 0 00-1.28-1.84l-.62.8z" fill="url(#cf)"/><path d="M65.16 132.18a2.55 2.55 0 011.24 1.46 1.66 1.66 0 01.06.62 1.43 1.43 0 01-.16.56 1.49 1.49 0 01-.39.44 1.57 1.57 0 01-.55.27 2.5 2.5 0 01-1.89-.26l-.49.89a3.46 3.46 0 002.66.34 2.74 2.74 0 00.89-.44 2.29 2.29 0 00.65-.76 2.23 2.23 0 00.29-1 2.71 2.71 0 00-.1-1 3.54 3.54 0 00-1.72-2.07l-.49.89z" fill="url(#cg)"/><path d="M66.94 127.56a2.65 2.65 0 011 .64 2 2 0 01.53.87 1.49 1.49 0 010 .91 1.46 1.46 0 01-.42.59 1.69 1.69 0 01-.7.38 2.64 2.64 0 01-1.61-.08l-.34 1a3.64 3.64 0 002.23.09 2.87 2.87 0 001.09-.58 2.37 2.37 0 00.7-1 2.5 2.5 0 000-1.53 3.18 3.18 0 00-.79-1.31 3.89 3.89 0 00-1.39-.88l-.35 1z" fill="url(#ch)"/><path d="M68 122.71a2.66 2.66 0 011.22.57 1.94 1.94 0 01.64.92 1.34 1.34 0 010 .66 1.4 1.4 0 01-.42.77 2 2 0 01-.87.49 2.64 2.64 0 01-1.26 0l-.19 1a3.75 3.75 0 001.74-.08 3 3 0 001.29-.74 2.42 2.42 0 00.71-1.3 2.39 2.39 0 00-.06-1.13 2.91 2.91 0 00-1-1.42 3.63 3.63 0 00-1.68-.78l-.19 1z" fill="url(#ci)"/><path d="M68.25 117.76a2.74 2.74 0 011.41.44 1.83 1.83 0 01.74 1 1.24 1.24 0 010 .43 1.47 1.47 0 01-.4 1 2.28 2.28 0 01-1 .64 3.06 3.06 0 01-.87.1v1a3.82 3.82 0 001.18-.15 3.34 3.34 0 001.52-.93 2.51 2.51 0 00.66-1.6 2.32 2.32 0 00-.1-.74 2.76 2.76 0 00-1.14-1.51 3.64 3.64 0 00-2-.62v1z" fill="url(#cj)"/><path d="M67.74 112.83a2.63 2.63 0 011.58.28 1.93 1.93 0 01.54.43 1.52 1.52 0 01.3.54 1.55 1.55 0 010 .21 1.3 1.3 0 010 .59 1.87 1.87 0 01-.53.81 2.47 2.47 0 01-1 .54 2.16 2.16 0 01-.44.1l.13 1a3.86 3.86 0 00.59-.12 3.45 3.45 0 001.75-1.14 2.82 2.82 0 00.47-.89 2.45 2.45 0 00.09-1 2.21 2.21 0 00-.08-.37 2.43 2.43 0 00-.5-.92 3 3 0 00-1.32-.88 3.7 3.7 0 00-1.7-.17l.13 1z" fill="url(#ck)"/><path d="M66.46 108a2.62 2.62 0 011.72.07 2.1 2.1 0 01.61.41 1.35 1.35 0 01.33.58 1.38 1.38 0 010 .67 2 2 0 01-.55 1 2.66 2.66 0 01-1.16.67l.29 1a3.63 3.63 0 002-1.39 2.91 2.91 0 00.45-1 2.42 2.42 0 00-.63-2.15A3 3 0 0068 107a3.73 3.73 0 00-1.84.07l.28 1z" fill="url(#cl)"/><path d="M64.45 103.51a3.61 3.61 0 01.42-.16 2.52 2.52 0 011.47 0 2 2 0 01.55.31 1.51 1.51 0 01.36.47 1.59 1.59 0 01.07.2 1.44 1.44 0 010 .62 2 2 0 01-.43 1 2.63 2.63 0 01-1 .77l.43.92A3.7 3.7 0 0068 106.1a3 3 0 00.34-1 2.48 2.48 0 00-.07-1 2.13 2.13 0 00-.14-.35 2.34 2.34 0 00-.61-.81 2.86 2.86 0 00-1.37-.62 3.45 3.45 0 00-1.59.1 3.9 3.9 0 00-.57.21l.43.92z" fill="url(#cm)"/><path d="M61.76 99.35a2.58 2.58 0 01.79-.37 2.21 2.21 0 011.22 0 1.49 1.49 0 01.85.59 1.38 1.38 0 01.18.39 1.76 1.76 0 01-.11 1.2 2.61 2.61 0 01-.95 1.13l.57.84a3.61 3.61 0 001.32-1.57 2.93 2.93 0 00.15-1.89 2.8 2.8 0 00-.32-.68A2.58 2.58 0 0064 98a3.27 3.27 0 00-1.78 0 3.88 3.88 0 00-1.07.51l.57.84z" fill="url(#cn)"/><path d="M58.44 95.66a2.8 2.8 0 011.1-.63 2 2 0 011 0 1.36 1.36 0 01.77.42 1.4 1.4 0 01.32.57 2 2 0 010 1.13 2.88 2.88 0 01-.73 1.13l.69.74a3.7 3.7 0 001-1.57 2.94 2.94 0 00.05-1.71A2.39 2.39 0 0060.75 94a3.06 3.06 0 00-1.5.06 3.83 3.83 0 00-1.5.87l.69.74z" fill="url(#co)"/><path d="M54.6 92.54a2.58 2.58 0 011.31-.93 1.85 1.85 0 01.8-.06 1.4 1.4 0 01.66.28 1.49 1.49 0 01.51.76 2.06 2.06 0 010 1 2.73 2.73 0 01-.52 1.09l.8.62a3.79 3.79 0 00.71-1.49 3.16 3.16 0 000-1.53 2.41 2.41 0 00-2-1.75 2.85 2.85 0 00-1.23.09 3.58 3.58 0 00-1.83 1.28l.8.62z" fill="url(#cp)"/><path d="M50.31 90.05a2.53 2.53 0 011.46-1.23 1.85 1.85 0 01.61-.07 1.41 1.41 0 011 .55 2 2 0 01.28.56 2.56 2.56 0 01-.26 1.89l.88.49a3.53 3.53 0 00.35-2.67 2.6 2.6 0 00-.44-.88 2.42 2.42 0 00-.76-.66 2.38 2.38 0 00-1-.29 2.56 2.56 0 00-1 .11 3.52 3.52 0 00-2.06 1.72l.89.48z" fill="url(#cq)"/><path d="M45.68 88.27a2.73 2.73 0 01.64-1 2.07 2.07 0 01.88-.54 1.41 1.41 0 011.5.43 2 2 0 01.37.7 2.63 2.63 0 01-.07 1.6l1 .35a3.6 3.6 0 00.1-2.24 3.05 3.05 0 00-.58-1.08 2.54 2.54 0 00-1-.71 2.46 2.46 0 00-1.54 0 3 3 0 00-1.3.79 3.68 3.68 0 00-.88 1.39l1 .34z" fill="url(#cr)"/><path d="M40.84 87.23A2.65 2.65 0 0141.4 86a1.91 1.91 0 01.93-.63 1.35 1.35 0 01.66 0 1.44 1.44 0 01.76.42 2.12 2.12 0 01.5.87 2.78 2.78 0 010 1.26l1 .19a3.59 3.59 0 00-.07-1.73 3.05 3.05 0 00-.74-1.3 2.44 2.44 0 00-1.3-.7 2.39 2.39 0 00-1.13.05 2.9 2.9 0 00-1.43 1 3.73 3.73 0 00-.74 1.57l1 .19z" fill="url(#cs)"/><path d="M35.89 87a2.6 2.6 0 01.44-1.42 1.81 1.81 0 011-.73 1.54 1.54 0 01.43-.06 1.47 1.47 0 011 .4 2.3 2.3 0 01.63 1 2.73 2.73 0 01.11.87h1a3.82 3.82 0 00-.15-1.18 3.24 3.24 0 00-.92-1.52 2.53 2.53 0 00-1.6-.66 2.34 2.34 0 00-.75.09A2.81 2.81 0 0035.49 85a3.73 3.73 0 00-.62 2h1z" fill="url(#ct)"/><path d="M31 87.48a2.6 2.6 0 01.27-1.58 2 2 0 01.43-.54 1.56 1.56 0 01.55-.3h.21a1.47 1.47 0 01.59.06 1.71 1.71 0 01.8.53 2.45 2.45 0 01.55 1 3.26 3.26 0 01.09.45l1-.13a3.75 3.75 0 00-.13-.6 3.4 3.4 0 00-1.14-1.74 2.5 2.5 0 00-.88-.47 2.34 2.34 0 00-1-.09 2.41 2.41 0 00-.37.07 2.53 2.53 0 00-.92.51 3 3 0 00-.88 1.31 3.74 3.74 0 00-.17 1.65l1-.13z" fill="url(#cu)"/><circle cx="28.48" cy="90.38" r="1.22" fill="url(#cv)"/><path d="M25.05 91.59a1.22 1.22 0 11-1.63-.59 1.21 1.21 0 011.63.59z" fill="url(#cw)"/><path d="M20.77 93.87a1.22 1.22 0 11-1.7-.3 1.22 1.22 0 011.7.3z" fill="url(#cx)"/><path d="M16.93 96.82a1.22 1.22 0 11-1.73 0 1.23 1.23 0 011.73 0z" fill="url(#cy)"/><path d="M13.62 100.37a1.22 1.22 0 11-1.7.27 1.22 1.22 0 011.7-.27z" fill="url(#cz)"/><path d="M10.94 104.41a1.22 1.22 0 11-1.63.55 1.21 1.21 0 011.63-.55z" fill="url(#da)"/><path d="M9 108.83a1.22 1.22 0 11-1.53.82 1.23 1.23 0 011.53-.82z" fill="url(#db)"/><path d="M7.75 113.53a1.21 1.21 0 011.05 1.37 1.23 1.23 0 01-1.37 1 1.22 1.22 0 11.32-2.42z" fill="url(#dc)"/><path d="M7.32 118.36a1.22 1.22 0 11-1.18 1.26 1.22 1.22 0 011.18-1.26z" fill="url(#dd)"/><path d="M7.69 123.19a1.22 1.22 0 11-1 1.44 1.21 1.21 0 011-1.44z" fill="url(#de)"/><path d="M8.84 127.9a1.22 1.22 0 11-.7 1.57 1.22 1.22 0 01.7-1.57z" fill="url(#df)"/><path d="M10.76 132.35a1.22 1.22 0 11-.43 1.67 1.22 1.22 0 01.43-1.67z" fill="url(#dg)"/><path d="M13.39 136.43a1.21 1.21 0 011.72.15 1.22 1.22 0 11-1.87 1.56 1.2 1.2 0 01.15-1.71z" fill="url(#dh)"/><path d="M16.65 140a1.22 1.22 0 11.13 1.72 1.22 1.22 0 01-.13-1.72z" fill="url(#di)"/><path d="M20.46 143a1.21 1.21 0 011.67-.42 1.22 1.22 0 11-1.26 2.09 1.21 1.21 0 01-.41-1.67z" fill="url(#dj)"/><path d="M24.71 145.35a1.22 1.22 0 012.26.9 1.22 1.22 0 11-2.26-.9z" fill="url(#dk)"/><path d="M29.28 147a1.22 1.22 0 11.94 1.46 1.24 1.24 0 01-.94-1.46z" fill="url(#dl)"/><path d="M34.06 147.78a1.22 1.22 0 012.44.12 1.23 1.23 0 01-1.28 1.16 1.22 1.22 0 01-1.16-1.28z" fill="url(#dm)"/><path d="M38.91 147.81a1.22 1.22 0 111.35 1.07 1.21 1.21 0 01-1.35-1.07z" fill="url(#dn)"/><circle cx="44.86" cy="146.71" r="1.22" fill="url(#do)"/><path d="M48.29 145.5a1.22 1.22 0 111.63.57 1.21 1.21 0 01-1.63-.57z" fill="url(#dp)"/><path d="M52.57 143.22a1.22 1.22 0 111.7.3 1.22 1.22 0 01-1.7-.3z" fill="url(#dq)"/><path d="M56.41 140.27a1.22 1.22 0 111.73 0 1.23 1.23 0 01-1.73 0z" fill="url(#dr)"/><path d="M59.72 136.72a1.22 1.22 0 111.7-.27 1.22 1.22 0 01-1.7.27z" fill="url(#ds)"/><path d="M62.4 132.68a1.22 1.22 0 111.63-.55 1.21 1.21 0 01-1.63.55z" fill="url(#dt)"/><path d="M64.37 128.26a1.22 1.22 0 111.53-.82 1.23 1.23 0 01-1.53.82z" fill="url(#du)"/><path d="M65.59 123.56a1.21 1.21 0 01-1-1.37 1.23 1.23 0 011.37-1 1.22 1.22 0 11-.32 2.42z" fill="url(#dv)"/><path d="M66 118.73a1.22 1.22 0 111.18-1.26 1.22 1.22 0 01-1.18 1.26z" fill="url(#dw)"/><path d="M65.65 113.9a1.22 1.22 0 111-1.44 1.21 1.21 0 01-1 1.44z" fill="url(#dx)"/><path d="M64.5 109.19a1.22 1.22 0 11.7-1.57 1.22 1.22 0 01-.7 1.57z" fill="url(#dy)"/><path d="M62.58 104.74a1.22 1.22 0 11.43-1.67 1.22 1.22 0 01-.43 1.67z" fill="url(#dz)"/><path d="M60 100.66a1.21 1.21 0 01-1.72-.15A1.22 1.22 0 1160.1 99a1.2 1.2 0 01-.1 1.66z" fill="url(#ea)"/><path d="M56.69 97.08a1.22 1.22 0 11-.13-1.72 1.22 1.22 0 01.13 1.72z" fill="url(#eb)"/><path d="M52.88 94.07a1.21 1.21 0 01-1.67.42 1.22 1.22 0 111.26-2.09 1.21 1.21 0 01.41 1.67z" fill="url(#ec)"/><path d="M48.63 91.74a1.22 1.22 0 11-2.26-.9 1.22 1.22 0 112.26.9z" fill="url(#ed)"/><path d="M44.06 90.14a1.22 1.22 0 11-.94-1.46 1.24 1.24 0 01.94 1.46z" fill="url(#ee)"/><path d="M39.28 89.31a1.22 1.22 0 01-2.44-.12A1.23 1.23 0 0138.12 88a1.22 1.22 0 011.16 1.31z" fill="url(#ef)"/><path d="M34.43 89.28a1.22 1.22 0 11-1.35-1.07 1.21 1.21 0 011.35 1.07z" fill="url(#eg)"/><path class="c" d="M62.76 111l-.49.15A26.67 26.67 0 1149.5 95.18a26.58 26.58 0 0112.77 15.92l.49-.15.48-.14a27.67 27.67 0 10-2.31 21.06 27.58 27.58 0 002.31-21.06z"/><path class="c" d="M66.89 109.75l-.48.14A31 31 0 1151.58 91.4a30.89 30.89 0 0114.83 18.49l.48-.14.49-.14a32 32 0 10-2.67 24.33 31.91 31.91 0 002.67-24.33z"/><path class="c" d="M71.38 108.44l-.48.15A35.65 35.65 0 012.44 128.5a35.65 35.65 0 0168.46-19.91l.48-.15.49-.14a36.68 36.68 0 10-3.07 27.89 36.57 36.57 0 003.07-27.89z"/><path d="M96.8 154.7H80.31V82.44h28.34a25.49 25.49 0 017.54 1.06 24.78 24.78 0 016.25 2.85 22.9 22.9 0 015 4.23 26.28 26.28 0 015.75 11 25 25 0 01.73 5.9 26.31 26.31 0 01-.63 5.72 24.55 24.55 0 01-2 5.58 24.87 24.87 0 01-3.53 5.22 28.84 28.84 0 01-5.24 4.66l19.26 26h-14.12a12.88 12.88 0 01-1.53-.15 9.9 9.9 0 01-2.45-.71 12.91 12.91 0 01-2.87-1.66 12.67 12.67 0 01-2.88-3.08l-12.1-16.39h-9zm12.71-38.58a6.13 6.13 0 002.92-.75 9.15 9.15 0 002.5-2 10 10 0 001.74-2.75 7.61 7.61 0 000-6.2 10 10 0 00-1.74-2.75 9.15 9.15 0 00-2.5-2 6.13 6.13 0 00-2.92-.75H96.8v17.14z" fill="url(#ek)"/></svg>