<svg viewBox="0 0 141.73 155.22" xmlns="http://www.w3.org/2000/svg" xmlns:xlink="http://www.w3.org/1999/xlink"><linearGradient id="a" gradientUnits="userSpaceOnUse" x1="40.16" x2="40.16" y1="72.32" y2=".05"><stop offset="0" stop-color="#7b170f"/><stop offset="1" stop-color="#e20714"/></linearGradient><linearGradient id="b" x1="108.9" x2="108.9" xlink:href="#a" y1="72.32" y2="0"/><linearGradient id="c" x1="-44.74" x2="66.93" xlink:href="#a" y1="214.29" y2="82.96"/><linearGradient id="d" x1="-54.96" x2="56.7" xlink:href="#a" y1="205.6" y2="74.26"/><linearGradient id="e" x1="-57.89" x2="53.77" xlink:href="#a" y1="203.1" y2="71.77"/><linearGradient id="f" x1="-60" x2="51.67" xlink:href="#a" y1="201.31" y2="69.98"/><linearGradient id="g" x1="-61.13" x2="50.53" xlink:href="#a" y1="200.35" y2="69.02"/><linearGradient id="h" x1="-60.82" x2="50.85" xlink:href="#a" y1="200.62" y2="69.28"/><linearGradient id="i" x1="-59.3" x2="52.37" xlink:href="#a" y1="201.91" y2="70.57"/><linearGradient id="j" x1="-56.86" x2="54.81" xlink:href="#a" y1="203.99" y2="72.65"/><linearGradient id="k" x1="-53.66" x2="58" xlink:href="#a" y1="206.7" y2="75.37"/><linearGradient id="l" x1="-49.95" x2="61.72" xlink:href="#a" y1="209.86" y2="78.53"/><linearGradient id="m" x1="-45.97" x2="65.69" xlink:href="#a" y1="213.24" y2="81.91"/><linearGradient id="n" x1="-41.97" x2="69.7" xlink:href="#a" y1="216.65" y2="85.31"/><linearGradient id="o" x1="-38.06" x2="73.61" xlink:href="#a" y1="219.97" y2="88.64"/><linearGradient id="p" x1="-34.51" x2="77.15" xlink:href="#a" y1="222.98" y2="91.65"/><linearGradient id="q" x1="-31.58" x2="80.08" xlink:href="#a" y1="225.48" y2="94.14"/><linearGradient id="r" x1="-29.48" x2="82.19" xlink:href="#a" y1="227.27" y2="95.93"/><linearGradient id="s" x1="-28.34" x2="83.32" xlink:href="#a" y1="228.23" y2="96.9"/><linearGradient id="t" x1="-28.66" x2="83.01" xlink:href="#a" y1="227.96" y2="96.63"/><linearGradient id="u" x1="-30.17" x2="81.49" xlink:href="#a" y1="226.67" y2="95.34"/><linearGradient id="v" x1="-32.62" x2="79.05" xlink:href="#a" y1="224.6" y2="93.26"/><linearGradient id="w" x1="-35.81" x2="75.86" xlink:href="#a" y1="221.88" y2="90.55"/><linearGradient id="x" x1="-39.53" x2="72.14" xlink:href="#a" y1="218.72" y2="87.39"/><linearGradient id="y" x1="-43.5" x2="68.16" xlink:href="#a" y1="215.34" y2="84.01"/><linearGradient id="z" x1="-47.51" x2="64.16" xlink:href="#a" y1="211.93" y2="80.6"/><linearGradient id="A" x1="-51.42" x2="60.25" xlink:href="#a" y1="208.61" y2="77.28"/><linearGradient id="B" x1="-53.54" x2="58.12" xlink:href="#a" y1="206.8" y2="75.47"/><linearGradient id="C" x1="-55.5" x2="56.16" xlink:href="#a" y1="205.14" y2="73.8"/><linearGradient id="D" x1="-56.99" x2="54.67" xlink:href="#a" y1="203.87" y2="72.54"/><linearGradient id="E" x1="-57.95" x2="53.72" xlink:href="#a" y1="203.06" y2="71.73"/><linearGradient id="F" x1="-58.33" x2="53.34" xlink:href="#a" y1="202.74" y2="71.4"/><linearGradient id="G" x1="-58.11" x2="53.56" xlink:href="#a" y1="202.92" y2="71.59"/><linearGradient id="H" x1="-57.31" x2="54.36" xlink:href="#a" y1="203.6" y2="72.27"/><linearGradient id="I" x1="-55.96" x2="55.71" xlink:href="#a" y1="204.75" y2="73.42"/><linearGradient id="J" x1="-54.12" x2="57.55" xlink:href="#a" y1="206.32" y2="74.98"/><linearGradient id="K" x1="-51.87" x2="59.8" xlink:href="#a" y1="208.23" y2="76.9"/><linearGradient id="L" x1="-49.3" x2="62.36" xlink:href="#a" y1="210.41" y2="79.08"/><linearGradient id="M" x1="-46.54" x2="65.12" xlink:href="#a" y1="212.76" y2="81.42"/><linearGradient id="N" x1="-43.7" x2="67.97" xlink:href="#a" y1="215.17" y2="83.84"/><linearGradient id="O" x1="-40.91" x2="70.76" xlink:href="#a" y1="217.55" y2="86.22"/><linearGradient id="P" x1="-38.28" x2="73.39" xlink:href="#a" y1="219.78" y2="88.45"/><linearGradient id="Q" x1="-35.93" x2="75.73" xlink:href="#a" y1="221.78" y2="90.44"/><linearGradient id="R" x1="-33.97" x2="77.69" xlink:href="#a" y1="223.44" y2="92.11"/><linearGradient id="S" x1="-32.48" x2="79.18" xlink:href="#a" y1="224.71" y2="93.38"/><linearGradient id="T" x1="-31.53" x2="80.14" xlink:href="#a" y1="225.52" y2="94.19"/><linearGradient id="U" x1="-31.15" x2="80.52" xlink:href="#a" y1="225.84" y2="94.51"/><linearGradient id="V" x1="-31.37" x2="80.3" xlink:href="#a" y1="225.66" y2="94.33"/><linearGradient id="W" x1="-32.17" x2="79.5" xlink:href="#a" y1="224.98" y2="93.64"/><linearGradient id="X" x1="-33.52" x2="78.15" xlink:href="#a" y1="223.83" y2="92.5"/><linearGradient id="Y" x1="-35.36" x2="76.31" xlink:href="#a" y1="222.26" y2="90.93"/><linearGradient id="Z" x1="-37.61" x2="74.06" xlink:href="#a" y1="220.35" y2="89.02"/><linearGradient id="aa" x1="-40.17" x2="71.49" xlink:href="#a" y1="218.17" y2="86.84"/><linearGradient id="ab" x1="-42.93" x2="68.73" xlink:href="#a" y1="215.82" y2="84.49"/><linearGradient id="ac" x1="-45.77" x2="65.89" xlink:href="#a" y1="213.41" y2="82.08"/><linearGradient id="ad" x1="-48.57" x2="63.1" xlink:href="#a" y1="211.03" y2="79.7"/><linearGradient id="ae" x1="-51.2" x2="60.47" xlink:href="#a" y1="208.8" y2="77.47"/><linearGradient id="af" x1="-65.41" x2="46.26" xlink:href="#a" y1="196.72" y2="65.38"/><linearGradient id="ag" x1="-67.4" x2="44.27" xlink:href="#a" y1="195.02" y2="63.69"/><linearGradient id="ah" x1="-68.86" x2="42.81" xlink:href="#a" y1="193.78" y2="62.45"/><linearGradient id="ai" x1="-69.74" x2="41.92" xlink:href="#a" y1="193.03" y2="61.7"/><linearGradient id="aj" x1="-69.94" x2="41.73" xlink:href="#a" y1="192.86" y2="61.53"/><linearGradient id="ak" x1="-69.3" x2="42.36" xlink:href="#a" y1="193.4" y2="62.07"/><linearGradient id="al" x1="-68.08" x2="43.58" xlink:href="#a" y1="194.44" y2="63.11"/><linearGradient id="am" x1="-66.31" x2="45.35" xlink:href="#a" y1="195.95" y2="64.61"/><linearGradient id="an" x1="-64.03" x2="47.63" xlink:href="#a" y1="197.88" y2="66.55"/><linearGradient id="ao" x1="-61.31" x2="50.36" xlink:href="#a" y1="200.2" y2="68.87"/><linearGradient id="ap" x1="-58.2" x2="53.46" xlink:href="#a" y1="202.84" y2="71.51"/><linearGradient id="aq" x1="-54.79" x2="56.87" xlink:href="#a" y1="205.74" y2="74.41"/><linearGradient id="ar" x1="-51.17" x2="60.49" xlink:href="#a" y1="208.82" y2="77.49"/><linearGradient id="as" x1="-47.43" x2="64.24" xlink:href="#a" y1="212" y2="80.67"/><linearGradient id="at" x1="-43.65" x2="68.02" xlink:href="#a" y1="215.22" y2="83.88"/><linearGradient id="au" x1="-39.88" x2="71.79" xlink:href="#a" y1="218.42" y2="87.09"/><linearGradient id="av" x1="-36.19" x2="75.47" xlink:href="#a" y1="221.56" y2="90.22"/><linearGradient id="aw" x1="-32.68" x2="78.98" xlink:href="#a" y1="224.54" y2="93.21"/><linearGradient id="ax" x1="-29.44" x2="82.23" xlink:href="#a" y1="227.3" y2="95.96"/><linearGradient id="ay" x1="-26.54" x2="85.12" xlink:href="#a" y1="229.76" y2="98.43"/><linearGradient id="az" x1="-24.07" x2="87.6" xlink:href="#a" y1="231.87" y2="100.53"/><linearGradient id="aA" x1="-22.08" x2="89.59" xlink:href="#a" y1="233.56" y2="102.23"/><linearGradient id="aB" x1="-20.62" x2="91.05" xlink:href="#a" y1="234.8" y2="103.46"/><linearGradient id="aC" x1="-19.73" x2="91.93" xlink:href="#a" y1="235.55" y2="104.22"/><linearGradient id="aD" x1="-19.54" x2="92.13" xlink:href="#a" y1="235.72" y2="104.39"/><linearGradient id="aE" x1="-20.17" x2="91.49" xlink:href="#a" y1="235.18" y2="103.84"/><linearGradient id="aF" x1="-21.39" x2="90.27" xlink:href="#a" y1="234.14" y2="102.81"/><linearGradient id="aG" x1="-23.16" x2="88.5" xlink:href="#a" y1="232.63" y2="101.3"/><linearGradient id="aH" x1="-25.44" x2="86.23" xlink:href="#a" y1="230.7" y2="99.36"/><linearGradient id="aI" x1="-28.17" x2="83.5" xlink:href="#a" y1="228.38" y2="97.05"/><linearGradient id="aJ" x1="-31.27" x2="80.39" xlink:href="#a" y1="225.74" y2="94.4"/><linearGradient id="aK" x1="-34.68" x2="76.99" xlink:href="#a" y1="222.84" y2="91.51"/><linearGradient id="aL" x1="-38.3" x2="73.36" xlink:href="#a" y1="219.76" y2="88.43"/><linearGradient id="aM" x1="-42.05" x2="69.62" xlink:href="#a" y1="216.58" y2="85.24"/><linearGradient id="aN" x1="-45.83" x2="65.84" xlink:href="#a" y1="213.36" y2="82.03"/><linearGradient id="aO" x1="-49.6" x2="62.07" xlink:href="#a" y1="210.16" y2="78.82"/><linearGradient id="aP" x1="-53.28" x2="58.38" xlink:href="#a" y1="207.02" y2="75.69"/><linearGradient id="aQ" x1="-56.79" x2="54.87" xlink:href="#a" y1="204.04" y2="72.71"/><linearGradient id="aR" x1="-60.04" x2="51.63" xlink:href="#a" y1="201.28" y2="69.95"/><linearGradient id="aS" x1="-62.93" x2="48.73" xlink:href="#a" y1="198.82" y2="67.49"/><linearGradient id="aT" x1="-63.39" x2="48.28" xlink:href="#a" y1="198.43" y2="67.1"/><linearGradient id="aU" x1="-65.16" x2="46.5" xlink:href="#a" y1="196.92" y2="65.59"/><linearGradient id="aV" x1="-66.38" x2="45.29" xlink:href="#a" y1="195.89" y2="64.56"/><linearGradient id="aW" x1="-67" x2="44.67" xlink:href="#a" y1="195.36" y2="64.03"/><linearGradient id="aX" x1="-67.01" x2="44.65" xlink:href="#a" y1="195.35" y2="64.02"/><linearGradient id="aY" x1="-66.42" x2="45.24" xlink:href="#a" y1="195.85" y2="64.52"/><linearGradient id="aZ" x1="-65.24" x2="46.43" xlink:href="#a" y1="196.86" y2="65.53"/><linearGradient id="a0" x1="-63.5" x2="48.17" xlink:href="#a" y1="198.34" y2="67.01"/><linearGradient id="a1" x1="-61.24" x2="50.42" xlink:href="#a" y1="200.26" y2="68.92"/><linearGradient id="a2" x1="-58.54" x2="53.13" xlink:href="#a" y1="202.56" y2="71.22"/><linearGradient id="a3" x1="-55.46" x2="56.21" xlink:href="#a" y1="205.18" y2="73.84"/><linearGradient id="a4" x1="-52.08" x2="59.58" xlink:href="#a" y1="208.04" y2="76.71"/><linearGradient id="a5" x1="-48.51" x2="63.16" xlink:href="#a" y1="211.08" y2="79.75"/><linearGradient id="a6" x1="-44.83" x2="66.83" xlink:href="#a" y1="214.21" y2="82.88"/><linearGradient id="a7" x1="-41.15" x2="70.51" xlink:href="#a" y1="217.34" y2="86"/><linearGradient id="a8" x1="-37.57" x2="74.09" xlink:href="#a" y1="220.38" y2="89.05"/><linearGradient id="a9" x1="-34.19" x2="77.48" xlink:href="#a" y1="223.26" y2="91.93"/><linearGradient id="ba" x1="-31.09" x2="80.58" xlink:href="#a" y1="225.9" y2="94.56"/><linearGradient id="bb" x1="-28.36" x2="83.3" xlink:href="#a" y1="228.21" y2="96.88"/><linearGradient id="bc" x1="-26.08" x2="85.58" xlink:href="#a" y1="230.15" y2="98.82"/><linearGradient id="bd" x1="-24.31" x2="87.35" xlink:href="#a" y1="231.66" y2="100.32"/><linearGradient id="be" x1="-23.1" x2="88.57" xlink:href="#a" y1="232.69" y2="101.35"/><linearGradient id="bf" x1="-22.48" x2="89.19" xlink:href="#a" y1="233.22" y2="101.88"/><linearGradient id="bg" x1="-22.46" x2="89.2" xlink:href="#a" y1="233.23" y2="101.9"/><linearGradient id="bh" x1="-23.05" x2="88.61" xlink:href="#a" y1="232.73" y2="101.39"/><linearGradient id="bi" x1="-24.24" x2="87.43" xlink:href="#a" y1="231.72" y2="100.39"/><linearGradient id="bj" x1="-25.98" x2="85.69" xlink:href="#a" y1="230.24" y2="98.91"/><linearGradient id="bk" x1="-28.23" x2="83.43" xlink:href="#a" y1="228.32" y2="96.99"/><linearGradient id="bl" x1="-30.94" x2="80.73" xlink:href="#a" y1="226.02" y2="94.69"/><linearGradient id="bm" x1="-34.02" x2="77.65" xlink:href="#a" y1="223.4" y2="92.07"/><linearGradient id="bn" x1="-37.39" x2="74.27" xlink:href="#a" y1="220.54" y2="89.2"/><linearGradient id="bo" x1="-40.97" x2="70.7" xlink:href="#a" y1="217.5" y2="86.16"/><linearGradient id="bp" x1="-44.64" x2="67.02" xlink:href="#a" y1="214.37" y2="83.04"/><linearGradient id="bq" x1="-48.32" x2="63.35" xlink:href="#a" y1="211.24" y2="79.91"/><linearGradient id="br" x1="-51.9" x2="59.76" xlink:href="#a" y1="208.2" y2="76.87"/><linearGradient id="bs" x1="-55.29" x2="56.38" xlink:href="#a" y1="205.32" y2="73.99"/><linearGradient id="bt" x1="-58.39" x2="53.28" xlink:href="#a" y1="202.69" y2="71.35"/><linearGradient id="bu" x1="-61.11" x2="50.55" xlink:href="#a" y1="200.37" y2="69.03"/><linearGradient id="bv" x1="111.02" x2="111.02" xlink:href="#a" y1="154.7" y2="82.44"/><path d="m7 72.32v-72.27h29.9a36.08 36.08 0 0 1 9.66 1.29 35.66 35.66 0 0 1 8.68 3.66 37.51 37.51 0 0 1 7.38 5.68 35.68 35.68 0 0 1 5.73 7.32 36.53 36.53 0 0 1 3.65 8.6 35.87 35.87 0 0 1 0 19.21 36.61 36.61 0 0 1 -3.68 8.63 35.68 35.68 0 0 1 -5.73 7.31 36.37 36.37 0 0 1 -16.05 9.25 36.08 36.08 0 0 1 -9.66 1.29zm29.9-16.55a19.21 19.21 0 0 0 7.59-1.53 20.88 20.88 0 0 0 6.35-4.19 19.8 19.8 0 0 0 4.37-6.23 18.81 18.81 0 0 0 0-15.23 20.24 20.24 0 0 0 -4.37-6.25 20.76 20.76 0 0 0 -6.35-4.21 19 19 0 0 0 -7.59-1.54h-13.43v39.18z" fill="url(#a)"/><path d="m102.35 58.75a6.57 6.57 0 0 1 1.11-.91 9 9 0 0 1 1.28-.65 4.4 4.4 0 0 1 1.74-.31h30.41v15.44h-56.58v-7.52a12.11 12.11 0 0 1 3-8.22l30.86-41.1h-32.09v-15.48h55.42v7.51a13.17 13.17 0 0 1 -.63 4 12 12 0 0 1 -1.79 3.56z" fill="url(#b)"/><path d="m52.38 118.55h-.52a15.19 15.19 0 1 1 -4.45-10.74 15.12 15.12 0 0 1 4.45 10.74h1a16.23 16.23 0 1 0 -4.72 11.45 16.19 16.19 0 0 0 4.76-11.47z" fill="url(#c)"/><path d="m34.86 98.52a2.65 2.65 0 0 1 .57-1.67 1.83 1.83 0 0 1 .57-.48 1.41 1.41 0 0 1 1.34 0 1.92 1.92 0 0 1 .8.82 2.71 2.71 0 0 1 .34 1.33h1a3.69 3.69 0 0 0 -.8-2.33 2.86 2.86 0 0 0 -.91-.75 2.46 2.46 0 0 0 -2.28 0 3 3 0 0 0 -1.24 1.24 3.78 3.78 0 0 0 -.47 1.84z" fill="url(#d)"/><path d="m29.74 99.67a3.21 3.21 0 0 1 -.1-.74 2.39 2.39 0 0 1 .36-1.29 1.62 1.62 0 0 1 .39-.43 1.36 1.36 0 0 1 .5-.24 1.12 1.12 0 0 1 .36 0 1.61 1.61 0 0 1 .6.12 2.11 2.11 0 0 1 .83.62 2.7 2.7 0 0 1 .55 1.08l1-.27a3.77 3.77 0 0 0 -1.13-1.85 2.89 2.89 0 0 0 -.86-.54 2.62 2.62 0 0 0 -1-.2 2.27 2.27 0 0 0 -.63.08 2.38 2.38 0 0 0 -.86.42 3 3 0 0 0 -.86 1.11 3.57 3.57 0 0 0 -.3 1.44 4 4 0 0 0 .14 1l1-.27z" fill="url(#e)"/><path d="m25.1 102.11a2.78 2.78 0 0 1 -.39-1.37 2.16 2.16 0 0 1 .21-.93 1.48 1.48 0 0 1 .58-.61 1.43 1.43 0 0 1 .74-.19 2 2 0 0 1 1.07.33 2.72 2.72 0 0 1 .91 1l.91-.52a4 4 0 0 0 -1.27-1.33 3.19 3.19 0 0 0 -1.62-.49 2.51 2.51 0 0 0 -2.24 1.34 3.07 3.07 0 0 0 -.33 1.4 3.88 3.88 0 0 0 .52 1.89z" fill="url(#f)"/><path d="m21.24 105.67a2.6 2.6 0 0 1 -.8-1.79 1.81 1.81 0 0 1 .11-.63 1.38 1.38 0 0 1 .32-.5 1.61 1.61 0 0 1 .5-.33 1.85 1.85 0 0 1 .63-.11 2.63 2.63 0 0 1 1.79.8l.74-.73a3.63 3.63 0 0 0 -2.53-1.11 2.85 2.85 0 0 0 -1 .18 2.41 2.41 0 0 0 -.86.56 2.45 2.45 0 0 0 -.56.87 2.57 2.57 0 0 0 -.18 1 3.59 3.59 0 0 0 1.1 2.52z" fill="url(#g)"/><path d="m18.43 110.1a2.78 2.78 0 0 1 -1-.92 2 2 0 0 1 -.33-1.07 1.48 1.48 0 0 1 .19-.74 1.56 1.56 0 0 1 .62-.57 2 2 0 0 1 .93-.21 2.76 2.76 0 0 1 1.37.38l.52-.9a3.8 3.8 0 0 0 -1.89-.52 3.2 3.2 0 0 0 -1.41.32 2.48 2.48 0 0 0 -1.37 2.24 3.11 3.11 0 0 0 .49 1.63 3.84 3.84 0 0 0 1.36 1.26z" fill="url(#h)"/><path d="m16.86 115.11a2.74 2.74 0 0 1 -1.34-.81 2.18 2.18 0 0 1 -.36-.57 1.61 1.61 0 0 1 -.12-.6 1.57 1.57 0 0 1 .05-.37 1.49 1.49 0 0 1 .24-.49 1.79 1.79 0 0 1 .71-.54 2.34 2.34 0 0 1 1-.21 2.82 2.82 0 0 1 .75.1l.27-1a4 4 0 0 0 -1-.13 3.45 3.45 0 0 0 -1.86.52 2.76 2.76 0 0 0 -.68.64 2.42 2.42 0 0 0 -.42.85 2.35 2.35 0 0 0 -.09.64 2.57 2.57 0 0 0 .2 1 3.25 3.25 0 0 0 .92 1.24 3.84 3.84 0 0 0 1.48.75l.26-1z" fill="url(#i)"/><path d="m16.65 120.35a2.65 2.65 0 0 1 -1.68-.56 1.86 1.86 0 0 1 -.48-.58 1.46 1.46 0 0 1 0-1.33 2.06 2.06 0 0 1 .82-.81 2.77 2.77 0 0 1 1.34-.33v-1a3.66 3.66 0 0 0 -2.34.8 2.79 2.79 0 0 0 -.74.9 2.48 2.48 0 0 0 0 2.29 3.08 3.08 0 0 0 1.24 1.24 3.83 3.83 0 0 0 1.84.46v-1z" fill="url(#j)"/><path d="m17.8 125.47a2.82 2.82 0 0 1 -.75.1 2.33 2.33 0 0 1 -1.29-.36 1.79 1.79 0 0 1 -.43-.39 1.49 1.49 0 0 1 -.24-.49 1.57 1.57 0 0 1 -.09-.33 1.61 1.61 0 0 1 .12-.6 2.41 2.41 0 0 1 .63-.83 2.79 2.79 0 0 1 1.07-.55l-.26-1a3.74 3.74 0 0 0 -1.86 1.12 3.16 3.16 0 0 0 -.54.87 2.57 2.57 0 0 0 -.2 1 2.35 2.35 0 0 0 .09.64 2.42 2.42 0 0 0 .42.85 2.73 2.73 0 0 0 1.1.86 3.47 3.47 0 0 0 1.44.3 4 4 0 0 0 1-.13l-.27-1z" fill="url(#k)"/><path d="m20.24 130.12a2.76 2.76 0 0 1 -1.37.38 2 2 0 0 1 -.93-.21 1.56 1.56 0 0 1 -.62-.57 1.48 1.48 0 0 1 -.19-.74 2 2 0 0 1 .33-1.07 2.78 2.78 0 0 1 1-.92l-.52-.9a3.84 3.84 0 0 0 -1.33 1.26 3.11 3.11 0 0 0 -.49 1.63 2.48 2.48 0 0 0 1.37 2.24 3.2 3.2 0 0 0 1.41.32 3.8 3.8 0 0 0 1.89-.52l-.52-.9z" fill="url(#l)"/><path d="m23.79 134a2.63 2.63 0 0 1 -1.79.8 1.85 1.85 0 0 1 -.63-.11 1.61 1.61 0 0 1 -.5-.33 1.38 1.38 0 0 1 -.32-.5 1.81 1.81 0 0 1 -.11-.63 2.6 2.6 0 0 1 .8-1.79l-.74-.73a3.61 3.61 0 0 0 -1.1 2.52 2.57 2.57 0 0 0 .18 1 2.45 2.45 0 0 0 .56.87 2.41 2.41 0 0 0 .86.56 2.85 2.85 0 0 0 1 .18 3.63 3.63 0 0 0 2.53-1.11z" fill="url(#m)"/><path d="m28.22 136.79a2.72 2.72 0 0 1 -.91 1 2 2 0 0 1 -1.07.33 1.43 1.43 0 0 1 -.74-.19 1.48 1.48 0 0 1 -.58-.61 2.16 2.16 0 0 1 -.21-.93 2.78 2.78 0 0 1 .39-1.39l-.91-.52a3.88 3.88 0 0 0 -.52 1.89 3.07 3.07 0 0 0 .33 1.4 2.51 2.51 0 0 0 2.24 1.38 3.1 3.1 0 0 0 1.62-.49 4 4 0 0 0 1.27-1.33l-.91-.52z" fill="url(#n)"/><path d="m33.23 138.35a2.73 2.73 0 0 1 -.8 1.34 2.13 2.13 0 0 1 -.58.36 1.61 1.61 0 0 1 -.6.12 1.12 1.12 0 0 1 -.36 0 1.36 1.36 0 0 1 -.5-.24 1.83 1.83 0 0 1 -.54-.7 2.54 2.54 0 0 1 -.21-1 3.21 3.21 0 0 1 .1-.74l-1-.27a4 4 0 0 0 -.14 1 3.35 3.35 0 0 0 .53 1.86 2.76 2.76 0 0 0 .63.69 2.38 2.38 0 0 0 .86.42 2.27 2.27 0 0 0 .63.08 2.62 2.62 0 0 0 1-.2 3.14 3.14 0 0 0 1.23-.92 3.81 3.81 0 0 0 .76-1.47l-1-.27z" fill="url(#o)"/><path d="m38.48 138.57a2.65 2.65 0 0 1 -.57 1.67 1.83 1.83 0 0 1 -.57.48 1.41 1.41 0 0 1 -1.34 0 1.92 1.92 0 0 1 -.8-.82 2.71 2.71 0 0 1 -.34-1.33h-1a3.67 3.67 0 0 0 .8 2.33 2.86 2.86 0 0 0 .91.75 2.46 2.46 0 0 0 2.28 0 3 3 0 0 0 1.24-1.24 3.78 3.78 0 0 0 .47-1.84z" fill="url(#p)"/><path d="m43.6 137.42a3.21 3.21 0 0 1 .1.74 2.39 2.39 0 0 1 -.36 1.29 1.62 1.62 0 0 1 -.39.43 1.36 1.36 0 0 1 -.5.24 1.12 1.12 0 0 1 -.36 0 1.61 1.61 0 0 1 -.6-.12 2.11 2.11 0 0 1 -.83-.62 2.7 2.7 0 0 1 -.55-1.08l-1 .27a3.77 3.77 0 0 0 1.13 1.85 2.89 2.89 0 0 0 .86.54 2.62 2.62 0 0 0 1 .2 2.27 2.27 0 0 0 .63-.08 2.38 2.38 0 0 0 .86-.42 3 3 0 0 0 .86-1.11 3.57 3.57 0 0 0 .3-1.44 4 4 0 0 0 -.14-1l-1 .27z" fill="url(#q)"/><path d="m48.24 135a2.78 2.78 0 0 1 .39 1.37 2.16 2.16 0 0 1 -.21.93 1.48 1.48 0 0 1 -.58.61 1.43 1.43 0 0 1 -.74.19 2 2 0 0 1 -1.07-.33 2.72 2.72 0 0 1 -.91-1l-.91.52a4 4 0 0 0 1.27 1.33 3.1 3.1 0 0 0 1.62.49 2.46 2.46 0 0 0 1.26-.34 2.52 2.52 0 0 0 1-1 3.07 3.07 0 0 0 .33-1.4 3.88 3.88 0 0 0 -.52-1.89l-.91.52z" fill="url(#r)"/><path d="m52.1 131.42a2.6 2.6 0 0 1 .8 1.79 1.81 1.81 0 0 1 -.11.63 1.38 1.38 0 0 1 -.32.5 1.61 1.61 0 0 1 -.5.33 1.85 1.85 0 0 1 -.63.11 2.63 2.63 0 0 1 -1.79-.8l-.74.73a3.63 3.63 0 0 0 2.53 1.11 2.85 2.85 0 0 0 1-.18 2.41 2.41 0 0 0 .86-.56 2.45 2.45 0 0 0 .56-.87 2.57 2.57 0 0 0 .18-1 3.61 3.61 0 0 0 -1.1-2.52z" fill="url(#s)"/><path d="m54.91 127a2.78 2.78 0 0 1 1 .92 2 2 0 0 1 .33 1.07 1.48 1.48 0 0 1 -.19.74 1.56 1.56 0 0 1 -.62.57 2 2 0 0 1 -.93.21 2.76 2.76 0 0 1 -1.37-.38l-.52.9a3.8 3.8 0 0 0 1.89.52 3.2 3.2 0 0 0 1.41-.32 2.48 2.48 0 0 0 1.34-2.23 3.11 3.11 0 0 0 -.49-1.63 3.84 3.84 0 0 0 -1.33-1.26l-.52.9z" fill="url(#t)"/><path d="m56.48 122a2.74 2.74 0 0 1 1.34.81 2.48 2.48 0 0 1 .36.57 1.61 1.61 0 0 1 .12.6 1.57 1.57 0 0 1 0 .37 1.49 1.49 0 0 1 -.24.49 1.7 1.7 0 0 1 -.71.54 2.34 2.34 0 0 1 -1 .21 2.82 2.82 0 0 1 -.75-.1l-.27 1a4 4 0 0 0 1 .13 3.45 3.45 0 0 0 1.86-.52 2.76 2.76 0 0 0 .68-.64 2.42 2.42 0 0 0 .42-.85 2.35 2.35 0 0 0 .09-.64 2.57 2.57 0 0 0 -.2-1 3.14 3.14 0 0 0 -.92-1.23 3.72 3.72 0 0 0 -1.48-.76l-.26 1z" fill="url(#u)"/><path d="m56.69 116.74a2.65 2.65 0 0 1 1.68.56 1.86 1.86 0 0 1 .48.58 1.46 1.46 0 0 1 0 1.33 2.06 2.06 0 0 1 -.85.79 2.77 2.77 0 0 1 -1.34.33v1a3.66 3.66 0 0 0 2.34-.8 2.79 2.79 0 0 0 .74-.9 2.48 2.48 0 0 0 0-2.29 3.08 3.08 0 0 0 -1.24-1.24 3.83 3.83 0 0 0 -1.84-.46v1z" fill="url(#v)"/><path d="m55.54 111.62a2.82 2.82 0 0 1 .75-.1 2.33 2.33 0 0 1 1.29.36 1.79 1.79 0 0 1 .43.39 1.49 1.49 0 0 1 .24.49 1.57 1.57 0 0 1 0 .37 1.61 1.61 0 0 1 -.12.6 2.41 2.41 0 0 1 -.63.83 2.79 2.79 0 0 1 -1.07.55l.26 1a3.74 3.74 0 0 0 1.91-1.11 3.16 3.16 0 0 0 .54-.87 2.57 2.57 0 0 0 .2-1 2.35 2.35 0 0 0 -.09-.64 2.42 2.42 0 0 0 -.42-.85 2.73 2.73 0 0 0 -1.1-.86 3.47 3.47 0 0 0 -1.44-.3 4 4 0 0 0 -1 .13l.27 1z" fill="url(#w)"/><path d="m53.1 107a2.76 2.76 0 0 1 1.37-.38 2 2 0 0 1 .93.21 1.56 1.56 0 0 1 .62.57 1.48 1.48 0 0 1 .19.74 2 2 0 0 1 -.33 1.07 2.78 2.78 0 0 1 -1 .92l.52.9a3.84 3.84 0 0 0 1.33-1.26 3.11 3.11 0 0 0 .49-1.63 2.48 2.48 0 0 0 -1.37-2.24 3.2 3.2 0 0 0 -1.41-.32 3.8 3.8 0 0 0 -1.89.52l.52.9z" fill="url(#x)"/><path d="m49.55 103.11a2.63 2.63 0 0 1 1.79-.8 1.75 1.75 0 0 1 .62.11 1.54 1.54 0 0 1 .51.33 1.38 1.38 0 0 1 .32.5 1.81 1.81 0 0 1 .11.63 2.6 2.6 0 0 1 -.8 1.79l.74.73a3.59 3.59 0 0 0 1.1-2.52 2.57 2.57 0 0 0 -.18-1 2.45 2.45 0 0 0 -.56-.87 2.41 2.41 0 0 0 -.86-.56 2.85 2.85 0 0 0 -1-.18 3.63 3.63 0 0 0 -2.53 1.11z" fill="url(#y)"/><path d="m45.12 100.3a2.72 2.72 0 0 1 .91-1 2 2 0 0 1 1.07-.3 1.46 1.46 0 0 1 .74.19 1.48 1.48 0 0 1 .58.61 2.16 2.16 0 0 1 .21.93 2.78 2.78 0 0 1 -.39 1.37l.91.52a3.88 3.88 0 0 0 .52-1.89 3.07 3.07 0 0 0 -.33-1.4 2.51 2.51 0 0 0 -2.24-1.33 3.19 3.19 0 0 0 -1.62.49 4 4 0 0 0 -1.27 1.33l.91.52z" fill="url(#z)"/><path d="m40.11 98.74a2.73 2.73 0 0 1 .8-1.34 2 2 0 0 1 .58-.36 1.61 1.61 0 0 1 .6-.12 1.12 1.12 0 0 1 .36 0 1.36 1.36 0 0 1 .5.24 1.83 1.83 0 0 1 .54.7 2.54 2.54 0 0 1 .21 1 3.21 3.21 0 0 1 -.1.74l1 .27a4 4 0 0 0 .14-1 3.35 3.35 0 0 0 -.53-1.86 2.76 2.76 0 0 0 -.63-.69 2.38 2.38 0 0 0 -.86-.42 2.27 2.27 0 0 0 -.63-.08 2.62 2.62 0 0 0 -1 .2 3.14 3.14 0 0 0 -1.23.92 3.81 3.81 0 0 0 -.76 1.47l1 .27z" fill="url(#A)"/><path d="m56.67 118.55h-.52a19.48 19.48 0 1 1 -5.71-13.78 19.4 19.4 0 0 1 5.71 13.78h1a20.52 20.52 0 1 0 -6 14.5 20.46 20.46 0 0 0 6-14.5z" fill="url(#c)"/><circle cx="36.67" cy="100.7" fill="url(#B)" r="1.25"/><path d="m34.19 100.83a1.26 1.26 0 0 1 -1 1.49 1.25 1.25 0 1 1 1-1.49z" fill="url(#C)"/><path d="m30.56 101.74a1.25 1.25 0 1 1 -1.66-.64 1.25 1.25 0 0 1 1.66.64z" fill="url(#D)"/><path d="m27.2 103.37a1.26 1.26 0 1 1 -1.75-.27 1.26 1.26 0 0 1 1.75.27z" fill="url(#E)"/><path d="m24.25 105.68a1.25 1.25 0 0 1 -1.68 1.86 1.25 1.25 0 0 1 1.68-1.86z" fill="url(#F)"/><path d="m21.84 108.54a1.25 1.25 0 1 1 -1.71.46 1.25 1.25 0 0 1 1.71-.46z" fill="url(#G)"/><path d="m20.09 111.84a1.25 1.25 0 0 1 -.78 2.38 1.25 1.25 0 1 1 .78-2.38z" fill="url(#H)"/><path d="m19.06 115.43a1.26 1.26 0 1 1 -1.38 1.12 1.26 1.26 0 0 1 1.38-1.12z" fill="url(#I)"/><path d="m18.79 119.16a1.26 1.26 0 1 1 -1.11 1.38 1.26 1.26 0 0 1 1.11-1.38z" fill="url(#J)"/><path d="m19.31 122.87a1.25 1.25 0 0 1 .78 2.38 1.25 1.25 0 0 1 -.78-2.38z" fill="url(#K)"/><path d="m20.59 126.38a1.25 1.25 0 1 1 -.46 1.71 1.25 1.25 0 0 1 .46-1.71z" fill="url(#L)"/><path d="m22.57 129.55a1.25 1.25 0 1 1 -.09 1.77 1.25 1.25 0 0 1 .09-1.77z" fill="url(#M)"/><path d="m25.17 132.24a1.26 1.26 0 1 1 .28 1.75 1.25 1.25 0 0 1 -.28-1.75z" fill="url(#N)"/><path d="m28.27 134.34a1.25 1.25 0 1 1 .63 1.66 1.25 1.25 0 0 1 -.63-1.66z" fill="url(#O)"/><path d="m31.74 135.74a1.25 1.25 0 0 1 1.48-1 1.25 1.25 0 1 1 -.52 2.45 1.24 1.24 0 0 1 -.96-1.45z" fill="url(#P)"/><circle cx="36.67" cy="136.39" fill="url(#Q)" r="1.25"/><path d="m39.15 136.26a1.26 1.26 0 0 1 1-1.49 1.25 1.25 0 1 1 -1 1.49z" fill="url(#R)"/><path d="m42.78 135.35a1.25 1.25 0 1 1 1.66.64 1.25 1.25 0 0 1 -1.66-.64z" fill="url(#S)"/><path d="m46.14 133.72a1.26 1.26 0 1 1 1.75.27 1.26 1.26 0 0 1 -1.75-.27z" fill="url(#T)"/><path d="m49.09 131.41a1.25 1.25 0 0 1 1.68-1.86 1.26 1.26 0 0 1 .09 1.77 1.24 1.24 0 0 1 -1.77.09z" fill="url(#U)"/><path d="m51.5 128.55a1.25 1.25 0 1 1 1.71-.46 1.25 1.25 0 0 1 -1.71.46z" fill="url(#V)"/><path d="m53.25 125.25a1.25 1.25 0 0 1 .78-2.38 1.25 1.25 0 1 1 -.78 2.38z" fill="url(#W)"/><path d="m54.28 121.66a1.26 1.26 0 1 1 1.38-1.12 1.26 1.26 0 0 1 -1.38 1.12z" fill="url(#X)"/><path d="m54.54 117.93a1.26 1.26 0 1 1 1.12-1.38 1.25 1.25 0 0 1 -1.12 1.38z" fill="url(#Y)"/><path d="m54 114.22a1.25 1.25 0 0 1 -.78-2.38 1.25 1.25 0 1 1 .78 2.38z" fill="url(#Z)"/><path d="m52.75 110.71a1.25 1.25 0 1 1 .46-1.71 1.25 1.25 0 0 1 -.46 1.71z" fill="url(#aa)"/><path d="m50.77 107.54a1.25 1.25 0 1 1 .09-1.77 1.25 1.25 0 0 1 -.09 1.77z" fill="url(#ab)"/><path d="m48.17 104.85a1.26 1.26 0 1 1 -.28-1.75 1.25 1.25 0 0 1 .28 1.75z" fill="url(#ac)"/><path d="m45.07 102.75a1.25 1.25 0 1 1 -.63-1.65 1.25 1.25 0 0 1 .63 1.65z" fill="url(#ad)"/><path d="m41.6 101.35a1.25 1.25 0 0 1 -1.48 1 1.25 1.25 0 1 1 .52-2.45 1.24 1.24 0 0 1 .96 1.45z" fill="url(#ae)"/><path d="m36.67 107.42a11.13 11.13 0 1 0 11.12 11.13 11.12 11.12 0 0 0 -11.12-11.13zm0 14a2.93 2.93 0 1 1 2.93-2.92 2.93 2.93 0 0 1 -2.93 2.97z" fill="url(#c)"/><path d="m26.17 88.76a2.53 2.53 0 0 1 .07-1.76 1.73 1.73 0 0 1 .41-.6 1.42 1.42 0 0 1 .58-.34 1.51 1.51 0 0 1 .67 0 2 2 0 0 1 1 .55 2.67 2.67 0 0 1 .68 1.16l1-.28a3.56 3.56 0 0 0 -1.38-2 2.79 2.79 0 0 0 -1.05-.45 2.5 2.5 0 0 0 -1.15.05 2.39 2.39 0 0 0 -1 .57 2.92 2.92 0 0 0 -.82 1.5 3.65 3.65 0 0 0 .01 1.84l1-.28z" fill="url(#af)"/><path d="m21.64 90.77a2.5 2.5 0 0 1 -.16-.43 2.34 2.34 0 0 1 0-1.46 1.64 1.64 0 0 1 .31-.55 1.29 1.29 0 0 1 .47-.36l.2-.08a1.43 1.43 0 0 1 .62 0 2.06 2.06 0 0 1 1 .43 2.71 2.71 0 0 1 .77 1l.92-.43a3.56 3.56 0 0 0 -1.51-1.64 2.76 2.76 0 0 0 -1-.34 2.5 2.5 0 0 0 -1.05.07 3 3 0 0 0 -.35.13 2.33 2.33 0 0 0 -.8.62 2.83 2.83 0 0 0 -.66 1.27 3.76 3.76 0 0 0 .1 1.59 4.45 4.45 0 0 0 .22.57l.92-.43z" fill="url(#ag)"/><path d="m17.48 93.46a2.73 2.73 0 0 1 -.38-.79 2.21 2.21 0 0 1 0-1.22 1.5 1.5 0 0 1 .59-.85 1.18 1.18 0 0 1 .39-.19 1.85 1.85 0 0 1 1.21.11 2.75 2.75 0 0 1 1.13 1l.84-.57a3.72 3.72 0 0 0 -1.57-1.32 2.81 2.81 0 0 0 -1.89-.15 2.42 2.42 0 0 0 -1.67 1.73 3.18 3.18 0 0 0 0 1.78 3.67 3.67 0 0 0 .51 1.01l.84-.57z" fill="url(#ah)"/><path d="m13.79 96.77a2.62 2.62 0 0 1 -.64-1.09 2.15 2.15 0 0 1 -.05-1 1.5 1.5 0 0 1 .42-.76 1.35 1.35 0 0 1 .58-.33 1.88 1.88 0 0 1 1.12 0 2.65 2.65 0 0 1 1.13.73l.74-.7a3.66 3.66 0 0 0 -1.56-1 3 3 0 0 0 -1.72 0 2.3 2.3 0 0 0 -1 .56 2.42 2.42 0 0 0 -.72 1.29 3.14 3.14 0 0 0 .09 1.53 3.8 3.8 0 0 0 .87 1.51l.74-.7z" fill="url(#ai)"/><path d="m10.66 100.62a2.62 2.62 0 0 1 -.92-1.32 2 2 0 0 1 -.07-.79 1.4 1.4 0 0 1 1-1.17 2.1 2.1 0 0 1 1 0 2.8 2.8 0 0 1 1.08.51l.62-.8a3.77 3.77 0 0 0 -1.49-.7 3.12 3.12 0 0 0 -1.52 0 2.48 2.48 0 0 0 -1.28.86 2.45 2.45 0 0 0 -.48 1.14 3 3 0 0 0 .09 1.22 3.65 3.65 0 0 0 1.31 1.85l.62-.8z" fill="url(#aj)"/><path d="m8.18 104.91a2.55 2.55 0 0 1 -1.24-1.46 1.66 1.66 0 0 1 -.06-.62 1.43 1.43 0 0 1 .16-.56 1.49 1.49 0 0 1 .39-.44 1.57 1.57 0 0 1 .55-.27 2.5 2.5 0 0 1 1.89.26l.49-.89a3.46 3.46 0 0 0 -2.66-.34 2.74 2.74 0 0 0 -.89.44 2.29 2.29 0 0 0 -.65.76 2.23 2.23 0 0 0 -.29 1 2.71 2.71 0 0 0 .1 1 3.54 3.54 0 0 0 1.72 2.07l.49-.89z" fill="url(#ak)"/><path d="m6.4 109.53a2.65 2.65 0 0 1 -1-.64 2 2 0 0 1 -.53-.87 1.49 1.49 0 0 1 0-.91 1.46 1.46 0 0 1 .42-.59 1.69 1.69 0 0 1 .7-.38 2.64 2.64 0 0 1 1.61.08l.34-1a3.64 3.64 0 0 0 -2.23-.09 2.87 2.87 0 0 0 -1.09.58 2.37 2.37 0 0 0 -.7 1 2.5 2.5 0 0 0 0 1.53 3.12 3.12 0 0 0 .79 1.31 3.89 3.89 0 0 0 1.39.88l.35-1z" fill="url(#al)"/><path d="m5.36 114.38a2.66 2.66 0 0 1 -1.22-.57 1.94 1.94 0 0 1 -.64-.92 1.34 1.34 0 0 1 0-.66 1.4 1.4 0 0 1 .42-.77 2 2 0 0 1 .87-.49 2.64 2.64 0 0 1 1.26 0l.19-1a3.75 3.75 0 0 0 -1.74.08 3 3 0 0 0 -1.29.74 2.42 2.42 0 0 0 -.71 1.3 2.39 2.39 0 0 0 .06 1.13 2.91 2.91 0 0 0 1 1.42 3.75 3.75 0 0 0 1.68.79l.19-1z" fill="url(#am)"/><path d="m5.09 119.33a2.74 2.74 0 0 1 -1.41-.44 1.83 1.83 0 0 1 -.74-1 1.24 1.24 0 0 1 0-.43 1.47 1.47 0 0 1 .4-1 2.28 2.28 0 0 1 1-.64 3.06 3.06 0 0 1 .87-.1v-1a3.82 3.82 0 0 0 -1.18.15 3.34 3.34 0 0 0 -1.52.93 2.51 2.51 0 0 0 -.66 1.6 2.32 2.32 0 0 0 .1.74 2.76 2.76 0 0 0 1.14 1.51 3.64 3.64 0 0 0 1.95.62v-1z" fill="url(#an)"/><path d="m5.6 124.26a2.63 2.63 0 0 1 -1.6-.26 1.93 1.93 0 0 1 -.54-.43 1.52 1.52 0 0 1 -.3-.54 1.55 1.55 0 0 1 0-.21 1.3 1.3 0 0 1 0-.59 1.87 1.87 0 0 1 .53-.81 2.47 2.47 0 0 1 1-.54 2.16 2.16 0 0 1 .44-.1l-.13-1a3.86 3.86 0 0 0 -.59.12 3.45 3.45 0 0 0 -1.72 1.1 2.82 2.82 0 0 0 -.47.89 2.45 2.45 0 0 0 -.09 1 2.21 2.21 0 0 0 .08.37 2.43 2.43 0 0 0 .5.92 3 3 0 0 0 1.32.88 3.7 3.7 0 0 0 1.7.17l-.13-1z" fill="url(#ao)"/><path d="m6.88 129.05a2.62 2.62 0 0 1 -1.72-.05 2.1 2.1 0 0 1 -.61-.41 1.35 1.35 0 0 1 -.33-.58 1.38 1.38 0 0 1 0-.67 2 2 0 0 1 .55-1 2.66 2.66 0 0 1 1.16-.67l-.29-1a3.63 3.63 0 0 0 -2 1.39 2.91 2.91 0 0 0 -.45 1 2.42 2.42 0 0 0 .63 2.15 3 3 0 0 0 1.5.82 3.61 3.61 0 0 0 1.84-.03l-.28-1z" fill="url(#ap)"/><path d="m8.89 133.58a3.61 3.61 0 0 1 -.42.16 2.52 2.52 0 0 1 -1.47 0 2 2 0 0 1 -.55-.31 1.51 1.51 0 0 1 -.36-.47 1.59 1.59 0 0 1 -.07-.2 1.44 1.44 0 0 1 0-.62 2 2 0 0 1 .43-1 2.63 2.63 0 0 1 1-.77l-.45-.9a3.7 3.7 0 0 0 -1.69 1.53 3 3 0 0 0 -.31 1 2.48 2.48 0 0 0 0 1 2.13 2.13 0 0 0 .14.35 2.34 2.34 0 0 0 .61.81 2.86 2.86 0 0 0 1.37.62 3.45 3.45 0 0 0 1.59-.1 4.37 4.37 0 0 0 .57-.21l-.43-.92z" fill="url(#aq)"/><path d="m11.58 137.74a2.58 2.58 0 0 1 -.79.37 2.21 2.21 0 0 1 -1.22 0 1.52 1.52 0 0 1 -.85-.58 1.59 1.59 0 0 1 -.18-.4 1.76 1.76 0 0 1 .11-1.2 2.61 2.61 0 0 1 .95-1.13l-.6-.8a3.61 3.61 0 0 0 -1.32 1.57 2.6 2.6 0 0 0 .17 2.57 2.58 2.58 0 0 0 1.42 1 3.27 3.27 0 0 0 1.78 0 3.88 3.88 0 0 0 1.07-.51l-.57-.84z" fill="url(#ar)"/><path d="m14.9 141.43a2.8 2.8 0 0 1 -1.1.63 2 2 0 0 1 -1 .05 1.36 1.36 0 0 1 -.77-.42 1.4 1.4 0 0 1 -.32-.57 2 2 0 0 1 0-1.13 2.88 2.88 0 0 1 .73-1.13l-.69-.74a3.7 3.7 0 0 0 -1 1.57 2.94 2.94 0 0 0 0 1.71 2.51 2.51 0 0 0 .56 1 2.6 2.6 0 0 0 1.29.72 3.19 3.19 0 0 0 1.5-.07 3.83 3.83 0 0 0 1.5-.87l-.69-.74z" fill="url(#as)"/><path d="m18.74 144.55a2.58 2.58 0 0 1 -1.31.93 1.85 1.85 0 0 1 -.8.06 1.4 1.4 0 0 1 -.66-.28 1.45 1.45 0 0 1 -.51-.76 2.06 2.06 0 0 1 0-1 2.73 2.73 0 0 1 .52-1.09l-.8-.62a3.79 3.79 0 0 0 -.71 1.49 3.16 3.16 0 0 0 0 1.53 2.48 2.48 0 0 0 .85 1.27 2.39 2.39 0 0 0 1.14.48 2.85 2.85 0 0 0 1.23-.09 3.58 3.58 0 0 0 1.83-1.28l-.8-.62z" fill="url(#at)"/><path d="m23 147a2.53 2.53 0 0 1 -1.46 1.23 1.88 1.88 0 0 1 -.61.07 1.41 1.41 0 0 1 -1-.55 2 2 0 0 1 -.28-.56 2.56 2.56 0 0 1 .26-1.89l-.88-.49a3.53 3.53 0 0 0 -.35 2.67 2.6 2.6 0 0 0 .44.88 2.42 2.42 0 0 0 .76.66 2.38 2.38 0 0 0 1 .29 2.76 2.76 0 0 0 1-.1 3.57 3.57 0 0 0 2.06-1.73z" fill="url(#au)"/><path d="m27.66 148.82a2.73 2.73 0 0 1 -.64 1 2.07 2.07 0 0 1 -.88.54 1.41 1.41 0 0 1 -1.5-.43 2 2 0 0 1 -.37-.7 2.63 2.63 0 0 1 .07-1.61l-.95-.35a3.6 3.6 0 0 0 -.1 2.24 3.05 3.05 0 0 0 .58 1.08 2.54 2.54 0 0 0 1 .71 2.46 2.46 0 0 0 1.54 0 3 3 0 0 0 1.3-.79 3.68 3.68 0 0 0 .88-1.39l-.95-.34z" fill="url(#av)"/><path d="m32.5 149.86a2.65 2.65 0 0 1 -.56 1.22 1.91 1.91 0 0 1 -.93.63 1.35 1.35 0 0 1 -.66 0 1.44 1.44 0 0 1 -.76-.42 2.12 2.12 0 0 1 -.5-.87 2.78 2.78 0 0 1 -.09-1.22l-1-.19a3.59 3.59 0 0 0 .07 1.73 3.05 3.05 0 0 0 .74 1.3 2.39 2.39 0 0 0 2.43.65 2.9 2.9 0 0 0 1.43-1 3.73 3.73 0 0 0 .78-1.68l-1-.19z" fill="url(#aw)"/><path d="m37.45 150.12a2.6 2.6 0 0 1 -.44 1.42 1.81 1.81 0 0 1 -1 .73 1.54 1.54 0 0 1 -.43.06 1.47 1.47 0 0 1 -.95-.4 2.3 2.3 0 0 1 -.63-1.05 2.73 2.73 0 0 1 -.11-.87h-1a3.82 3.82 0 0 0 .15 1.18 3.24 3.24 0 0 0 .92 1.52 2.53 2.53 0 0 0 1.6.66 2.34 2.34 0 0 0 .75-.09 2.81 2.81 0 0 0 1.51-1.14 3.73 3.73 0 0 0 .62-2h-1z" fill="url(#ax)"/><path d="m42.38 149.61a2.6 2.6 0 0 1 -.27 1.58 2 2 0 0 1 -.43.54 1.56 1.56 0 0 1 -.55.3l-.21.05a1.47 1.47 0 0 1 -.59-.06 1.71 1.71 0 0 1 -.8-.53 2.45 2.45 0 0 1 -.55-1 3.26 3.26 0 0 1 -.09-.45l-1 .13a3.75 3.75 0 0 0 .13.6 3.4 3.4 0 0 0 1.14 1.74 2.5 2.5 0 0 0 .84.49 2.34 2.34 0 0 0 1 .09 2.41 2.41 0 0 0 .37-.07 2.53 2.53 0 0 0 .92-.51 3 3 0 0 0 .88-1.31 3.74 3.74 0 0 0 .17-1.71l-1 .13z" fill="url(#ay)"/><path d="m47.17 148.33a2.53 2.53 0 0 1 -.07 1.73 1.73 1.73 0 0 1 -.41.6 1.42 1.42 0 0 1 -.58.34 1.51 1.51 0 0 1 -.67 0 2 2 0 0 1 -1-.55 2.67 2.67 0 0 1 -.68-1.16l-1 .28a3.56 3.56 0 0 0 1.38 2 2.79 2.79 0 0 0 1 .45 2.5 2.5 0 0 0 1.26-.02 2.39 2.39 0 0 0 1-.57 2.92 2.92 0 0 0 .82-1.5 3.65 3.65 0 0 0 -.06-1.85l-1 .28z" fill="url(#az)"/><path d="m51.7 146.32a2.5 2.5 0 0 1 .16.43 2.34 2.34 0 0 1 0 1.46 1.64 1.64 0 0 1 -.31.55 1.29 1.29 0 0 1 -.47.36l-.2.08a1.43 1.43 0 0 1 -.62 0 2.06 2.06 0 0 1 -1-.43 2.71 2.71 0 0 1 -.77-1l-.92.43a3.56 3.56 0 0 0 1.51 1.64 2.76 2.76 0 0 0 1 .34 2.5 2.5 0 0 0 1-.07 3 3 0 0 0 .35-.13 2.33 2.33 0 0 0 .8-.62 2.83 2.83 0 0 0 .63-1.37 3.76 3.76 0 0 0 -.1-1.59 4.45 4.45 0 0 0 -.22-.57l-.92.43z" fill="url(#aA)"/><path d="m55.86 143.63a2.73 2.73 0 0 1 .38.79 2.21 2.21 0 0 1 0 1.22 1.47 1.47 0 0 1 -.59.85 1.18 1.18 0 0 1 -.39.19 1.85 1.85 0 0 1 -1.21-.11 2.75 2.75 0 0 1 -1.13-1l-.84.57a3.72 3.72 0 0 0 1.57 1.32 2.81 2.81 0 0 0 1.89.15 2.42 2.42 0 0 0 1.67-1.73 3.18 3.18 0 0 0 0-1.78 3.94 3.94 0 0 0 -.51-1.08l-.84.57z" fill="url(#aB)"/><path d="m59.55 140.32a2.62 2.62 0 0 1 .64 1.09 2.15 2.15 0 0 1 .05 1 1.5 1.5 0 0 1 -.42.76 1.35 1.35 0 0 1 -.58.33 1.88 1.88 0 0 1 -1.12 0 2.65 2.65 0 0 1 -1.13-.73l-.74.7a3.66 3.66 0 0 0 1.56 1 3 3 0 0 0 1.72 0 2.3 2.3 0 0 0 1-.56 2.42 2.42 0 0 0 .72-1.29 3.14 3.14 0 0 0 -.07-1.49 3.8 3.8 0 0 0 -.87-1.51l-.74.7z" fill="url(#aC)"/><path d="m62.68 136.47a2.62 2.62 0 0 1 .92 1.32 2 2 0 0 1 .07.79 1.4 1.4 0 0 1 -1 1.17 2.1 2.1 0 0 1 -1 0 2.8 2.8 0 0 1 -1.08-.51l-.62.8a3.77 3.77 0 0 0 1.49.7 3.12 3.12 0 0 0 1.52 0 2.48 2.48 0 0 0 1.28-.86 2.45 2.45 0 0 0 .48-1.14 3 3 0 0 0 -.09-1.22 3.65 3.65 0 0 0 -1.28-1.84l-.62.8z" fill="url(#aD)"/><path d="m65.16 132.18a2.55 2.55 0 0 1 1.24 1.46 1.66 1.66 0 0 1 .06.62 1.43 1.43 0 0 1 -.16.56 1.49 1.49 0 0 1 -.39.44 1.57 1.57 0 0 1 -.55.27 2.5 2.5 0 0 1 -1.89-.26l-.49.89a3.46 3.46 0 0 0 2.66.34 2.74 2.74 0 0 0 .89-.44 2.29 2.29 0 0 0 .65-.76 2.23 2.23 0 0 0 .29-1 2.71 2.71 0 0 0 -.1-1 3.54 3.54 0 0 0 -1.72-2.07l-.49.89z" fill="url(#aE)"/><path d="m66.94 127.56a2.65 2.65 0 0 1 1 .64 2 2 0 0 1 .53.87 1.49 1.49 0 0 1 0 .91 1.46 1.46 0 0 1 -.42.59 1.69 1.69 0 0 1 -.7.38 2.64 2.64 0 0 1 -1.61-.08l-.34 1a3.64 3.64 0 0 0 2.23.09 2.87 2.87 0 0 0 1.09-.58 2.37 2.37 0 0 0 .7-1 2.5 2.5 0 0 0 0-1.53 3.18 3.18 0 0 0 -.79-1.31 3.89 3.89 0 0 0 -1.39-.88l-.35 1z" fill="url(#aF)"/><path d="m68 122.71a2.66 2.66 0 0 1 1.22.57 1.94 1.94 0 0 1 .64.92 1.34 1.34 0 0 1 0 .66 1.4 1.4 0 0 1 -.42.77 2 2 0 0 1 -.87.49 2.64 2.64 0 0 1 -1.26 0l-.19 1a3.75 3.75 0 0 0 1.74-.08 3 3 0 0 0 1.29-.74 2.42 2.42 0 0 0 .71-1.3 2.39 2.39 0 0 0 -.06-1.13 2.91 2.91 0 0 0 -1-1.42 3.63 3.63 0 0 0 -1.68-.78l-.19 1z" fill="url(#aG)"/><path d="m68.25 117.76a2.74 2.74 0 0 1 1.41.44 1.83 1.83 0 0 1 .74 1 1.24 1.24 0 0 1 0 .43 1.47 1.47 0 0 1 -.4 1 2.28 2.28 0 0 1 -1 .64 3.06 3.06 0 0 1 -.87.1v1a3.82 3.82 0 0 0 1.18-.15 3.34 3.34 0 0 0 1.52-.93 2.51 2.51 0 0 0 .66-1.6 2.32 2.32 0 0 0 -.1-.74 2.76 2.76 0 0 0 -1.14-1.51 3.64 3.64 0 0 0 -2-.62v1z" fill="url(#aH)"/><path d="m67.74 112.83a2.63 2.63 0 0 1 1.58.28 1.93 1.93 0 0 1 .54.43 1.52 1.52 0 0 1 .3.54 1.55 1.55 0 0 1 0 .21 1.3 1.3 0 0 1 0 .59 1.87 1.87 0 0 1 -.53.81 2.47 2.47 0 0 1 -1 .54 2.16 2.16 0 0 1 -.44.1l.13 1a3.86 3.86 0 0 0 .59-.12 3.45 3.45 0 0 0 1.75-1.14 2.82 2.82 0 0 0 .47-.89 2.45 2.45 0 0 0 .09-1 2.21 2.21 0 0 0 -.08-.37 2.43 2.43 0 0 0 -.5-.92 3 3 0 0 0 -1.32-.88 3.7 3.7 0 0 0 -1.7-.17l.13 1z" fill="url(#aI)"/><path d="m66.46 108a2.62 2.62 0 0 1 1.72.07 2.1 2.1 0 0 1 .61.41 1.35 1.35 0 0 1 .33.58 1.38 1.38 0 0 1 0 .67 2 2 0 0 1 -.55 1 2.66 2.66 0 0 1 -1.16.67l.29 1a3.63 3.63 0 0 0 2-1.39 2.91 2.91 0 0 0 .45-1 2.42 2.42 0 0 0 -.63-2.15 3 3 0 0 0 -1.52-.86 3.73 3.73 0 0 0 -1.84.07l.28 1z" fill="url(#aJ)"/><path d="m64.45 103.51a3.61 3.61 0 0 1 .42-.16 2.52 2.52 0 0 1 1.47 0 2 2 0 0 1 .55.31 1.51 1.51 0 0 1 .36.47 1.59 1.59 0 0 1 .07.2 1.44 1.44 0 0 1 0 .62 2 2 0 0 1 -.43 1 2.63 2.63 0 0 1 -1 .77l.43.92a3.7 3.7 0 0 0 1.68-1.54 3 3 0 0 0 .34-1 2.48 2.48 0 0 0 -.07-1 2.13 2.13 0 0 0 -.14-.35 2.34 2.34 0 0 0 -.61-.81 2.86 2.86 0 0 0 -1.37-.62 3.45 3.45 0 0 0 -1.59.1 3.9 3.9 0 0 0 -.57.21l.43.92z" fill="url(#aK)"/><path d="m61.76 99.35a2.58 2.58 0 0 1 .79-.37 2.21 2.21 0 0 1 1.22 0 1.49 1.49 0 0 1 .85.59 1.38 1.38 0 0 1 .18.39 1.76 1.76 0 0 1 -.11 1.2 2.61 2.61 0 0 1 -.95 1.13l.57.84a3.61 3.61 0 0 0 1.32-1.57 2.93 2.93 0 0 0 .15-1.89 2.8 2.8 0 0 0 -.32-.68 2.58 2.58 0 0 0 -1.46-.99 3.27 3.27 0 0 0 -1.78 0 3.88 3.88 0 0 0 -1.07.51l.57.84z" fill="url(#aL)"/><path d="m58.44 95.66a2.8 2.8 0 0 1 1.1-.63 2 2 0 0 1 1 0 1.36 1.36 0 0 1 .77.42 1.4 1.4 0 0 1 .32.57 2 2 0 0 1 0 1.13 2.88 2.88 0 0 1 -.73 1.13l.69.74a3.7 3.7 0 0 0 1-1.57 2.94 2.94 0 0 0 .05-1.71 2.39 2.39 0 0 0 -1.89-1.74 3.06 3.06 0 0 0 -1.5.06 3.83 3.83 0 0 0 -1.5.87l.69.74z" fill="url(#aM)"/><path d="m54.6 92.54a2.58 2.58 0 0 1 1.31-.93 1.85 1.85 0 0 1 .8-.06 1.4 1.4 0 0 1 .66.28 1.49 1.49 0 0 1 .51.76 2.06 2.06 0 0 1 0 1 2.73 2.73 0 0 1 -.52 1.09l.8.62a3.79 3.79 0 0 0 .71-1.49 3.16 3.16 0 0 0 0-1.53 2.41 2.41 0 0 0 -2-1.75 2.85 2.85 0 0 0 -1.23.09 3.58 3.58 0 0 0 -1.83 1.28l.8.62z" fill="url(#aN)"/><path d="m50.31 90.05a2.53 2.53 0 0 1 1.46-1.23 1.85 1.85 0 0 1 .61-.07 1.41 1.41 0 0 1 1 .55 2 2 0 0 1 .28.56 2.56 2.56 0 0 1 -.26 1.89l.88.49a3.53 3.53 0 0 0 .35-2.67 2.6 2.6 0 0 0 -.44-.88 2.42 2.42 0 0 0 -.76-.66 2.38 2.38 0 0 0 -1-.29 2.56 2.56 0 0 0 -1 .11 3.52 3.52 0 0 0 -2.06 1.72l.89.48z" fill="url(#aO)"/><path d="m45.68 88.27a2.73 2.73 0 0 1 .64-1 2.07 2.07 0 0 1 .88-.54 1.41 1.41 0 0 1 1.5.43 2 2 0 0 1 .37.7 2.63 2.63 0 0 1 -.07 1.6l1 .35a3.6 3.6 0 0 0 .1-2.24 3.05 3.05 0 0 0 -.58-1.08 2.54 2.54 0 0 0 -1-.71 2.46 2.46 0 0 0 -1.54 0 3 3 0 0 0 -1.3.79 3.68 3.68 0 0 0 -.88 1.39l1 .34z" fill="url(#aP)"/><path d="m40.84 87.23a2.65 2.65 0 0 1 .56-1.23 1.91 1.91 0 0 1 .93-.63 1.35 1.35 0 0 1 .66 0 1.44 1.44 0 0 1 .76.42 2.12 2.12 0 0 1 .5.87 2.78 2.78 0 0 1 0 1.26l1 .19a3.59 3.59 0 0 0 -.07-1.73 3.05 3.05 0 0 0 -.74-1.3 2.44 2.44 0 0 0 -1.3-.7 2.39 2.39 0 0 0 -1.13.05 2.9 2.9 0 0 0 -1.43 1 3.73 3.73 0 0 0 -.74 1.57l1 .19z" fill="url(#aQ)"/><path d="m35.89 87a2.6 2.6 0 0 1 .44-1.42 1.81 1.81 0 0 1 1-.73 1.54 1.54 0 0 1 .43-.06 1.47 1.47 0 0 1 1 .4 2.3 2.3 0 0 1 .63 1 2.73 2.73 0 0 1 .11.87h1a3.82 3.82 0 0 0 -.15-1.18 3.24 3.24 0 0 0 -.92-1.52 2.53 2.53 0 0 0 -1.6-.66 2.34 2.34 0 0 0 -.75.09 2.81 2.81 0 0 0 -1.59 1.21 3.73 3.73 0 0 0 -.62 2h1z" fill="url(#aR)"/><path d="m31 87.48a2.6 2.6 0 0 1 .27-1.58 2 2 0 0 1 .43-.54 1.56 1.56 0 0 1 .55-.3h.21a1.47 1.47 0 0 1 .59.06 1.71 1.71 0 0 1 .8.53 2.45 2.45 0 0 1 .55 1 3.26 3.26 0 0 1 .09.45l1-.13a3.75 3.75 0 0 0 -.13-.6 3.4 3.4 0 0 0 -1.14-1.74 2.5 2.5 0 0 0 -.88-.47 2.34 2.34 0 0 0 -1-.09 2.41 2.41 0 0 0 -.37.07 2.53 2.53 0 0 0 -.92.51 3 3 0 0 0 -.88 1.31 3.74 3.74 0 0 0 -.17 1.65z" fill="url(#aS)"/><circle cx="28.48" cy="90.38" fill="url(#aT)" r="1.22"/><path d="m25.05 91.59a1.22 1.22 0 1 1 -1.63-.59 1.21 1.21 0 0 1 1.63.59z" fill="url(#aU)"/><path d="m20.77 93.87a1.22 1.22 0 1 1 -1.7-.3 1.22 1.22 0 0 1 1.7.3z" fill="url(#aV)"/><path d="m16.93 96.82a1.22 1.22 0 1 1 -1.73 0 1.23 1.23 0 0 1 1.73 0z" fill="url(#aW)"/><path d="m13.62 100.37a1.22 1.22 0 1 1 -1.7.27 1.22 1.22 0 0 1 1.7-.27z" fill="url(#aX)"/><path d="m10.94 104.41a1.22 1.22 0 1 1 -1.63.55 1.21 1.21 0 0 1 1.63-.55z" fill="url(#aY)"/><path d="m9 108.83a1.22 1.22 0 1 1 -1.53.82 1.23 1.23 0 0 1 1.53-.82z" fill="url(#aZ)"/><path d="m7.75 113.53a1.21 1.21 0 0 1 1.05 1.37 1.23 1.23 0 0 1 -1.37 1 1.22 1.22 0 1 1 .32-2.42z" fill="url(#a0)"/><path d="m7.32 118.36a1.22 1.22 0 1 1 -1.18 1.26 1.22 1.22 0 0 1 1.18-1.26z" fill="url(#a1)"/><path d="m7.69 123.19a1.22 1.22 0 1 1 -1 1.44 1.21 1.21 0 0 1 1-1.44z" fill="url(#a2)"/><path d="m8.84 127.9a1.22 1.22 0 1 1 -.7 1.57 1.22 1.22 0 0 1 .7-1.57z" fill="url(#a3)"/><path d="m10.76 132.35a1.22 1.22 0 1 1 -.43 1.67 1.22 1.22 0 0 1 .43-1.67z" fill="url(#a4)"/><path d="m13.39 136.43a1.21 1.21 0 0 1 1.72.15 1.22 1.22 0 1 1 -1.87 1.56 1.2 1.2 0 0 1 .15-1.71z" fill="url(#a5)"/><path d="m16.65 140a1.22 1.22 0 1 1 .13 1.72 1.22 1.22 0 0 1 -.13-1.72z" fill="url(#a6)"/><path d="m20.46 143a1.21 1.21 0 0 1 1.67-.42 1.22 1.22 0 1 1 -1.26 2.09 1.21 1.21 0 0 1 -.41-1.67z" fill="url(#a7)"/><path d="m24.71 145.35a1.22 1.22 0 0 1 2.26.9 1.22 1.22 0 1 1 -2.26-.9z" fill="url(#a8)"/><path d="m29.28 147a1.22 1.22 0 1 1 .94 1.46 1.24 1.24 0 0 1 -.94-1.46z" fill="url(#a9)"/><path d="m34.06 147.78a1.22 1.22 0 0 1 2.44.12 1.23 1.23 0 0 1 -1.28 1.16 1.22 1.22 0 0 1 -1.16-1.28z" fill="url(#ba)"/><path d="m38.91 147.81a1.22 1.22 0 1 1 1.35 1.07 1.21 1.21 0 0 1 -1.35-1.07z" fill="url(#bb)"/><circle cx="44.86" cy="146.71" fill="url(#bc)" r="1.22"/><path d="m48.29 145.5a1.22 1.22 0 1 1 1.63.57 1.21 1.21 0 0 1 -1.63-.57z" fill="url(#bd)"/><path d="m52.57 143.22a1.22 1.22 0 1 1 1.7.3 1.22 1.22 0 0 1 -1.7-.3z" fill="url(#be)"/><path d="m56.41 140.27a1.22 1.22 0 1 1 1.73 0 1.23 1.23 0 0 1 -1.73 0z" fill="url(#bf)"/><path d="m59.72 136.72a1.22 1.22 0 1 1 1.7-.27 1.22 1.22 0 0 1 -1.7.27z" fill="url(#bg)"/><path d="m62.4 132.68a1.22 1.22 0 1 1 1.63-.55 1.21 1.21 0 0 1 -1.63.55z" fill="url(#bh)"/><path d="m64.37 128.26a1.22 1.22 0 1 1 1.53-.82 1.23 1.23 0 0 1 -1.53.82z" fill="url(#bi)"/><path d="m65.59 123.56a1.21 1.21 0 0 1 -1-1.37 1.23 1.23 0 0 1 1.37-1 1.22 1.22 0 1 1 -.32 2.42z" fill="url(#bj)"/><path d="m66 118.73a1.22 1.22 0 1 1 1.18-1.26 1.22 1.22 0 0 1 -1.18 1.26z" fill="url(#bk)"/><path d="m65.65 113.9a1.22 1.22 0 1 1 1-1.44 1.21 1.21 0 0 1 -1 1.44z" fill="url(#bl)"/><path d="m64.5 109.19a1.22 1.22 0 1 1 .7-1.57 1.22 1.22 0 0 1 -.7 1.57z" fill="url(#bm)"/><path d="m62.58 104.74a1.22 1.22 0 1 1 .43-1.67 1.22 1.22 0 0 1 -.43 1.67z" fill="url(#bn)"/><path d="m60 100.66a1.21 1.21 0 0 1 -1.72-.15 1.22 1.22 0 1 1 1.82-1.51 1.2 1.2 0 0 1 -.1 1.66z" fill="url(#bo)"/><path d="m56.69 97.08a1.22 1.22 0 1 1 -.13-1.72 1.22 1.22 0 0 1 .13 1.72z" fill="url(#bp)"/><path d="m52.88 94.07a1.21 1.21 0 0 1 -1.67.42 1.22 1.22 0 1 1 1.26-2.09 1.21 1.21 0 0 1 .41 1.67z" fill="url(#bq)"/><path d="m48.63 91.74a1.22 1.22 0 1 1 -2.26-.9 1.22 1.22 0 1 1 2.26.9z" fill="url(#br)"/><path d="m44.06 90.14a1.22 1.22 0 1 1 -.94-1.46 1.24 1.24 0 0 1 .94 1.46z" fill="url(#bs)"/><path d="m39.28 89.31a1.22 1.22 0 0 1 -2.44-.12 1.23 1.23 0 0 1 1.28-1.19 1.22 1.22 0 0 1 1.16 1.31z" fill="url(#bt)"/><path d="m34.43 89.28a1.22 1.22 0 1 1 -1.35-1.07 1.21 1.21 0 0 1 1.35 1.07z" fill="url(#bu)"/><g fill="url(#c)"><path d="m62.76 111-.49.15a26.67 26.67 0 1 1 -12.77-15.97 26.58 26.58 0 0 1 12.77 15.92l.49-.15.48-.14a27.67 27.67 0 1 0 -2.31 21.06 27.58 27.58 0 0 0 2.31-21.06z"/><path d="m66.89 109.75-.48.14a31 31 0 1 1 -14.83-18.49 30.89 30.89 0 0 1 14.83 18.49l.48-.14.49-.14a32 32 0 1 0 -2.67 24.33 31.91 31.91 0 0 0 2.67-24.33z"/><path d="m71.38 108.44-.48.15a35.65 35.65 0 0 1 -68.46 19.91 35.65 35.65 0 0 1 68.46-19.91l.48-.15.49-.14a36.68 36.68 0 1 0 -3.07 27.89 36.57 36.57 0 0 0 3.07-27.89z"/></g><path d="m96.8 154.7h-16.49v-72.26h28.34a25.49 25.49 0 0 1 7.54 1.06 24.78 24.78 0 0 1 6.25 2.85 22.9 22.9 0 0 1 5 4.23 26.28 26.28 0 0 1 5.75 11 25 25 0 0 1 .73 5.9 26.31 26.31 0 0 1 -.63 5.72 24.55 24.55 0 0 1 -2 5.58 24.87 24.87 0 0 1 -3.53 5.22 28.84 28.84 0 0 1 -5.24 4.66l19.26 26h-14.12a12.88 12.88 0 0 1 -1.53-.15 9.9 9.9 0 0 1 -2.45-.71 12.91 12.91 0 0 1 -2.87-1.66 12.67 12.67 0 0 1 -2.88-3.08l-12.1-16.39h-9zm12.71-38.58a6.13 6.13 0 0 0 2.92-.75 9.15 9.15 0 0 0 2.5-2 10 10 0 0 0 1.74-2.75 7.61 7.61 0 0 0 0-6.2 10 10 0 0 0 -1.74-2.75 9.15 9.15 0 0 0 -2.5-2 6.13 6.13 0 0 0 -2.92-.75h-12.71v17.14z" fill="url(#bv)"/></svg>