<svg xmlns="http://www.w3.org/2000/svg" xmlns:xlink="http://www.w3.org/1999/xlink" viewBox="0 0 141.73 155.22"><defs><style>.a{fill:url(#a);}.b{fill:url(#b);}.c{fill:url(#c);}.d{fill:url(#d);}.e{fill:url(#e);}.f{fill:url(#f);}.g{fill:url(#g);}.h{fill:url(#h);}.i{fill:url(#i);}.j{fill:url(#j);}.k{fill:url(#k);}.l{fill:url(#l);}.m{fill:url(#m);}.n{fill:url(#n);}.o{fill:url(#o);}.p{fill:url(#p);}.q{fill:url(#q);}.r{fill:url(#r);}.s{fill:url(#s);}.t{fill:url(#t);}.u{fill:url(#u);}.v{fill:url(#v);}.w{fill:url(#w);}.x{fill:url(#x);}.y{fill:url(#y);}.z{fill:url(#z);}.aa{fill:url(#aa);}.ab{fill:url(#ac);}.ac{fill:url(#ad);}.ad{fill:url(#ae);}.ae{fill:url(#af);}.af{fill:url(#ag);}.ag{fill:url(#ah);}.ah{fill:url(#ai);}.ai{fill:url(#aj);}.aj{fill:url(#ak);}.ak{fill:url(#al);}.al{fill:url(#am);}.am{fill:url(#an);}.an{fill:url(#ao);}.ao{fill:url(#ap);}.ap{fill:url(#aq);}.aq{fill:url(#ar);}.ar{fill:url(#as);}.as{fill:url(#at);}.at{fill:url(#au);}.au{fill:url(#av);}.av{fill:url(#aw);}.aw{fill:url(#ax);}.ax{fill:url(#ay);}.ay{fill:url(#az);}.az{fill:url(#ba);}.ba{fill:url(#bb);}.bb{fill:url(#bc);}.bc{fill:url(#bd);}.bd{fill:url(#be);}.be{fill:url(#bf);}.bf{fill:url(#bg);}.bg{fill:url(#bh);}.bh{fill:url(#bi);}.bi{fill:url(#bj);}.bj{fill:url(#bk);}.bk{fill:url(#bl);}.bl{fill:url(#bm);}.bm{fill:url(#bn);}.bn{fill:url(#bo);}.bo{fill:url(#bp);}.bp{fill:url(#bq);}.bq{fill:url(#br);}.br{fill:url(#bs);}.bs{fill:url(#bt);}.bt{fill:url(#bu);}.bu{fill:url(#bv);}.bv{fill:url(#bw);}.bw{fill:url(#bx);}.bx{fill:url(#by);}.by{fill:url(#bz);}.bz{fill:url(#ca);}.ca{fill:url(#cb);}.cb{fill:url(#cc);}.cc{fill:url(#cd);}.cd{fill:url(#ce);}.ce{fill:url(#cf);}.cf{fill:url(#cg);}.cg{fill:url(#ch);}.ch{fill:url(#ci);}.ci{fill:url(#cj);}.cj{fill:url(#ck);}.ck{fill:url(#cl);}.cl{fill:url(#cm);}.cm{fill:url(#cn);}.cn{fill:url(#co);}.co{fill:url(#cp);}.cp{fill:url(#cq);}.cq{fill:url(#cr);}.cr{fill:url(#cs);}.cs{fill:url(#ct);}.ct{fill:url(#cu);}.cu{fill:url(#cv);}.cv{fill:url(#cw);}.cw{fill:url(#cx);}.cx{fill:url(#cy);}.cy{fill:url(#cz);}.cz{fill:url(#da);}.da{fill:url(#db);}.db{fill:url(#dc);}.dc{fill:url(#dd);}.dd{fill:url(#de);}.de{fill:url(#df);}.df{fill:url(#dg);}.dg{fill:url(#dh);}.dh{fill:url(#di);}.di{fill:url(#dj);}.dj{fill:url(#dk);}.dk{fill:url(#dl);}.dl{fill:url(#dm);}.dm{fill:url(#dn);}.dn{fill:url(#do);}.do{fill:url(#dp);}.dp{fill:url(#dq);}.dq{fill:url(#dr);}.dr{fill:url(#ds);}.ds{fill:url(#dt);}.dt{fill:url(#du);}.du{fill:url(#dv);}.dv{fill:url(#dw);}.dw{fill:url(#dx);}.dx{fill:url(#dy);}.dy{fill:url(#dz);}.dz{fill:url(#ea);}.ea{fill:url(#eb);}.eb{fill:url(#ec);}.ec{fill:url(#ed);}.ed{fill:url(#ee);}.ee{fill:url(#ef);}.ef{fill:url(#eg);}.eg{fill:url(#ek);}</style><linearGradient id="a" x1="40.16" y1="72.32" x2="40.16" y2="0.05" gradientUnits="userSpaceOnUse"><stop offset="0" stop-color="#7b170f"/><stop offset="1" stop-color="#e20714"/></linearGradient><linearGradient id="b" x1="108.9" y1="72.32" x2="108.9" y2="0" xlink:href="#a"/><linearGradient id="c" x1="-44.74" y1="214.29" x2="66.93" y2="82.96" xlink:href="#a"/><linearGradient id="d" x1="-54.96" y1="205.6" x2="56.7" y2="74.26" xlink:href="#a"/><linearGradient id="e" x1="-57.89" y1="203.1" x2="53.77" y2="71.77" xlink:href="#a"/><linearGradient id="f" x1="-60" y1="201.31" x2="51.67" y2="69.98" xlink:href="#a"/><linearGradient id="g" x1="-61.13" y1="200.35" x2="50.53" y2="69.02" xlink:href="#a"/><linearGradient id="h" x1="-60.82" y1="200.62" x2="50.85" y2="69.28" xlink:href="#a"/><linearGradient id="i" x1="-59.3" y1="201.91" x2="52.37" y2="70.57" xlink:href="#a"/><linearGradient id="j" x1="-56.86" y1="203.99" x2="54.81" y2="72.65" xlink:href="#a"/><linearGradient id="k" x1="-53.66" y1="206.7" x2="58" y2="75.37" xlink:href="#a"/><linearGradient id="l" x1="-49.95" y1="209.86" x2="61.72" y2="78.53" xlink:href="#a"/><linearGradient id="m" x1="-45.97" y1="213.24" x2="65.69" y2="81.91" xlink:href="#a"/><linearGradient id="n" x1="-41.97" y1="216.65" x2="69.7" y2="85.31" xlink:href="#a"/><linearGradient id="o" x1="-38.06" y1="219.97" x2="73.61" y2="88.64" xlink:href="#a"/><linearGradient id="p" x1="-34.51" y1="222.98" x2="77.15" y2="91.65" xlink:href="#a"/><linearGradient id="q" x1="-31.58" y1="225.48" x2="80.08" y2="94.14" xlink:href="#a"/><linearGradient id="r" x1="-29.48" y1="227.27" x2="82.19" y2="95.93" xlink:href="#a"/><linearGradient id="s" x1="-28.34" y1="228.23" x2="83.32" y2="96.9" xlink:href="#a"/><linearGradient id="t" x1="-28.66" y1="227.96" x2="83.01" y2="96.63" xlink:href="#a"/><linearGradient id="u" x1="-30.17" y1="226.67" x2="81.49" y2="95.34" xlink:href="#a"/><linearGradient id="v" x1="-32.62" y1="224.6" x2="79.05" y2="93.26" xlink:href="#a"/><linearGradient id="w" x1="-35.81" y1="221.88" x2="75.86" y2="90.55" xlink:href="#a"/><linearGradient id="x" x1="-39.53" y1="218.72" x2="72.14" y2="87.39" xlink:href="#a"/><linearGradient id="y" x1="-43.5" y1="215.34" x2="68.16" y2="84.01" xlink:href="#a"/><linearGradient id="z" x1="-47.51" y1="211.93" x2="64.16" y2="80.6" xlink:href="#a"/><linearGradient id="aa" x1="-51.42" y1="208.61" x2="60.25" y2="77.28" xlink:href="#a"/><linearGradient id="ac" x1="-53.54" y1="206.8" x2="58.12" y2="75.47" xlink:href="#a"/><linearGradient id="ad" x1="-55.5" y1="205.14" x2="56.16" y2="73.8" xlink:href="#a"/><linearGradient id="ae" x1="-56.99" y1="203.87" x2="54.67" y2="72.54" xlink:href="#a"/><linearGradient id="af" x1="-57.95" y1="203.06" x2="53.72" y2="71.73" xlink:href="#a"/><linearGradient id="ag" x1="-58.33" y1="202.74" x2="53.34" y2="71.4" xlink:href="#a"/><linearGradient id="ah" x1="-58.11" y1="202.92" x2="53.56" y2="71.59" xlink:href="#a"/><linearGradient id="ai" x1="-57.31" y1="203.6" x2="54.36" y2="72.27" xlink:href="#a"/><linearGradient id="aj" x1="-55.96" y1="204.75" x2="55.71" y2="73.42" xlink:href="#a"/><linearGradient id="ak" x1="-54.12" y1="206.32" x2="57.55" y2="74.98" xlink:href="#a"/><linearGradient id="al" x1="-51.87" y1="208.23" x2="59.8" y2="76.9" xlink:href="#a"/><linearGradient id="am" x1="-49.3" y1="210.41" x2="62.36" y2="79.08" xlink:href="#a"/><linearGradient id="an" x1="-46.54" y1="212.76" x2="65.12" y2="81.42" xlink:href="#a"/><linearGradient id="ao" x1="-43.7" y1="215.17" x2="67.97" y2="83.84" xlink:href="#a"/><linearGradient id="ap" x1="-40.91" y1="217.55" x2="70.76" y2="86.22" xlink:href="#a"/><linearGradient id="aq" x1="-38.28" y1="219.78" x2="73.39" y2="88.45" xlink:href="#a"/><linearGradient id="ar" x1="-35.93" y1="221.78" x2="75.73" y2="90.44" xlink:href="#a"/><linearGradient id="as" x1="-33.97" y1="223.44" x2="77.69" y2="92.11" xlink:href="#a"/><linearGradient id="at" x1="-32.48" y1="224.71" x2="79.18" y2="93.38" xlink:href="#a"/><linearGradient id="au" x1="-31.53" y1="225.52" x2="80.14" y2="94.19" xlink:href="#a"/><linearGradient id="av" x1="-31.15" y1="225.84" x2="80.52" y2="94.51" xlink:href="#a"/><linearGradient id="aw" x1="-31.37" y1="225.66" x2="80.3" y2="94.33" xlink:href="#a"/><linearGradient id="ax" x1="-32.17" y1="224.98" x2="79.5" y2="93.64" xlink:href="#a"/><linearGradient id="ay" x1="-33.52" y1="223.83" x2="78.15" y2="92.5" xlink:href="#a"/><linearGradient id="az" x1="-35.36" y1="222.26" x2="76.31" y2="90.93" xlink:href="#a"/><linearGradient id="ba" x1="-37.61" y1="220.35" x2="74.06" y2="89.02" xlink:href="#a"/><linearGradient id="bb" x1="-40.17" y1="218.17" x2="71.49" y2="86.84" xlink:href="#a"/><linearGradient id="bc" x1="-42.93" y1="215.82" x2="68.73" y2="84.49" xlink:href="#a"/><linearGradient id="bd" x1="-45.77" y1="213.41" x2="65.89" y2="82.08" xlink:href="#a"/><linearGradient id="be" x1="-48.57" y1="211.03" x2="63.1" y2="79.7" xlink:href="#a"/><linearGradient id="bf" x1="-51.2" y1="208.8" x2="60.47" y2="77.47" xlink:href="#a"/><linearGradient id="bg" x1="-44.74" y1="214.29" x2="66.93" y2="82.96" xlink:href="#a"/><linearGradient id="bh" x1="-65.41" y1="196.72" x2="46.26" y2="65.38" xlink:href="#a"/><linearGradient id="bi" x1="-67.4" y1="195.02" x2="44.27" y2="63.69" xlink:href="#a"/><linearGradient id="bj" x1="-68.86" y1="193.78" x2="42.81" y2="62.45" xlink:href="#a"/><linearGradient id="bk" x1="-69.74" y1="193.03" x2="41.92" y2="61.7" xlink:href="#a"/><linearGradient id="bl" x1="-69.94" y1="192.86" x2="41.73" y2="61.53" xlink:href="#a"/><linearGradient id="bm" x1="-69.3" y1="193.4" x2="42.36" y2="62.07" xlink:href="#a"/><linearGradient id="bn" x1="-68.08" y1="194.44" x2="43.58" y2="63.11" xlink:href="#a"/><linearGradient id="bo" x1="-66.31" y1="195.95" x2="45.35" y2="64.61" xlink:href="#a"/><linearGradient id="bp" x1="-64.03" y1="197.88" x2="47.63" y2="66.55" xlink:href="#a"/><linearGradient id="bq" x1="-61.31" y1="200.2" x2="50.36" y2="68.87" xlink:href="#a"/><linearGradient id="br" x1="-58.2" y1="202.84" x2="53.46" y2="71.51" xlink:href="#a"/><linearGradient id="bs" x1="-54.79" y1="205.74" x2="56.87" y2="74.41" xlink:href="#a"/><linearGradient id="bt" x1="-51.17" y1="208.82" x2="60.49" y2="77.49" xlink:href="#a"/><linearGradient id="bu" x1="-47.43" y1="212" x2="64.24" y2="80.67" xlink:href="#a"/><linearGradient id="bv" x1="-43.65" y1="215.22" x2="68.02" y2="83.88" xlink:href="#a"/><linearGradient id="bw" x1="-39.88" y1="218.42" x2="71.79" y2="87.09" xlink:href="#a"/><linearGradient id="bx" x1="-36.19" y1="221.56" x2="75.47" y2="90.22" xlink:href="#a"/><linearGradient id="by" x1="-32.68" y1="224.54" x2="78.98" y2="93.21" xlink:href="#a"/><linearGradient id="bz" x1="-29.44" y1="227.3" x2="82.23" y2="95.96" xlink:href="#a"/><linearGradient id="ca" x1="-26.54" y1="229.76" x2="85.12" y2="98.43" xlink:href="#a"/><linearGradient id="cb" x1="-24.07" y1="231.87" x2="87.6" y2="100.53" xlink:href="#a"/><linearGradient id="cc" x1="-22.08" y1="233.56" x2="89.59" y2="102.23" xlink:href="#a"/><linearGradient id="cd" x1="-20.62" y1="234.8" x2="91.05" y2="103.46" xlink:href="#a"/><linearGradient id="ce" x1="-19.73" y1="235.55" x2="91.93" y2="104.22" xlink:href="#a"/><linearGradient id="cf" x1="-19.54" y1="235.72" x2="92.13" y2="104.39" xlink:href="#a"/><linearGradient id="cg" x1="-20.17" y1="235.18" x2="91.49" y2="103.84" xlink:href="#a"/><linearGradient id="ch" x1="-21.39" y1="234.14" x2="90.27" y2="102.81" xlink:href="#a"/><linearGradient id="ci" x1="-23.16" y1="232.63" x2="88.5" y2="101.3" xlink:href="#a"/><linearGradient id="cj" x1="-25.44" y1="230.7" x2="86.23" y2="99.36" xlink:href="#a"/><linearGradient id="ck" x1="-28.17" y1="228.38" x2="83.5" y2="97.05" xlink:href="#a"/><linearGradient id="cl" x1="-31.27" y1="225.74" x2="80.39" y2="94.4" xlink:href="#a"/><linearGradient id="cm" x1="-34.68" y1="222.84" x2="76.99" y2="91.51" xlink:href="#a"/><linearGradient id="cn" x1="-38.3" y1="219.76" x2="73.36" y2="88.43" xlink:href="#a"/><linearGradient id="co" x1="-42.05" y1="216.58" x2="69.62" y2="85.24" xlink:href="#a"/><linearGradient id="cp" x1="-45.83" y1="213.36" x2="65.84" y2="82.03" xlink:href="#a"/><linearGradient id="cq" x1="-49.6" y1="210.16" x2="62.07" y2="78.82" xlink:href="#a"/><linearGradient id="cr" x1="-53.28" y1="207.02" x2="58.38" y2="75.69" xlink:href="#a"/><linearGradient id="cs" x1="-56.79" y1="204.04" x2="54.87" y2="72.71" xlink:href="#a"/><linearGradient id="ct" x1="-60.04" y1="201.28" x2="51.63" y2="69.95" xlink:href="#a"/><linearGradient id="cu" x1="-62.93" y1="198.82" x2="48.73" y2="67.49" xlink:href="#a"/><linearGradient id="cv" x1="-63.39" y1="198.43" x2="48.28" y2="67.1" xlink:href="#a"/><linearGradient id="cw" x1="-65.16" y1="196.92" x2="46.5" y2="65.59" xlink:href="#a"/><linearGradient id="cx" x1="-66.38" y1="195.89" x2="45.29" y2="64.56" xlink:href="#a"/><linearGradient id="cy" x1="-67" y1="195.36" x2="44.67" y2="64.03" xlink:href="#a"/><linearGradient id="cz" x1="-67.01" y1="195.35" x2="44.65" y2="64.02" xlink:href="#a"/><linearGradient id="da" x1="-66.42" y1="195.85" x2="45.24" y2="64.52" xlink:href="#a"/><linearGradient id="db" x1="-65.24" y1="196.86" x2="46.43" y2="65.53" xlink:href="#a"/><linearGradient id="dc" x1="-63.5" y1="198.34" x2="48.17" y2="67.01" xlink:href="#a"/><linearGradient id="dd" x1="-61.24" y1="200.26" x2="50.42" y2="68.92" xlink:href="#a"/><linearGradient id="de" x1="-58.54" y1="202.56" x2="53.13" y2="71.22" xlink:href="#a"/><linearGradient id="df" x1="-55.46" y1="205.18" x2="56.21" y2="73.84" xlink:href="#a"/><linearGradient id="dg" x1="-52.08" y1="208.04" x2="59.58" y2="76.71" xlink:href="#a"/><linearGradient id="dh" x1="-48.51" y1="211.08" x2="63.16" y2="79.75" xlink:href="#a"/><linearGradient id="di" x1="-44.83" y1="214.21" x2="66.83" y2="82.88" xlink:href="#a"/><linearGradient id="dj" x1="-41.15" y1="217.34" x2="70.51" y2="86" xlink:href="#a"/><linearGradient id="dk" x1="-37.57" y1="220.38" x2="74.09" y2="89.05" xlink:href="#a"/><linearGradient id="dl" x1="-34.19" y1="223.26" x2="77.48" y2="91.93" xlink:href="#a"/><linearGradient id="dm" x1="-31.09" y1="225.9" x2="80.58" y2="94.56" xlink:href="#a"/><linearGradient id="dn" x1="-28.36" y1="228.21" x2="83.3" y2="96.88" xlink:href="#a"/><linearGradient id="do" x1="-26.08" y1="230.15" x2="85.58" y2="98.82" xlink:href="#a"/><linearGradient id="dp" x1="-24.31" y1="231.66" x2="87.35" y2="100.32" xlink:href="#a"/><linearGradient id="dq" x1="-23.1" y1="232.69" x2="88.57" y2="101.35" xlink:href="#a"/><linearGradient id="dr" x1="-22.48" y1="233.22" x2="89.19" y2="101.88" xlink:href="#a"/><linearGradient id="ds" x1="-22.46" y1="233.23" x2="89.2" y2="101.9" xlink:href="#a"/><linearGradient id="dt" x1="-23.05" y1="232.73" x2="88.61" y2="101.39" xlink:href="#a"/><linearGradient id="du" x1="-24.24" y1="231.72" x2="87.43" y2="100.39" xlink:href="#a"/><linearGradient id="dv" x1="-25.98" y1="230.24" x2="85.69" y2="98.91" xlink:href="#a"/><linearGradient id="dw" x1="-28.23" y1="228.32" x2="83.43" y2="96.99" xlink:href="#a"/><linearGradient id="dx" x1="-30.94" y1="226.02" x2="80.73" y2="94.69" xlink:href="#a"/><linearGradient id="dy" x1="-34.02" y1="223.4" x2="77.65" y2="92.07" xlink:href="#a"/><linearGradient id="dz" x1="-37.39" y1="220.54" x2="74.27" y2="89.2" xlink:href="#a"/><linearGradient id="ea" x1="-40.97" y1="217.5" x2="70.7" y2="86.16" xlink:href="#a"/><linearGradient id="eb" x1="-44.64" y1="214.37" x2="67.02" y2="83.04" xlink:href="#a"/><linearGradient id="ec" x1="-48.32" y1="211.24" x2="63.35" y2="79.91" xlink:href="#a"/><linearGradient id="ed" x1="-51.9" y1="208.2" x2="59.76" y2="76.87" xlink:href="#a"/><linearGradient id="ee" x1="-55.29" y1="205.32" x2="56.38" y2="73.99" xlink:href="#a"/><linearGradient id="ef" x1="-58.39" y1="202.69" x2="53.28" y2="71.35" xlink:href="#a"/><linearGradient id="eg" x1="-61.11" y1="200.37" x2="50.55" y2="69.03" xlink:href="#a"/><linearGradient id="ek" x1="111.02" y1="154.7" x2="111.02" y2="82.44" xlink:href="#a"/></defs><title>Ver logo color</title><path class="a" d="M7,72.32V.05h29.9a36.08,36.08,0,0,1,9.66,1.29A35.66,35.66,0,0,1,55.24,5a37.51,37.51,0,0,1,7.38,5.68A35.68,35.68,0,0,1,68.35,18,36.53,36.53,0,0,1,72,26.6a35.87,35.87,0,0,1,0,19.21,36.61,36.61,0,0,1-3.68,8.63,35.68,35.68,0,0,1-5.73,7.31A36.37,36.37,0,0,1,46.54,71a36.08,36.08,0,0,1-9.66,1.29Zm29.9-16.55a19.21,19.21,0,0,0,7.59-1.53,20.88,20.88,0,0,0,6.35-4.19,19.8,19.8,0,0,0,4.37-6.23,18.81,18.81,0,0,0,0-15.23,20.24,20.24,0,0,0-4.37-6.25,20.76,20.76,0,0,0-6.35-4.21,19,19,0,0,0-7.59-1.54H23.47V55.77Z"/><path class="b" d="M102.35,58.75a6.57,6.57,0,0,1,1.11-.91,9,9,0,0,1,1.28-.65,4.4,4.4,0,0,1,1.74-.31h30.41V72.32H80.31V64.8a12.11,12.11,0,0,1,3-8.22l30.86-41.1H82.08V0H137.5V7.51a13.17,13.17,0,0,1-.63,4,12,12,0,0,1-1.79,3.56Z"/><path class="c" d="M52.38,118.55h-.52a15.19,15.19,0,1,1-4.45-10.74,15.12,15.12,0,0,1,4.45,10.74h1A16.23,16.23,0,1,0,48.14,130a16.19,16.19,0,0,0,4.76-11.47Z"/><path class="d" d="M34.86,98.52a2.65,2.65,0,0,1,.57-1.67,1.83,1.83,0,0,1,.57-.48,1.41,1.41,0,0,1,1.34,0,1.92,1.92,0,0,1,.8.82,2.71,2.71,0,0,1,.34,1.33h1a3.69,3.69,0,0,0-.8-2.33,2.86,2.86,0,0,0-.91-.75,2.46,2.46,0,0,0-2.28,0,3,3,0,0,0-1.24,1.24,3.78,3.78,0,0,0-.47,1.84Z"/><path class="e" d="M29.74,99.67a3.21,3.21,0,0,1-.1-.74A2.39,2.39,0,0,1,30,97.64a1.62,1.62,0,0,1,.39-.43,1.36,1.36,0,0,1,.5-.24,1.12,1.12,0,0,1,.36,0,1.61,1.61,0,0,1,.6.12,2.11,2.11,0,0,1,.83.62,2.7,2.7,0,0,1,.55,1.08l1-.27a3.77,3.77,0,0,0-1.13-1.85,2.89,2.89,0,0,0-.86-.54,2.62,2.62,0,0,0-1-.2,2.27,2.27,0,0,0-.63.08,2.38,2.38,0,0,0-.86.42,3,3,0,0,0-.86,1.11,3.57,3.57,0,0,0-.3,1.44,4,4,0,0,0,.14,1l1-.27Z"/><path class="f" d="M25.1,102.11a2.78,2.78,0,0,1-.39-1.37,2.16,2.16,0,0,1,.21-.93,1.48,1.48,0,0,1,.58-.61,1.43,1.43,0,0,1,.74-.19,2,2,0,0,1,1.07.33,2.72,2.72,0,0,1,.91,1l.91-.52a4,4,0,0,0-1.27-1.33A3.19,3.19,0,0,0,26.24,98,2.51,2.51,0,0,0,24,99.34a3.07,3.07,0,0,0-.33,1.4,3.88,3.88,0,0,0,.52,1.89l.91-.52Z"/><path class="g" d="M21.24,105.67a2.6,2.6,0,0,1-.8-1.79,1.81,1.81,0,0,1,.11-.63,1.38,1.38,0,0,1,.32-.5,1.61,1.61,0,0,1,.5-.33,1.85,1.85,0,0,1,.63-.11,2.63,2.63,0,0,1,1.79.8l.74-.73A3.63,3.63,0,0,0,22,101.27a2.85,2.85,0,0,0-1,.18,2.41,2.41,0,0,0-.86.56,2.45,2.45,0,0,0-.56.87,2.57,2.57,0,0,0-.18,1,3.59,3.59,0,0,0,1.1,2.52l.74-.73Z"/><path class="h" d="M18.43,110.1a2.78,2.78,0,0,1-1-.92,2,2,0,0,1-.33-1.07,1.48,1.48,0,0,1,.19-.74,1.56,1.56,0,0,1,.62-.57,2,2,0,0,1,.93-.21,2.76,2.76,0,0,1,1.37.38l.52-.9a3.8,3.8,0,0,0-1.89-.52,3.2,3.2,0,0,0-1.41.32,2.48,2.48,0,0,0-1.37,2.24,3.11,3.11,0,0,0,.49,1.63A3.84,3.84,0,0,0,17.91,111l.52-.9Z"/><path class="i" d="M16.86,115.11a2.74,2.74,0,0,1-1.34-.81,2.18,2.18,0,0,1-.36-.57,1.61,1.61,0,0,1-.12-.6,1.57,1.57,0,0,1,.05-.37,1.49,1.49,0,0,1,.24-.49,1.79,1.79,0,0,1,.71-.54,2.34,2.34,0,0,1,1-.21,2.82,2.82,0,0,1,.75.1l.27-1a4,4,0,0,0-1-.13,3.45,3.45,0,0,0-1.86.52,2.76,2.76,0,0,0-.68.64,2.42,2.42,0,0,0-.42.85,2.35,2.35,0,0,0-.09.64,2.57,2.57,0,0,0,.2,1,3.25,3.25,0,0,0,.92,1.24,3.84,3.84,0,0,0,1.48.75l.26-1Z"/><path class="j" d="M16.65,120.35a2.65,2.65,0,0,1-1.68-.56,1.86,1.86,0,0,1-.48-.58,1.46,1.46,0,0,1,0-1.33,2.06,2.06,0,0,1,.82-.81,2.77,2.77,0,0,1,1.34-.33v-1a3.66,3.66,0,0,0-2.34.8,2.79,2.79,0,0,0-.74.9,2.48,2.48,0,0,0,0,2.29,3.08,3.08,0,0,0,1.24,1.24,3.83,3.83,0,0,0,1.84.46v-1Z"/><path class="k" d="M17.8,125.47a2.82,2.82,0,0,1-.75.1,2.33,2.33,0,0,1-1.29-.36,1.79,1.79,0,0,1-.43-.39,1.49,1.49,0,0,1-.24-.49A1.57,1.57,0,0,1,15,124a1.61,1.61,0,0,1,.12-.6,2.41,2.41,0,0,1,.63-.83,2.79,2.79,0,0,1,1.07-.55l-.26-1a3.74,3.74,0,0,0-1.86,1.12,3.16,3.16,0,0,0-.54.87,2.57,2.57,0,0,0-.2,1,2.35,2.35,0,0,0,.09.64,2.42,2.42,0,0,0,.42.85,2.73,2.73,0,0,0,1.1.86,3.47,3.47,0,0,0,1.44.3,4,4,0,0,0,1-.13l-.27-1Z"/><path class="l" d="M20.24,130.12a2.76,2.76,0,0,1-1.37.38,2,2,0,0,1-.93-.21,1.56,1.56,0,0,1-.62-.57,1.48,1.48,0,0,1-.19-.74,2,2,0,0,1,.33-1.07,2.78,2.78,0,0,1,1-.92l-.52-.9a3.84,3.84,0,0,0-1.33,1.26,3.11,3.11,0,0,0-.49,1.63,2.48,2.48,0,0,0,1.37,2.24,3.2,3.2,0,0,0,1.41.32,3.8,3.8,0,0,0,1.89-.52l-.52-.9Z"/><path class="m" d="M23.79,134a2.63,2.63,0,0,1-1.79.8,1.85,1.85,0,0,1-.63-.11,1.61,1.61,0,0,1-.5-.33,1.38,1.38,0,0,1-.32-.5,1.81,1.81,0,0,1-.11-.63,2.6,2.6,0,0,1,.8-1.79l-.74-.73a3.61,3.61,0,0,0-1.1,2.52,2.57,2.57,0,0,0,.18,1,2.45,2.45,0,0,0,.56.87,2.41,2.41,0,0,0,.86.56,2.85,2.85,0,0,0,1,.18,3.63,3.63,0,0,0,2.53-1.11l-.74-.73Z"/><path class="n" d="M28.22,136.79a2.72,2.72,0,0,1-.91,1,2,2,0,0,1-1.07.33,1.43,1.43,0,0,1-.74-.19,1.48,1.48,0,0,1-.58-.61,2.16,2.16,0,0,1-.21-.93A2.78,2.78,0,0,1,25.1,135l-.91-.52a3.88,3.88,0,0,0-.52,1.89,3.07,3.07,0,0,0,.33,1.4,2.51,2.51,0,0,0,2.24,1.38,3.1,3.1,0,0,0,1.62-.49,4,4,0,0,0,1.27-1.33l-.91-.52Z"/><path class="o" d="M33.23,138.35a2.73,2.73,0,0,1-.8,1.34,2.13,2.13,0,0,1-.58.36,1.61,1.61,0,0,1-.6.12,1.12,1.12,0,0,1-.36,0,1.36,1.36,0,0,1-.5-.24,1.83,1.83,0,0,1-.54-.7,2.54,2.54,0,0,1-.21-1,3.21,3.21,0,0,1,.1-.74l-1-.27a4,4,0,0,0-.14,1,3.35,3.35,0,0,0,.53,1.86,2.76,2.76,0,0,0,.63.69,2.38,2.38,0,0,0,.86.42,2.27,2.27,0,0,0,.63.08,2.62,2.62,0,0,0,1-.2,3.14,3.14,0,0,0,1.23-.92,3.81,3.81,0,0,0,.76-1.47l-1-.27Z"/><path class="p" d="M38.48,138.57a2.65,2.65,0,0,1-.57,1.67,1.83,1.83,0,0,1-.57.48,1.41,1.41,0,0,1-1.34,0,1.92,1.92,0,0,1-.8-.82,2.71,2.71,0,0,1-.34-1.33h-1a3.67,3.67,0,0,0,.8,2.33,2.86,2.86,0,0,0,.91.75,2.46,2.46,0,0,0,2.28,0,3,3,0,0,0,1.24-1.24,3.78,3.78,0,0,0,.47-1.84Z"/><path class="q" d="M43.6,137.42a3.21,3.21,0,0,1,.1.74,2.39,2.39,0,0,1-.36,1.29,1.62,1.62,0,0,1-.39.43,1.36,1.36,0,0,1-.5.24,1.12,1.12,0,0,1-.36,0,1.61,1.61,0,0,1-.6-.12,2.11,2.11,0,0,1-.83-.62,2.7,2.7,0,0,1-.55-1.08l-1,.27a3.77,3.77,0,0,0,1.13,1.85,2.89,2.89,0,0,0,.86.54,2.62,2.62,0,0,0,1,.2,2.27,2.27,0,0,0,.63-.08,2.38,2.38,0,0,0,.86-.42,3,3,0,0,0,.86-1.11,3.57,3.57,0,0,0,.3-1.44,4,4,0,0,0-.14-1l-1,.27Z"/><path class="r" d="M48.24,135a2.78,2.78,0,0,1,.39,1.37,2.16,2.16,0,0,1-.21.93,1.48,1.48,0,0,1-.58.61,1.43,1.43,0,0,1-.74.19,2,2,0,0,1-1.07-.33,2.72,2.72,0,0,1-.91-1l-.91.52a4,4,0,0,0,1.27,1.33,3.1,3.1,0,0,0,1.62.49,2.46,2.46,0,0,0,1.26-.34,2.52,2.52,0,0,0,1-1,3.07,3.07,0,0,0,.33-1.4,3.88,3.88,0,0,0-.52-1.89l-.91.52Z"/><path class="s" d="M52.1,131.42a2.6,2.6,0,0,1,.8,1.79,1.81,1.81,0,0,1-.11.63,1.38,1.38,0,0,1-.32.5,1.61,1.61,0,0,1-.5.33,1.85,1.85,0,0,1-.63.11,2.63,2.63,0,0,1-1.79-.8l-.74.73a3.63,3.63,0,0,0,2.53,1.11,2.85,2.85,0,0,0,1-.18,2.41,2.41,0,0,0,.86-.56,2.45,2.45,0,0,0,.56-.87,2.57,2.57,0,0,0,.18-1,3.61,3.61,0,0,0-1.1-2.52l-.74.73Z"/><path class="t" d="M54.91,127a2.78,2.78,0,0,1,1,.92,2,2,0,0,1,.33,1.07,1.48,1.48,0,0,1-.19.74,1.56,1.56,0,0,1-.62.57,2,2,0,0,1-.93.21,2.76,2.76,0,0,1-1.37-.38l-.52.9a3.8,3.8,0,0,0,1.89.52,3.2,3.2,0,0,0,1.41-.32A2.48,2.48,0,0,0,57.25,129a3.11,3.11,0,0,0-.49-1.63,3.84,3.84,0,0,0-1.33-1.26l-.52.9Z"/><path class="u" d="M56.48,122a2.74,2.74,0,0,1,1.34.81,2.48,2.48,0,0,1,.36.57,1.61,1.61,0,0,1,.12.6,1.57,1.57,0,0,1,0,.37,1.49,1.49,0,0,1-.24.49,1.7,1.7,0,0,1-.71.54,2.34,2.34,0,0,1-1,.21,2.82,2.82,0,0,1-.75-.1l-.27,1a4,4,0,0,0,1,.13,3.45,3.45,0,0,0,1.86-.52,2.76,2.76,0,0,0,.68-.64,2.42,2.42,0,0,0,.42-.85,2.35,2.35,0,0,0,.09-.64,2.57,2.57,0,0,0-.2-1,3.14,3.14,0,0,0-.92-1.23,3.72,3.72,0,0,0-1.48-.76l-.26,1Z"/><path class="v" d="M56.69,116.74a2.65,2.65,0,0,1,1.68.56,1.86,1.86,0,0,1,.48.58,1.46,1.46,0,0,1,0,1.33A2.06,2.06,0,0,1,58,120a2.77,2.77,0,0,1-1.34.33v1a3.66,3.66,0,0,0,2.34-.8,2.79,2.79,0,0,0,.74-.9,2.48,2.48,0,0,0,0-2.29,3.08,3.08,0,0,0-1.24-1.24,3.83,3.83,0,0,0-1.84-.46v1Z"/><path class="w" d="M55.54,111.62a2.82,2.82,0,0,1,.75-.1,2.33,2.33,0,0,1,1.29.36,1.79,1.79,0,0,1,.43.39,1.49,1.49,0,0,1,.24.49,1.57,1.57,0,0,1,0,.37,1.61,1.61,0,0,1-.12.6,2.41,2.41,0,0,1-.63.83,2.79,2.79,0,0,1-1.07.55l.26,1A3.74,3.74,0,0,0,58.6,115a3.16,3.16,0,0,0,.54-.87,2.57,2.57,0,0,0,.2-1,2.35,2.35,0,0,0-.09-.64,2.42,2.42,0,0,0-.42-.85,2.73,2.73,0,0,0-1.1-.86,3.47,3.47,0,0,0-1.44-.3,4,4,0,0,0-1,.13l.27,1Z"/><path class="x" d="M53.1,107a2.76,2.76,0,0,1,1.37-.38,2,2,0,0,1,.93.21,1.56,1.56,0,0,1,.62.57,1.48,1.48,0,0,1,.19.74,2,2,0,0,1-.33,1.07,2.78,2.78,0,0,1-1,.92l.52.9a3.84,3.84,0,0,0,1.33-1.26,3.11,3.11,0,0,0,.49-1.63,2.48,2.48,0,0,0-1.37-2.24,3.2,3.2,0,0,0-1.41-.32,3.8,3.8,0,0,0-1.89.52l.52.9Z"/><path class="y" d="M49.55,103.11a2.63,2.63,0,0,1,1.79-.8,1.75,1.75,0,0,1,.62.11,1.54,1.54,0,0,1,.51.33,1.38,1.38,0,0,1,.32.5,1.81,1.81,0,0,1,.11.63,2.6,2.6,0,0,1-.8,1.79l.74.73a3.59,3.59,0,0,0,1.1-2.52,2.57,2.57,0,0,0-.18-1,2.45,2.45,0,0,0-.56-.87,2.41,2.41,0,0,0-.86-.56,2.85,2.85,0,0,0-1-.18,3.63,3.63,0,0,0-2.53,1.11l.74.73Z"/><path class="z" d="M45.12,100.3a2.72,2.72,0,0,1,.91-1A2,2,0,0,1,47.1,99a1.46,1.46,0,0,1,.74.19,1.48,1.48,0,0,1,.58.61,2.16,2.16,0,0,1,.21.93,2.78,2.78,0,0,1-.39,1.37l.91.52a3.88,3.88,0,0,0,.52-1.89,3.07,3.07,0,0,0-.33-1.4A2.51,2.51,0,0,0,47.1,98a3.19,3.19,0,0,0-1.62.49,4,4,0,0,0-1.27,1.33l.91.52Z"/><path class="aa" d="M40.11,98.74a2.73,2.73,0,0,1,.8-1.34,2,2,0,0,1,.58-.36,1.61,1.61,0,0,1,.6-.12,1.12,1.12,0,0,1,.36,0,1.36,1.36,0,0,1,.5.24,1.83,1.83,0,0,1,.54.7,2.54,2.54,0,0,1,.21,1,3.21,3.21,0,0,1-.1.74l1,.27a4,4,0,0,0,.14-1,3.35,3.35,0,0,0-.53-1.86,2.76,2.76,0,0,0-.63-.69,2.38,2.38,0,0,0-.86-.42,2.27,2.27,0,0,0-.63-.08,2.62,2.62,0,0,0-1,.2,3.14,3.14,0,0,0-1.23.92,3.81,3.81,0,0,0-.76,1.47l1,.27Z"/><path class="c" d="M56.67,118.55h-.52a19.48,19.48,0,1,1-5.71-13.78,19.4,19.4,0,0,1,5.71,13.78h1a20.52,20.52,0,1,0-6,14.5,20.46,20.46,0,0,0,6-14.5Z"/><circle class="ab" cx="36.67" cy="100.7" r="1.25"/><path class="ac" d="M34.19,100.83a1.26,1.26,0,0,1-1,1.49,1.25,1.25,0,1,1,1-1.49Z"/><path class="ad" d="M30.56,101.74a1.25,1.25,0,1,1-1.66-.64A1.25,1.25,0,0,1,30.56,101.74Z"/><path class="ae" d="M27.2,103.37a1.26,1.26,0,1,1-1.75-.27A1.26,1.26,0,0,1,27.2,103.37Z"/><path class="af" d="M24.25,105.68a1.25,1.25,0,0,1-1.68,1.86,1.25,1.25,0,0,1,1.68-1.86Z"/><path class="ag" d="M21.84,108.54a1.25,1.25,0,1,1-1.71.46A1.25,1.25,0,0,1,21.84,108.54Z"/><path class="ah" d="M20.09,111.84a1.25,1.25,0,0,1-.78,2.38,1.25,1.25,0,1,1,.78-2.38Z"/><path class="ai" d="M19.06,115.43a1.26,1.26,0,1,1-1.38,1.12A1.26,1.26,0,0,1,19.06,115.43Z"/><path class="aj" d="M18.79,119.16a1.26,1.26,0,1,1-1.11,1.38A1.26,1.26,0,0,1,18.79,119.16Z"/><path class="ak" d="M19.31,122.87a1.25,1.25,0,0,1,.78,2.38,1.25,1.25,0,0,1-.78-2.38Z"/><path class="al" d="M20.59,126.38a1.25,1.25,0,1,1-.46,1.71A1.25,1.25,0,0,1,20.59,126.38Z"/><path class="am" d="M22.57,129.55a1.25,1.25,0,1,1-.09,1.77A1.25,1.25,0,0,1,22.57,129.55Z"/><path class="an" d="M25.17,132.24a1.26,1.26,0,1,1,.28,1.75A1.25,1.25,0,0,1,25.17,132.24Z"/><path class="ao" d="M28.27,134.34A1.25,1.25,0,1,1,28.9,136,1.25,1.25,0,0,1,28.27,134.34Z"/><path class="ap" d="M31.74,135.74a1.25,1.25,0,0,1,1.48-1,1.25,1.25,0,1,1-.52,2.45A1.24,1.24,0,0,1,31.74,135.74Z"/><circle class="aq" cx="36.67" cy="136.39" r="1.25"/><path class="ar" d="M39.15,136.26a1.26,1.26,0,0,1,1-1.49,1.25,1.25,0,1,1-1,1.49Z"/><path class="as" d="M42.78,135.35a1.25,1.25,0,1,1,1.66.64A1.25,1.25,0,0,1,42.78,135.35Z"/><path class="at" d="M46.14,133.72a1.26,1.26,0,1,1,1.75.27A1.26,1.26,0,0,1,46.14,133.72Z"/><path class="au" d="M49.09,131.41a1.25,1.25,0,0,1,1.68-1.86,1.26,1.26,0,0,1,.09,1.77A1.24,1.24,0,0,1,49.09,131.41Z"/><path class="av" d="M51.5,128.55a1.25,1.25,0,1,1,1.71-.46A1.25,1.25,0,0,1,51.5,128.55Z"/><path class="aw" d="M53.25,125.25a1.25,1.25,0,0,1,.78-2.38,1.25,1.25,0,1,1-.78,2.38Z"/><path class="ax" d="M54.28,121.66a1.26,1.26,0,1,1,1.38-1.12A1.26,1.26,0,0,1,54.28,121.66Z"/><path class="ay" d="M54.54,117.93a1.26,1.26,0,1,1,1.12-1.38A1.25,1.25,0,0,1,54.54,117.93Z"/><path class="az" d="M54,114.22a1.25,1.25,0,0,1-.78-2.38,1.25,1.25,0,1,1,.78,2.38Z"/><path class="ba" d="M52.75,110.71a1.25,1.25,0,1,1,.46-1.71A1.25,1.25,0,0,1,52.75,110.71Z"/><path class="bb" d="M50.77,107.54a1.25,1.25,0,1,1,.09-1.77A1.25,1.25,0,0,1,50.77,107.54Z"/><path class="bc" d="M48.17,104.85a1.26,1.26,0,1,1-.28-1.75A1.25,1.25,0,0,1,48.17,104.85Z"/><path class="bd" d="M45.07,102.75a1.25,1.25,0,1,1-.63-1.65A1.25,1.25,0,0,1,45.07,102.75Z"/><path class="be" d="M41.6,101.35a1.25,1.25,0,0,1-1.48,1,1.25,1.25,0,1,1,.52-2.45A1.24,1.24,0,0,1,41.6,101.35Z"/><path class="bf" d="M36.67,107.42a11.13,11.13,0,1,0,11.12,11.13A11.12,11.12,0,0,0,36.67,107.42Zm0,14a2.93,2.93,0,1,1,2.93-2.92A2.93,2.93,0,0,1,36.67,121.47Z"/><path class="bg" d="M26.17,88.76A2.53,2.53,0,0,1,26.24,87a1.73,1.73,0,0,1,.41-.6,1.42,1.42,0,0,1,.58-.34,1.51,1.51,0,0,1,.67,0,2,2,0,0,1,1,.55,2.67,2.67,0,0,1,.68,1.16l1-.28a3.56,3.56,0,0,0-1.38-2,2.79,2.79,0,0,0-1.05-.45,2.5,2.5,0,0,0-1.15.05,2.39,2.39,0,0,0-1,.57,2.92,2.92,0,0,0-.82,1.5A3.65,3.65,0,0,0,25.19,89l1-.28Z"/><path class="bh" d="M21.64,90.77a2.5,2.5,0,0,1-.16-.43,2.34,2.34,0,0,1,0-1.46,1.64,1.64,0,0,1,.31-.55,1.29,1.29,0,0,1,.47-.36l.2-.08a1.43,1.43,0,0,1,.62,0,2.06,2.06,0,0,1,1,.43,2.71,2.71,0,0,1,.77,1l.92-.43a3.56,3.56,0,0,0-1.51-1.64,2.76,2.76,0,0,0-1-.34,2.5,2.5,0,0,0-1.05.07,3,3,0,0,0-.35.13,2.33,2.33,0,0,0-.8.62A2.83,2.83,0,0,0,20.4,89a3.76,3.76,0,0,0,.1,1.59,4.45,4.45,0,0,0,.22.57l.92-.43Z"/><path class="bi" d="M17.48,93.46a2.73,2.73,0,0,1-.38-.79,2.21,2.21,0,0,1,0-1.22,1.5,1.5,0,0,1,.59-.85,1.18,1.18,0,0,1,.39-.19,1.85,1.85,0,0,1,1.21.11,2.75,2.75,0,0,1,1.13,1l.84-.57a3.72,3.72,0,0,0-1.57-1.32,2.81,2.81,0,0,0-1.89-.15,2.42,2.42,0,0,0-1.67,1.73,3.18,3.18,0,0,0,0,1.78A3.67,3.67,0,0,0,16.64,94l.84-.57Z"/><path class="bj" d="M13.79,96.77a2.62,2.62,0,0,1-.64-1.09,2.15,2.15,0,0,1-.05-1,1.5,1.5,0,0,1,.42-.76,1.35,1.35,0,0,1,.58-.33,1.88,1.88,0,0,1,1.12,0,2.65,2.65,0,0,1,1.13.73l.74-.7a3.66,3.66,0,0,0-1.56-1,3,3,0,0,0-1.72,0,2.3,2.3,0,0,0-1,.56,2.42,2.42,0,0,0-.72,1.29A3.14,3.14,0,0,0,12.18,96a3.8,3.8,0,0,0,.87,1.51l.74-.7Z"/><path class="bk" d="M10.66,100.62a2.62,2.62,0,0,1-.92-1.32,2,2,0,0,1-.07-.79,1.4,1.4,0,0,1,1-1.17,2.1,2.1,0,0,1,1,0,2.8,2.8,0,0,1,1.08.51l.62-.8a3.77,3.77,0,0,0-1.49-.7,3.12,3.12,0,0,0-1.52,0,2.48,2.48,0,0,0-1.28.86,2.45,2.45,0,0,0-.48,1.14,3,3,0,0,0,.09,1.22A3.65,3.65,0,0,0,10,101.42l.62-.8Z"/><path class="bl" d="M8.18,104.91a2.55,2.55,0,0,1-1.24-1.46,1.66,1.66,0,0,1-.06-.62,1.43,1.43,0,0,1,.16-.56,1.49,1.49,0,0,1,.39-.44,1.57,1.57,0,0,1,.55-.27,2.5,2.5,0,0,1,1.89.26l.49-.89a3.46,3.46,0,0,0-2.66-.34,2.74,2.74,0,0,0-.89.44,2.29,2.29,0,0,0-.65.76,2.23,2.23,0,0,0-.29,1,2.71,2.71,0,0,0,.1,1,3.54,3.54,0,0,0,1.72,2.07l.49-.89Z"/><path class="bm" d="M6.4,109.53a2.65,2.65,0,0,1-1-.64,2,2,0,0,1-.53-.87,1.49,1.49,0,0,1,0-.91,1.46,1.46,0,0,1,.42-.59,1.69,1.69,0,0,1,.7-.38,2.64,2.64,0,0,1,1.61.08l.34-1a3.64,3.64,0,0,0-2.23-.09,2.87,2.87,0,0,0-1.09.58,2.37,2.37,0,0,0-.7,1,2.5,2.5,0,0,0,0,1.53,3.12,3.12,0,0,0,.79,1.31,3.89,3.89,0,0,0,1.39.88l.35-1Z"/><path class="bn" d="M5.36,114.38a2.66,2.66,0,0,1-1.22-.57,1.94,1.94,0,0,1-.64-.92,1.34,1.34,0,0,1,0-.66,1.4,1.4,0,0,1,.42-.77,2,2,0,0,1,.87-.49,2.64,2.64,0,0,1,1.26,0l.19-1a3.75,3.75,0,0,0-1.74.08,3,3,0,0,0-1.29.74,2.42,2.42,0,0,0-.71,1.3,2.39,2.39,0,0,0,.06,1.13,2.91,2.91,0,0,0,1,1.42,3.75,3.75,0,0,0,1.68.79l.19-1Z"/><path class="bo" d="M5.09,119.33a2.74,2.74,0,0,1-1.41-.44,1.83,1.83,0,0,1-.74-1,1.24,1.24,0,0,1,0-.43,1.47,1.47,0,0,1,.4-1,2.28,2.28,0,0,1,1-.64,3.06,3.06,0,0,1,.87-.1l0-1a3.82,3.82,0,0,0-1.18.15,3.34,3.34,0,0,0-1.52.93,2.51,2.51,0,0,0-.66,1.6,2.32,2.32,0,0,0,.1.74,2.76,2.76,0,0,0,1.14,1.51,3.64,3.64,0,0,0,1.95.62l0-1Z"/><path class="bp" d="M5.6,124.26A2.63,2.63,0,0,1,4,124a1.93,1.93,0,0,1-.54-.43,1.52,1.52,0,0,1-.3-.54,1.55,1.55,0,0,1,0-.21,1.3,1.3,0,0,1,0-.59,1.87,1.87,0,0,1,.53-.81,2.47,2.47,0,0,1,1-.54,2.16,2.16,0,0,1,.44-.1l-.13-1a3.86,3.86,0,0,0-.59.12A3.45,3.45,0,0,0,2.69,121a2.82,2.82,0,0,0-.47.89,2.45,2.45,0,0,0-.09,1,2.21,2.21,0,0,0,.08.37,2.43,2.43,0,0,0,.5.92,3,3,0,0,0,1.32.88,3.7,3.7,0,0,0,1.7.17l-.13-1Z"/><path class="bq" d="M6.88,129.05A2.62,2.62,0,0,1,5.16,129a2.1,2.1,0,0,1-.61-.41,1.35,1.35,0,0,1-.33-.58,1.38,1.38,0,0,1,0-.67,2,2,0,0,1,.55-1,2.66,2.66,0,0,1,1.16-.67l-.29-1a3.63,3.63,0,0,0-2,1.39,2.91,2.91,0,0,0-.45,1,2.42,2.42,0,0,0,.63,2.15,3,3,0,0,0,1.5.82A3.61,3.61,0,0,0,7.16,130l-.28-1Z"/><path class="br" d="M8.89,133.58a3.61,3.61,0,0,1-.42.16,2.52,2.52,0,0,1-1.47,0,2,2,0,0,1-.55-.31,1.51,1.51,0,0,1-.36-.47,1.59,1.59,0,0,1-.07-.2,1.44,1.44,0,0,1,0-.62,2,2,0,0,1,.43-1,2.63,2.63,0,0,1,1-.77L7,129.47A3.7,3.7,0,0,0,5.31,131,3,3,0,0,0,5,132,2.48,2.48,0,0,0,5,133a2.13,2.13,0,0,0,.14.35,2.34,2.34,0,0,0,.61.81,2.86,2.86,0,0,0,1.37.62,3.45,3.45,0,0,0,1.59-.1,4.37,4.37,0,0,0,.57-.21l-.43-.92Z"/><path class="bs" d="M11.58,137.74a2.58,2.58,0,0,1-.79.37,2.21,2.21,0,0,1-1.22,0,1.52,1.52,0,0,1-.85-.58,1.59,1.59,0,0,1-.18-.4,1.76,1.76,0,0,1,.11-1.2,2.61,2.61,0,0,1,.95-1.13L9,134a3.61,3.61,0,0,0-1.32,1.57,2.6,2.6,0,0,0,.17,2.57,2.58,2.58,0,0,0,1.42,1,3.27,3.27,0,0,0,1.78,0,3.88,3.88,0,0,0,1.07-.51l-.57-.84Z"/><path class="bt" d="M14.9,141.43a2.8,2.8,0,0,1-1.1.63,2,2,0,0,1-1,.05,1.36,1.36,0,0,1-.77-.42,1.4,1.4,0,0,1-.32-.57,2,2,0,0,1,0-1.13,2.88,2.88,0,0,1,.73-1.13l-.69-.74a3.7,3.7,0,0,0-1,1.57,2.94,2.94,0,0,0,0,1.71,2.51,2.51,0,0,0,.56,1,2.6,2.6,0,0,0,1.29.72,3.19,3.19,0,0,0,1.5-.07,3.83,3.83,0,0,0,1.5-.87l-.69-.74Z"/><path class="bu" d="M18.74,144.55a2.58,2.58,0,0,1-1.31.93,1.85,1.85,0,0,1-.8.06,1.4,1.4,0,0,1-.66-.28,1.45,1.45,0,0,1-.51-.76,2.06,2.06,0,0,1,0-1,2.73,2.73,0,0,1,.52-1.09l-.8-.62a3.79,3.79,0,0,0-.71,1.49,3.16,3.16,0,0,0,0,1.53,2.48,2.48,0,0,0,.85,1.27,2.39,2.39,0,0,0,1.14.48,2.85,2.85,0,0,0,1.23-.09,3.58,3.58,0,0,0,1.83-1.28l-.8-.62Z"/><path class="bv" d="M23,147a2.53,2.53,0,0,1-1.46,1.23,1.88,1.88,0,0,1-.61.07,1.41,1.41,0,0,1-1-.55,2,2,0,0,1-.28-.56,2.56,2.56,0,0,1,.26-1.89l-.88-.49a3.53,3.53,0,0,0-.35,2.67,2.6,2.6,0,0,0,.44.88,2.42,2.42,0,0,0,.76.66,2.38,2.38,0,0,0,1,.29,2.76,2.76,0,0,0,1-.1,3.57,3.57,0,0,0,2.06-1.73L23,147Z"/><path class="bw" d="M27.66,148.82a2.73,2.73,0,0,1-.64,1,2.07,2.07,0,0,1-.88.54,1.41,1.41,0,0,1-1.5-.43,2,2,0,0,1-.37-.7,2.63,2.63,0,0,1,.07-1.61l-.95-.35a3.6,3.6,0,0,0-.1,2.24,3.05,3.05,0,0,0,.58,1.08,2.54,2.54,0,0,0,1,.71,2.46,2.46,0,0,0,1.54,0,3,3,0,0,0,1.3-.79,3.68,3.68,0,0,0,.88-1.39l-.95-.34Z"/><path class="bx" d="M32.5,149.86a2.65,2.65,0,0,1-.56,1.22,1.91,1.91,0,0,1-.93.63,1.35,1.35,0,0,1-.66,0,1.44,1.44,0,0,1-.76-.42,2.12,2.12,0,0,1-.5-.87A2.78,2.78,0,0,1,29,149.2l-1-.19a3.59,3.59,0,0,0,.07,1.73,3.05,3.05,0,0,0,.74,1.3,2.39,2.39,0,0,0,2.43.65,2.9,2.9,0,0,0,1.43-1,3.73,3.73,0,0,0,.78-1.68l-1-.19Z"/><path class="by" d="M37.45,150.12a2.6,2.6,0,0,1-.44,1.42,1.81,1.81,0,0,1-1,.73,1.54,1.54,0,0,1-.43.06,1.47,1.47,0,0,1-.95-.4,2.3,2.3,0,0,1-.63-1.05,2.73,2.73,0,0,1-.11-.87l-1,0a3.82,3.82,0,0,0,.15,1.18,3.24,3.24,0,0,0,.92,1.52,2.53,2.53,0,0,0,1.6.66,2.34,2.34,0,0,0,.75-.09,2.81,2.81,0,0,0,1.51-1.14,3.73,3.73,0,0,0,.62-2l-1,0Z"/><path class="bz" d="M42.38,149.61a2.6,2.6,0,0,1-.27,1.58,2,2,0,0,1-.43.54,1.56,1.56,0,0,1-.55.3l-.21.05a1.47,1.47,0,0,1-.59-.06,1.71,1.71,0,0,1-.8-.53,2.45,2.45,0,0,1-.55-1,3.26,3.26,0,0,1-.09-.45l-1,.13a3.75,3.75,0,0,0,.13.6,3.4,3.4,0,0,0,1.14,1.74A2.5,2.5,0,0,0,40,153a2.34,2.34,0,0,0,1,.09,2.41,2.41,0,0,0,.37-.07,2.53,2.53,0,0,0,.92-.51,3,3,0,0,0,.88-1.31,3.74,3.74,0,0,0,.17-1.71l-1,.13Z"/><path class="ca" d="M47.17,148.33a2.53,2.53,0,0,1-.07,1.73,1.73,1.73,0,0,1-.41.6,1.42,1.42,0,0,1-.58.34,1.51,1.51,0,0,1-.67,0,2,2,0,0,1-1-.55,2.67,2.67,0,0,1-.68-1.16l-1,.28a3.56,3.56,0,0,0,1.38,2,2.79,2.79,0,0,0,1,.45A2.5,2.5,0,0,0,46.4,152a2.39,2.39,0,0,0,1-.57,2.92,2.92,0,0,0,.82-1.5,3.65,3.65,0,0,0-.06-1.85l-1,.28Z"/><path class="cb" d="M51.7,146.32a2.5,2.5,0,0,1,.16.43,2.34,2.34,0,0,1,0,1.46,1.64,1.64,0,0,1-.31.55,1.29,1.29,0,0,1-.47.36l-.2.08a1.43,1.43,0,0,1-.62,0,2.06,2.06,0,0,1-1-.43,2.71,2.71,0,0,1-.77-1l-.92.43a3.56,3.56,0,0,0,1.51,1.64,2.76,2.76,0,0,0,1,.34,2.5,2.5,0,0,0,1-.07,3,3,0,0,0,.35-.13,2.33,2.33,0,0,0,.8-.62,2.83,2.83,0,0,0,.63-1.37,3.76,3.76,0,0,0-.1-1.59,4.45,4.45,0,0,0-.22-.57l-.92.43Z"/><path class="cc" d="M55.86,143.63a2.73,2.73,0,0,1,.38.79,2.21,2.21,0,0,1,0,1.22,1.47,1.47,0,0,1-.59.85,1.18,1.18,0,0,1-.39.19,1.85,1.85,0,0,1-1.21-.11,2.75,2.75,0,0,1-1.13-1l-.84.57a3.72,3.72,0,0,0,1.57,1.32,2.81,2.81,0,0,0,1.89.15,2.42,2.42,0,0,0,1.67-1.73,3.18,3.18,0,0,0,0-1.78,3.94,3.94,0,0,0-.51-1.08l-.84.57Z"/><path class="cd" d="M59.55,140.32a2.62,2.62,0,0,1,.64,1.09,2.15,2.15,0,0,1,.05,1,1.5,1.5,0,0,1-.42.76,1.35,1.35,0,0,1-.58.33,1.88,1.88,0,0,1-1.12,0,2.65,2.65,0,0,1-1.13-.73l-.74.7a3.66,3.66,0,0,0,1.56,1,3,3,0,0,0,1.72,0,2.3,2.3,0,0,0,1-.56,2.42,2.42,0,0,0,.72-1.29,3.14,3.14,0,0,0-.07-1.49,3.8,3.8,0,0,0-.87-1.51l-.74.7Z"/><path class="ce" d="M62.68,136.47a2.62,2.62,0,0,1,.92,1.32,2,2,0,0,1,.07.79,1.4,1.4,0,0,1-1,1.17,2.1,2.1,0,0,1-1,0,2.8,2.8,0,0,1-1.08-.51l-.62.8a3.77,3.77,0,0,0,1.49.7,3.12,3.12,0,0,0,1.52,0,2.48,2.48,0,0,0,1.28-.86,2.45,2.45,0,0,0,.48-1.14,3,3,0,0,0-.09-1.22,3.65,3.65,0,0,0-1.28-1.84l-.62.8Z"/><path class="cf" d="M65.16,132.18a2.55,2.55,0,0,1,1.24,1.46,1.66,1.66,0,0,1,.06.62,1.43,1.43,0,0,1-.16.56,1.49,1.49,0,0,1-.39.44,1.57,1.57,0,0,1-.55.27,2.5,2.5,0,0,1-1.89-.26l-.49.89a3.46,3.46,0,0,0,2.66.34,2.74,2.74,0,0,0,.89-.44,2.29,2.29,0,0,0,.65-.76,2.23,2.23,0,0,0,.29-1,2.71,2.71,0,0,0-.1-1,3.54,3.54,0,0,0-1.72-2.07l-.49.89Z"/><path class="cg" d="M66.94,127.56a2.65,2.65,0,0,1,1,.64,2,2,0,0,1,.53.87,1.49,1.49,0,0,1,0,.91,1.46,1.46,0,0,1-.42.59,1.69,1.69,0,0,1-.7.38,2.64,2.64,0,0,1-1.61-.08l-.34,1a3.64,3.64,0,0,0,2.23.09,2.87,2.87,0,0,0,1.09-.58,2.37,2.37,0,0,0,.7-1,2.5,2.5,0,0,0,0-1.53,3.18,3.18,0,0,0-.79-1.31,3.89,3.89,0,0,0-1.39-.88l-.35,1Z"/><path class="ch" d="M68,122.71a2.66,2.66,0,0,1,1.22.57,1.94,1.94,0,0,1,.64.92,1.34,1.34,0,0,1,0,.66,1.4,1.4,0,0,1-.42.77,2,2,0,0,1-.87.49,2.64,2.64,0,0,1-1.26,0l-.19,1a3.75,3.75,0,0,0,1.74-.08,3,3,0,0,0,1.29-.74,2.42,2.42,0,0,0,.71-1.3,2.39,2.39,0,0,0-.06-1.13,2.91,2.91,0,0,0-1-1.42,3.63,3.63,0,0,0-1.68-.78l-.19,1Z"/><path class="ci" d="M68.25,117.76a2.74,2.74,0,0,1,1.41.44,1.83,1.83,0,0,1,.74,1,1.24,1.24,0,0,1,0,.43,1.47,1.47,0,0,1-.4,1,2.28,2.28,0,0,1-1,.64,3.06,3.06,0,0,1-.87.1l0,1a3.82,3.82,0,0,0,1.18-.15,3.34,3.34,0,0,0,1.52-.93,2.51,2.51,0,0,0,.66-1.6,2.32,2.32,0,0,0-.1-.74,2.76,2.76,0,0,0-1.14-1.51,3.64,3.64,0,0,0-2-.62l0,1Z"/><path class="cj" d="M67.74,112.83a2.63,2.63,0,0,1,1.58.28,1.93,1.93,0,0,1,.54.43,1.52,1.52,0,0,1,.3.54,1.55,1.55,0,0,1,0,.21,1.3,1.3,0,0,1,0,.59,1.87,1.87,0,0,1-.53.81,2.47,2.47,0,0,1-1,.54,2.16,2.16,0,0,1-.44.1l.13,1a3.86,3.86,0,0,0,.59-.12,3.45,3.45,0,0,0,1.75-1.14,2.82,2.82,0,0,0,.47-.89,2.45,2.45,0,0,0,.09-1,2.21,2.21,0,0,0-.08-.37,2.43,2.43,0,0,0-.5-.92,3,3,0,0,0-1.32-.88,3.7,3.7,0,0,0-1.7-.17l.13,1Z"/><path class="ck" d="M66.46,108a2.62,2.62,0,0,1,1.72.07,2.1,2.1,0,0,1,.61.41,1.35,1.35,0,0,1,.33.58,1.38,1.38,0,0,1,0,.67,2,2,0,0,1-.55,1,2.66,2.66,0,0,1-1.16.67l.29,1a3.63,3.63,0,0,0,2-1.39,2.91,2.91,0,0,0,.45-1,2.42,2.42,0,0,0-.63-2.15A3,3,0,0,0,68,107a3.73,3.73,0,0,0-1.84.07l.28,1Z"/><path class="cl" d="M64.45,103.51a3.61,3.61,0,0,1,.42-.16,2.52,2.52,0,0,1,1.47,0,2,2,0,0,1,.55.31,1.51,1.51,0,0,1,.36.47,1.59,1.59,0,0,1,.07.2,1.44,1.44,0,0,1,0,.62,2,2,0,0,1-.43,1,2.63,2.63,0,0,1-1,.77l.43.92A3.7,3.7,0,0,0,68,106.1a3,3,0,0,0,.34-1,2.48,2.48,0,0,0-.07-1,2.13,2.13,0,0,0-.14-.35,2.34,2.34,0,0,0-.61-.81,2.86,2.86,0,0,0-1.37-.62,3.45,3.45,0,0,0-1.59.1,3.9,3.9,0,0,0-.57.21l.43.92Z"/><path class="cm" d="M61.76,99.35a2.58,2.58,0,0,1,.79-.37,2.21,2.21,0,0,1,1.22,0,1.49,1.49,0,0,1,.85.59,1.38,1.38,0,0,1,.18.39,1.76,1.76,0,0,1-.11,1.2,2.61,2.61,0,0,1-.95,1.13l.57.84a3.61,3.61,0,0,0,1.32-1.57,2.93,2.93,0,0,0,.15-1.89,2.8,2.8,0,0,0-.32-.68A2.58,2.58,0,0,0,64,98a3.27,3.27,0,0,0-1.78,0,3.88,3.88,0,0,0-1.07.51l.57.84Z"/><path class="cn" d="M58.44,95.66a2.8,2.8,0,0,1,1.1-.63,2,2,0,0,1,1,0,1.36,1.36,0,0,1,.77.42,1.4,1.4,0,0,1,.32.57,2,2,0,0,1,0,1.13,2.88,2.88,0,0,1-.73,1.13l.69.74a3.7,3.7,0,0,0,1-1.57,2.94,2.94,0,0,0,.05-1.71A2.39,2.39,0,0,0,60.75,94a3.06,3.06,0,0,0-1.5.06,3.83,3.83,0,0,0-1.5.87l.69.74Z"/><path class="co" d="M54.6,92.54a2.58,2.58,0,0,1,1.31-.93,1.85,1.85,0,0,1,.8-.06,1.4,1.4,0,0,1,.66.28,1.49,1.49,0,0,1,.51.76,2.06,2.06,0,0,1,0,1,2.73,2.73,0,0,1-.52,1.09l.8.62a3.79,3.79,0,0,0,.71-1.49,3.16,3.16,0,0,0,0-1.53,2.41,2.41,0,0,0-2-1.75,2.85,2.85,0,0,0-1.23.09,3.58,3.58,0,0,0-1.83,1.28l.8.62Z"/><path class="cp" d="M50.31,90.05a2.53,2.53,0,0,1,1.46-1.23,1.85,1.85,0,0,1,.61-.07,1.41,1.41,0,0,1,1,.55,2,2,0,0,1,.28.56,2.56,2.56,0,0,1-.26,1.89l.88.49a3.53,3.53,0,0,0,.35-2.67,2.6,2.6,0,0,0-.44-.88,2.42,2.42,0,0,0-.76-.66,2.38,2.38,0,0,0-1-.29,2.56,2.56,0,0,0-1,.11,3.52,3.52,0,0,0-2.06,1.72l.89.48Z"/><path class="cq" d="M45.68,88.27a2.73,2.73,0,0,1,.64-1,2.07,2.07,0,0,1,.88-.54,1.41,1.41,0,0,1,1.5.43,2,2,0,0,1,.37.7A2.63,2.63,0,0,1,49,89.46l1,.35a3.6,3.6,0,0,0,.1-2.24,3.05,3.05,0,0,0-.58-1.08,2.54,2.54,0,0,0-1-.71,2.46,2.46,0,0,0-1.54,0,3,3,0,0,0-1.3.79,3.68,3.68,0,0,0-.88,1.39l1,.34Z"/><path class="cr" d="M40.84,87.23A2.65,2.65,0,0,1,41.4,86a1.91,1.91,0,0,1,.93-.63,1.35,1.35,0,0,1,.66,0,1.44,1.44,0,0,1,.76.42,2.12,2.12,0,0,1,.5.87,2.78,2.78,0,0,1,0,1.26l1,.19a3.59,3.59,0,0,0-.07-1.73,3.05,3.05,0,0,0-.74-1.3,2.44,2.44,0,0,0-1.3-.7,2.39,2.39,0,0,0-1.13.05,2.9,2.9,0,0,0-1.43,1A3.73,3.73,0,0,0,39.84,87l1,.19Z"/><path class="cs" d="M35.89,87a2.6,2.6,0,0,1,.44-1.42,1.81,1.81,0,0,1,1-.73,1.54,1.54,0,0,1,.43-.06,1.47,1.47,0,0,1,1,.4,2.3,2.3,0,0,1,.63,1,2.73,2.73,0,0,1,.11.87l1,0a3.82,3.82,0,0,0-.15-1.18,3.24,3.24,0,0,0-.92-1.52,2.53,2.53,0,0,0-1.6-.66,2.34,2.34,0,0,0-.75.09A2.81,2.81,0,0,0,35.49,85a3.73,3.73,0,0,0-.62,2l1,0Z"/><path class="ct" d="M31,87.48a2.6,2.6,0,0,1,.27-1.58,2,2,0,0,1,.43-.54,1.56,1.56,0,0,1,.55-.3l.21,0a1.47,1.47,0,0,1,.59.06,1.71,1.71,0,0,1,.8.53,2.45,2.45,0,0,1,.55,1,3.26,3.26,0,0,1,.09.45l1-.13a3.75,3.75,0,0,0-.13-.6,3.4,3.4,0,0,0-1.14-1.74,2.5,2.5,0,0,0-.88-.47,2.34,2.34,0,0,0-1-.09,2.41,2.41,0,0,0-.37.07,2.53,2.53,0,0,0-.92.51,3,3,0,0,0-.88,1.31A3.74,3.74,0,0,0,30,87.61l1-.13Z"/><circle class="cu" cx="28.48" cy="90.38" r="1.22"/><path class="cv" d="M25.05,91.59A1.22,1.22,0,1,1,23.42,91,1.21,1.21,0,0,1,25.05,91.59Z"/><path class="cw" d="M20.77,93.87a1.22,1.22,0,1,1-1.7-.3A1.22,1.22,0,0,1,20.77,93.87Z"/><path class="cx" d="M16.93,96.82a1.22,1.22,0,1,1-1.73,0A1.23,1.23,0,0,1,16.93,96.82Z"/><path class="cy" d="M13.62,100.37a1.22,1.22,0,1,1-1.7.27A1.22,1.22,0,0,1,13.62,100.37Z"/><path class="cz" d="M10.94,104.41a1.22,1.22,0,1,1-1.63.55A1.21,1.21,0,0,1,10.94,104.41Z"/><path class="da" d="M9,108.83a1.22,1.22,0,1,1-1.53.82A1.23,1.23,0,0,1,9,108.83Z"/><path class="db" d="M7.75,113.53A1.21,1.21,0,0,1,8.8,114.9a1.23,1.23,0,0,1-1.37,1,1.22,1.22,0,1,1,.32-2.42Z"/><path class="dc" d="M7.32,118.36a1.22,1.22,0,1,1-1.18,1.26A1.22,1.22,0,0,1,7.32,118.36Z"/><path class="dd" d="M7.69,123.19a1.22,1.22,0,1,1-1,1.44A1.21,1.21,0,0,1,7.69,123.19Z"/><path class="de" d="M8.84,127.9a1.22,1.22,0,1,1-.7,1.57A1.22,1.22,0,0,1,8.84,127.9Z"/><path class="df" d="M10.76,132.35a1.22,1.22,0,1,1-.43,1.67A1.22,1.22,0,0,1,10.76,132.35Z"/><path class="dg" d="M13.39,136.43a1.21,1.21,0,0,1,1.72.15,1.22,1.22,0,1,1-1.87,1.56A1.2,1.2,0,0,1,13.39,136.43Z"/><path class="dh" d="M16.65,140a1.22,1.22,0,1,1,.13,1.72A1.22,1.22,0,0,1,16.65,140Z"/><path class="di" d="M20.46,143a1.21,1.21,0,0,1,1.67-.42,1.22,1.22,0,1,1-1.26,2.09A1.21,1.21,0,0,1,20.46,143Z"/><path class="dj" d="M24.71,145.35a1.22,1.22,0,0,1,2.26.9,1.22,1.22,0,1,1-2.26-.9Z"/><path class="dk" d="M29.28,147a1.22,1.22,0,1,1,.94,1.46A1.24,1.24,0,0,1,29.28,147Z"/><path class="dl" d="M34.06,147.78a1.22,1.22,0,0,1,2.44.12,1.23,1.23,0,0,1-1.28,1.16A1.22,1.22,0,0,1,34.06,147.78Z"/><path class="dm" d="M38.91,147.81a1.22,1.22,0,1,1,1.35,1.07A1.21,1.21,0,0,1,38.91,147.81Z"/><circle class="dn" cx="44.86" cy="146.71" r="1.22"/><path class="do" d="M48.29,145.5a1.22,1.22,0,1,1,1.63.57A1.21,1.21,0,0,1,48.29,145.5Z"/><path class="dp" d="M52.57,143.22a1.22,1.22,0,1,1,1.7.3A1.22,1.22,0,0,1,52.57,143.22Z"/><path class="dq" d="M56.41,140.27a1.22,1.22,0,1,1,1.73,0A1.23,1.23,0,0,1,56.41,140.27Z"/><path class="dr" d="M59.72,136.72a1.22,1.22,0,1,1,1.7-.27A1.22,1.22,0,0,1,59.72,136.72Z"/><path class="ds" d="M62.4,132.68a1.22,1.22,0,1,1,1.63-.55A1.21,1.21,0,0,1,62.4,132.68Z"/><path class="dt" d="M64.37,128.26a1.22,1.22,0,1,1,1.53-.82A1.23,1.23,0,0,1,64.37,128.26Z"/><path class="du" d="M65.59,123.56a1.21,1.21,0,0,1-1-1.37,1.23,1.23,0,0,1,1.37-1,1.22,1.22,0,1,1-.32,2.42Z"/><path class="dv" d="M66,118.73a1.22,1.22,0,1,1,1.18-1.26A1.22,1.22,0,0,1,66,118.73Z"/><path class="dw" d="M65.65,113.9a1.22,1.22,0,1,1,1-1.44A1.21,1.21,0,0,1,65.65,113.9Z"/><path class="dx" d="M64.5,109.19a1.22,1.22,0,1,1,.7-1.57A1.22,1.22,0,0,1,64.5,109.19Z"/><path class="dy" d="M62.58,104.74a1.22,1.22,0,1,1,.43-1.67A1.22,1.22,0,0,1,62.58,104.74Z"/><path class="dz" d="M60,100.66a1.21,1.21,0,0,1-1.72-.15A1.22,1.22,0,1,1,60.1,99,1.2,1.2,0,0,1,60,100.66Z"/><path class="ea" d="M56.69,97.08a1.22,1.22,0,1,1-.13-1.72A1.22,1.22,0,0,1,56.69,97.08Z"/><path class="eb" d="M52.88,94.07a1.21,1.21,0,0,1-1.67.42,1.22,1.22,0,1,1,1.26-2.09A1.21,1.21,0,0,1,52.88,94.07Z"/><path class="ec" d="M48.63,91.74a1.22,1.22,0,1,1-2.26-.9,1.22,1.22,0,1,1,2.26.9Z"/><path class="ed" d="M44.06,90.14a1.22,1.22,0,1,1-.94-1.46A1.24,1.24,0,0,1,44.06,90.14Z"/><path class="ee" d="M39.28,89.31a1.22,1.22,0,0,1-2.44-.12A1.23,1.23,0,0,1,38.12,88,1.22,1.22,0,0,1,39.28,89.31Z"/><path class="ef" d="M34.43,89.28a1.22,1.22,0,1,1-1.35-1.07A1.21,1.21,0,0,1,34.43,89.28Z"/><path class="c" d="M62.76,111l-.49.15A26.67,26.67,0,1,1,49.5,95.18,26.58,26.58,0,0,1,62.27,111.1l.49-.15.48-.14a27.67,27.67,0,1,0-2.31,21.06,27.58,27.58,0,0,0,2.31-21.06Z"/><path class="c" d="M66.89,109.75l-.48.14A31,31,0,1,1,51.58,91.4a30.89,30.89,0,0,1,14.83,18.49l.48-.14.49-.14a32,32,0,1,0-2.67,24.33,31.91,31.91,0,0,0,2.67-24.33Z"/><path class="c" d="M71.38,108.44l-.48.15A35.65,35.65,0,0,1,2.44,128.5,35.65,35.65,0,0,1,70.9,108.59l.48-.15.49-.14a36.68,36.68,0,1,0-3.07,27.89,36.57,36.57,0,0,0,3.07-27.89Z"/><path class="eg" d="M96.8,154.7H80.31V82.44h28.34a25.49,25.49,0,0,1,7.54,1.06,24.78,24.78,0,0,1,6.25,2.85,22.9,22.9,0,0,1,5,4.23,26.28,26.28,0,0,1,5.75,11,25,25,0,0,1,.73,5.9,26.31,26.31,0,0,1-.63,5.72,24.55,24.55,0,0,1-2,5.58,24.87,24.87,0,0,1-3.53,5.22,28.84,28.84,0,0,1-5.24,4.66l19.26,26H127.66a12.88,12.88,0,0,1-1.53-.15,9.9,9.9,0,0,1-2.45-.71,12.91,12.91,0,0,1-2.87-1.66,12.67,12.67,0,0,1-2.88-3.08l-12.1-16.39h-9Zm12.71-38.58a6.13,6.13,0,0,0,2.92-.75,9.15,9.15,0,0,0,2.5-2,10,10,0,0,0,1.74-2.75,7.61,7.61,0,0,0,0-6.2,10,10,0,0,0-1.74-2.75,9.15,9.15,0,0,0-2.5-2,6.13,6.13,0,0,0-2.92-.75H96.8v17.14Z"/></svg>