<svg xmlns="http://www.w3.org/2000/svg" version="1.0" width="100" height="100"><path d="M71.7 50c0-12-9.7-21.8-21.7-21.8s-21.8 9.7-21.8 21.7 9.7 21.8 21.7 21.8c5.8 0 11.3-2.3 15.4-6.4 4.2-4 6.4-9.5 6.4-15.3zM50 70.3c-11.2 0-20.3-9.1-20.4-20.3 0-11.2 9.1-20.3 20.3-20.4 11.2 0 20.3 9.1 20.4 20.3 0 5.4-2.1 10.6-6 14.4-3.7 3.9-8.9 6.1-14.3 6z"/><path d="M51.5 80.9c.7-.4 1.3-1 1.7-1.7.2-.4.4-.9.5-1.3.3.5.6 1 1.1 1.4.3.3.7.5 1.2.7.4.2.9.3 1.3.3.3 0 .6 0 .8-.1.4-.1.8-.3 1.2-.6.5-.4.9-.9 1.2-1.5.3-.6.4-1.3.4-1.9V76c.3.3.6.6 1 .9.6.4 1.4.6 2.2.7.6 0 1.2-.2 1.7-.4.6-.3 1-.8 1.3-1.3.3-.6.4-1.2.4-1.9 0-.5-.1-1-.3-1.5.7.5 1.6.8 2.5.8.5 0 .9-.1 1.3-.2.9-.3 1.6-1 1.9-1.9.2-.4.2-.9.2-1.3 0-.9-.3-1.7-.8-2.5.5.2 1 .2 1.5.2.7 0 1.3-.1 1.9-.4.6-.3 1-.8 1.3-1.3.3-.5.4-1.1.4-1.7 0-.8-.2-1.5-.7-2.2-.2-.4-.5-.7-.9-1h.2c.9 0 1.7-.2 2.5-.7.3-.2.7-.5.9-.8.3-.3.5-.7.6-1.2.1-.3.1-.6.1-.8 0-.5-.1-.9-.3-1.3-.3-.6-.7-1.2-1.2-1.6l-.9-.6c.7-.2 1.4-.5 2-.9.4-.3.7-.7 1-1.2.5-1 .5-2.1 0-3.1-.4-.7-1-1.3-1.7-1.7-.4-.2-.9-.4-1.3-.5.5-.3 1-.6 1.4-1.1.3-.3.5-.7.7-1.2.2-.4.3-.9.3-1.3 0-.3 0-.6-.1-.8-.1-.4-.3-.8-.6-1.2-.4-.5-.9-.9-1.5-1.2-.6-.3-1.3-.4-1.9-.4.3-.3.6-.6.9-1 .4-.6.6-1.4.7-2.2 0-.6-.1-1.1-.4-1.6-.3-.6-.8-1-1.3-1.3-.6-.3-1.2-.4-1.9-.4-.5 0-1 .1-1.5.3.5-.7.7-1.6.7-2.5 0-.5-.1-.9-.2-1.3-.3-.9-1-1.6-1.9-1.9-.4-.2-.9-.2-1.3-.2-.9 0-1.8.3-2.5.8.2-.5.2-1 .3-1.5 0-.7-.1-1.3-.4-1.9-.3-.6-.8-1-1.3-1.3-.5-.3-1.1-.4-1.7-.4-.8 0-1.5.2-2.2.7-.4.2-.7.5-1 .9v-.2c0-.9-.2-1.7-.7-2.5-.2-.3-.5-.7-.8-.9-.3-.3-.7-.5-1.2-.6-.3-.1-.6-.1-.8-.1-.5 0-.9.1-1.3.3-.6.3-1.2.7-1.6 1.2l-.6.9c-.1-.7-.5-1.4-.9-2-.3-.4-.7-.7-1.2-1-1-.5-2.1-.5-3.1 0-.7.4-1.3 1-1.7 1.7-.2.4-.4.9-.5 1.3-.3-.5-.6-1-1.1-1.4-.3-.3-.7-.6-1.2-.7-.4-.2-.9-.3-1.3-.3-.3 0-.6 0-.8.1-.4.1-.8.3-1.2.6-.5.4-.9.9-1.2 1.5-.3.6-.4 1.3-.4 1.9v.2c-.3-.3-.6-.6-1-.9-.6-.4-1.4-.6-2.2-.7-.6 0-1.2.2-1.7.4-.6.3-1 .8-1.3 1.3-.3.6-.4 1.2-.4 1.9 0 .5.1 1 .2 1.5-.7-.5-1.5-.7-2.4-.8-.5 0-.9.1-1.3.2-.9.3-1.6 1-1.9 1.9-.2.4-.2.9-.2 1.3 0 .9.3 1.7.8 2.5-.5-.2-1-.2-1.5-.2-.7 0-1.3.1-1.9.4-.6.3-1 .8-1.3 1.3-.3.5-.4 1.1-.4 1.7 0 .8.2 1.5.7 2.2.2.4.5.7.9 1h-.2c-.9 0-1.7.2-2.5.7-.3.2-.7.5-.9.8-.3.3-.5.7-.6 1.2-.1.3-.1.6-.1.8 0 .5.1.9.3 1.3.3.6.7 1.2 1.2 1.6l.9.6c-.7.1-1.4.5-2 .9-.4.3-.7.7-1 1.2-.5 1-.5 2.1 0 3.1.4.7 1 1.3 1.7 1.7.4.2.9.4 1.3.5-.5.3-1 .6-1.4 1.1-.3.3-.5.7-.7 1.2-.2.4-.3.9-.3 1.3 0 .3 0 .6.1.8.1.4.3.8.6 1.2.4.5.9.9 1.5 1.2.6.3 1.3.4 1.9.4h.2c-.3.3-.6.6-.9 1-.4.6-.6 1.4-.7 2.2 0 .6.2 1.2.4 1.7.3.6.8 1 1.3 1.3.6.3 1.2.4 1.9.4.5 0 1-.1 1.5-.2-.5.7-.8 1.6-.8 2.5 0 .5.1.9.2 1.3.3.8 1 1.5 1.8 1.8.4.2.9.2 1.3.2.9 0 1.7-.3 2.5-.8-.2.5-.2 1-.2 1.5 0 .7.1 1.3.4 1.9.3.6.8 1 1.3 1.3.5.3 1.1.4 1.7.4.8 0 1.5-.2 2.2-.7.4-.2.7-.5 1-.9v.2c0 .9.2 1.7.7 2.5.2.3.5.7.8.9.3.3.7.5 1.2.6.3.1.6.1.8.1.5 0 .9-.1 1.3-.3.6-.3 1.2-.7 1.7-1.2l.6-.9c.1.7.4 1.4.9 2 .3.4.7.7 1.2 1 .8.4 2 .4 2.9-.1zM31.6 68.4c-10.2-10.2-10.2-26.7 0-36.9s26.7-10.2 36.9 0 10.2 26.7 0 36.9C63.6 73.3 57 76 50.1 76c-7 .1-13.7-2.6-18.5-7.6zM58.9 78c-.1.2-.3.4-.5.6-.2.1-.4.3-.7.3h-.5c-.3 0-.5-.1-.8-.2-.4-.2-.8-.5-1.1-.8-.2-.3-.4-.6-.5-.9 1.6-.3 3.1-.7 4.6-1.2 0 .2.1.3.1.5 0 .5-.2 1.2-.6 1.7zm6.8-2.9c-.2.3-.4.6-.8.8-.3.2-.6.3-1 .3-.5 0-1-.2-1.5-.4-.3-.2-.6-.5-.9-.9 1.4-.7 2.7-1.5 4-2.3.2.4.3.9.3 1.3.1.4.1.8-.1 1.2zm5.9-4.6c-.1.2-.2.5-.4.7-.2.2-.4.3-.7.4-.3.1-.5.1-.8.1-.7 0-1.4-.3-2-.7.6-.5 1.2-1 1.8-1.6.6-.6 1.1-1.2 1.6-1.8.4.6.7 1.3.7 2-.1.4-.1.7-.2.9zm4.6-6.5c0 .3-.1.7-.3 1-.2.3-.5.6-.8.8-.4.2-.8.3-1.2.3-.5 0-.9-.1-1.3-.3.9-1.3 1.7-2.6 2.3-4 .3.2.6.6.9.9.2.3.3.8.4 1.3zm2.7-7.5c.1.3.1.5.1.8v.5c-.1.3-.2.5-.4.7-.3.3-.6.6-1 .7-.4.2-.9.3-1.3.3-.1 0-.3 0-.5-.1.5-1.5 1-3 1.2-4.5.5.2 1 .5 1.3.9.2.2.4.4.6.7zm.8-7.4c.3.6.3 1.2 0 1.8-.3.5-.6.8-1.1 1.1-.4.2-.8.3-1.2.4 0-.8.1-1.6.1-2.4s0-1.6-.1-2.4c.6.1 1.2.3 1.7.7.2.2.5.5.6.8zm-1.7-8c.2.1.4.3.6.5.1.2.3.4.3.7v.5c0 .3-.1.5-.2.8-.2.4-.5.8-.8 1.1-.3.2-.6.4-.9.5-.3-1.6-.7-3.1-1.2-4.6.2 0 .3-.1.5-.1.5.1 1.2.2 1.7.6zm-2.9-6.8c.3.2.6.4.8.8.2.3.3.6.3 1 0 .5-.2 1-.4 1.4-.2.3-.5.6-.9.9-.7-1.4-1.4-2.8-2.3-4 .4-.2.9-.3 1.3-.3.4-.1.8 0 1.2.2zm-4.6-5.9c.3.1.5.2.7.4.2.2.3.4.4.7.1.3.1.6.1.8 0 .7-.3 1.4-.7 2-.5-.6-1-1.2-1.6-1.8-.6-.6-1.2-1.1-1.8-1.6.6-.4 1.3-.7 2-.7.4.1.7.1.9.2zm-8-4.1c.4-.3.9-.4 1.4-.4.3 0 .7.1 1 .3.3.2.6.5.8.8.2.4.3.8.3 1.2 0 .5-.1.9-.3 1.3-1.3-.9-2.6-1.7-4-2.3.2-.4.5-.7.8-.9zm-6.1-3.1c.3-.1.5-.2.8-.2.2 0 .3 0 .5.1s.5.2.7.3c.3.3.6.6.7 1 .2.4.3.9.3 1.3 0 .1 0 .3-.1.5-1.5-.5-3-1-4.5-1.2.2-.5.5-1 .9-1.3.2-.3.5-.4.7-.5zm-7.3-.9c.6-.3 1.2-.3 1.8 0 .5.3.8.6 1.1 1.1.2.4.3.8.4 1.2-.8 0-1.6-.1-2.4-.1s-1.6 0-2.4.1c.1-.6.3-1.2.7-1.7.2-.2.5-.4.8-.6zm-8 1.7c.1-.2.3-.4.5-.6.2-.1.4-.3.7-.3.2 0 .3-.1.5-.1.3 0 .5.1.8.2.4.2.8.5 1.1.8.2.3.4.6.5.9-1.6.3-3.1.7-4.6 1.2 0-.2-.1-.3-.1-.5.1-.5.2-1.1.6-1.6zm-6.8 2.9c.2-.3.4-.6.8-.8.3-.2.6-.3 1-.3.5 0 1 .2 1.4.4.3.2.6.5.9.9-1.4.7-2.8 1.4-4.1 2.3-.2-.4-.3-.8-.3-1.3 0-.4.1-.8.3-1.2zm-5.9 4.6c.2-.5.6-.9 1.1-1.1.3-.1.6-.1.8-.1.7 0 1.4.3 2 .7-.6.5-1.2 1-1.8 1.6s-1.1 1.1-1.6 1.8c-.5-.6-.7-1.2-.8-2 .2-.3.2-.6.3-.9zM23.8 36c0-.3.1-.7.3-1 .2-.3.5-.6.8-.8.4-.2.8-.3 1.2-.3.5 0 .9.1 1.3.3-.9 1.3-1.7 2.7-2.4 4.1-.3-.2-.6-.6-.9-.9-.1-.3-.3-.9-.3-1.4zm-2.7 7.5c-.1-.2-.1-.5-.1-.8 0-.2 0-.3.1-.5s.2-.5.3-.7c.3-.3.6-.6 1-.7.4-.2.9-.3 1.3-.3.1 0 .3 0 .5.1-.5 1.5-1 3-1.2 4.5-.5-.2-1-.5-1.3-.9-.3-.1-.4-.4-.6-.7zm-.8 7.4c-.3-.6-.3-1.2 0-1.8.3-.5.6-.8 1.1-1.1.4-.2.8-.3 1.2-.4 0 .8-.1 1.6-.1 2.4s0 1.6.1 2.4c-.6-.1-1.2-.4-1.6-.7-.3-.2-.5-.5-.7-.8zm1.7 8c-.2-.1-.4-.3-.6-.5-.1-.2-.3-.4-.3-.7 0-.2-.1-.3-.1-.5 0-.3.1-.5.2-.8.2-.4.5-.8.8-1.1.3-.2.6-.4.9-.5.3 1.6.7 3.1 1.2 4.6-.2 0-.3.1-.5.1-.5-.1-1.1-.3-1.6-.6zm2.9 6.8c-.3-.2-.6-.4-.8-.8-.2-.3-.3-.6-.3-1 0-.5.2-1 .5-1.5.2-.3.5-.6.9-.9.7 1.4 1.5 2.7 2.3 4-.4.2-.9.3-1.3.3-.5.1-.9.1-1.3-.1zm4.6 5.9c-.5-.2-.9-.6-1.1-1.1-.1-.3-.1-.6-.1-.8 0-.7.3-1.4.8-2 .5.6 1 1.2 1.6 1.8s1.2 1.1 1.8 1.6c-.6.4-1.3.7-2 .7-.4-.1-.7-.1-1-.2zm7.9 4.1c-.4.3-.9.5-1.4.5-.3 0-.7-.1-1-.3-.3-.2-.6-.5-.8-.8-.2-.4-.3-.8-.3-1.2 0-.5.1-.9.3-1.3 1.3.9 2.7 1.7 4.1 2.4-.2.2-.5.5-.9.7zm6.1 3.1c-.3.1-.5.2-.8.2h-.5c-.2-.1-.5-.2-.7-.3-.3-.3-.6-.6-.7-1-.2-.4-.3-.9-.3-1.3 0-.1 0-.3.1-.5 1.5.5 3 1 4.5 1.2-.2.5-.5 1-.9 1.3-.2.2-.4.3-.7.4zm4.5-.2c-.2-.4-.3-.8-.4-1.2.8 0 1.6.1 2.4.1s1.6 0 2.4-.1c-.1.6-.3 1.2-.7 1.7-.2.3-.5.5-.8.6-.6.3-1.2.3-1.8 0-.5-.3-.8-.7-1.1-1.1z"/><path d="M50 27.8c.9 0 1.7-.7 1.7-1.7 0-.9-.7-1.7-1.7-1.7s-1.7.7-1.7 1.7c0 .9.8 1.7 1.7 1.7zM45.4 28.3c.9-.2 1.5-1.1 1.3-2-.2-.9-1.1-1.5-2-1.3-.9.2-1.5 1-1.3 1.9.2.9 1 1.5 2 1.4-.1 0 0 0 0 0zM41 29.7c.8-.4 1.2-1.4.8-2.2-.4-.8-1.4-1.2-2.2-.8-.8.4-1.2 1.4-.8 2.2.3.8 1.3 1.2 2.2.8-.1 0 0 0 0 0zM36.9 32c.7-.6.9-1.6.3-2.3s-1.6-.9-2.3-.3-.9 1.6-.3 2.3c.6.7 1.6.9 2.3.3zM33.5 35.1c.6-.7.6-1.7-.1-2.4-.7-.6-1.7-.6-2.4.1-.6.7-.6 1.7.1 2.4s1.8.6 2.4-.1zM28.5 39.5c.8.5 1.8.2 2.3-.6.5-.8.2-1.8-.6-2.3-.8-.5-1.8-.2-2.3.6-.5.8-.2 1.8.6 2.3zM26.7 44.2c.9.3 1.8-.2 2.1-1.1.3-.9-.2-1.8-1.1-2.1-.9-.3-1.8.2-2.1 1.1-.2.9.3 1.8 1.1 2.1zM26.1 49.2c.9.1 1.7-.6 1.8-1.5s-.6-1.7-1.5-1.8c-.9-.1-1.7.6-1.8 1.5-.1.8.5 1.7 1.5 1.8zM27.9 52.3c-.1-.9-.9-1.6-1.8-1.5-.9.1-1.6.9-1.5 1.8.1.9.9 1.6 1.8 1.5.9 0 1.6-.9 1.5-1.8zM28.9 56.9c-.3-.9-1.2-1.4-2.1-1.1-.9.3-1.4 1.2-1.1 2.1.3.9 1.2 1.4 2.1 1.1.9-.3 1.3-1.2 1.1-2.1zM30.8 61.2c-.5-.8-1.5-1.1-2.3-.6-.8.5-1.1 1.5-.6 2.3.5.8 1.5 1.1 2.3.6.7-.5 1-1.5.6-2.3zM31.1 64.7c-.7.6-.7 1.7-.1 2.4s1.7.7 2.4.1.7-1.7.1-2.4c-.6-.6-1.7-.7-2.4-.1zM34.6 68.4c-.5.8-.4 1.8.4 2.3.8.5 1.8.4 2.3-.4.5-.7.4-1.8-.4-2.3-.7-.6-1.8-.4-2.3.4 0-.1 0 0 0 0zM41 70.3c-.8-.4-1.8-.2-2.3.7s-.2 1.8.7 2.3c.1 0 .2.1.3.1.8.4 1.8.2 2.3-.7.4-.8.2-1.8-.7-2.3-.2 0-.2-.1-.3-.1zM45.4 71.7c-.9-.2-1.8.4-1.9 1.3-.2.9.4 1.8 1.3 1.9.9.2 1.8-.4 1.9-1.3.2-.8-.4-1.7-1.3-1.9zM51.7 73.9c0-.9-.7-1.7-1.7-1.7s-1.7.7-1.7 1.7c0 .9.7 1.7 1.7 1.7s1.7-.8 1.7-1.7zM54.6 71.7c-.9.2-1.5 1.1-1.3 2 .2.9 1.1 1.5 2 1.3.9-.2 1.5-1 1.3-1.9-.2-.9-1-1.5-2-1.4zM59 70.3c-.8.4-1.2 1.4-.8 2.2.4.8 1.4 1.2 2.2.8s1.2-1.4.8-2.2c-.3-.8-1.3-1.2-2.2-.8.1 0 .1 0 0 0zM63.1 68c-.7.5-.9 1.6-.4 2.3.5.7 1.6.9 2.3.4.7-.5.9-1.6.4-2.3-.5-.8-1.6-1-2.3-.4zM66.5 64.9c-.6.7-.6 1.7.1 2.4.7.6 1.7.6 2.4-.1.6-.7.6-1.7-.1-2.4s-1.8-.6-2.4.1zM71.5 60.5c-.8-.5-1.8-.2-2.3.6-.5.8-.2 1.8.6 2.3.8.5 1.8.2 2.3-.6.5-.8.2-1.8-.6-2.3zM73.2 55.8c-.9-.3-1.8.2-2.1 1.1-.3.9.2 1.8 1.1 2.1.9.3 1.8-.2 2.1-1.1.3-.9-.2-1.8-1.1-2.1zM74 50.8c-.9-.1-1.7.6-1.8 1.5s.6 1.7 1.5 1.8c.9.1 1.7-.6 1.8-1.5 0-.8-.6-1.7-1.5-1.8zM72.1 47.7c.1.9.9 1.6 1.8 1.5.9-.1 1.6-.9 1.5-1.8-.1-.9-.9-1.6-1.8-1.5-.9 0-1.6.9-1.5 1.8zM71.1 43.1c.3.9 1.2 1.4 2.1 1.1.9-.3 1.4-1.2 1.1-2.1-.3-.9-1.2-1.4-2.1-1.1s-1.3 1.2-1.1 2.1zM69.2 38.9c.5.8 1.5 1.1 2.3.6.8-.5 1.1-1.5.6-2.3-.5-.8-1.5-1.1-2.3-.6-.8.4-1.1 1.5-.6 2.3zM68.9 35.3c.7-.6.7-1.7.1-2.4s-1.7-.7-2.4-.1-.7 1.7-.1 2.4c.6.6 1.7.7 2.4.1zM65.4 31.7c.5-.8.4-1.8-.4-2.3-.8-.5-1.8-.4-2.3.4-.5.7-.4 1.8.4 2.3.7.5 1.8.3 2.3-.4zM59 29.7c.8.4 1.8.2 2.3-.7.4-.8.2-1.8-.7-2.3-.1 0-.2-.1-.3-.1-.8-.4-1.8-.2-2.3.7-.4.8-.2 1.8.7 2.3.2 0 .2.1.3.1zM54.6 28.3c.9.1 1.8-.5 1.9-1.4.1-.8-.4-1.6-1.2-1.9-.9-.2-1.8.4-2 1.3-.2.9.4 1.8 1.3 2zM50 35.1c-8.2 0-14.9 6.7-14.9 14.9S41.8 64.9 50 64.9 64.9 58.2 64.9 50 58.2 35.1 50 35.1zm0 18.8c-2.2 0-3.9-1.8-3.9-3.9 0-2.2 1.8-3.9 3.9-3.9 2.2 0 3.9 1.8 3.9 3.9 0 2.2-1.7 3.9-3.9 3.9z"/><path d="M94.4 55.3c-.2-.2-.5-.3-.7-.5.8-.2 1.5-.6 2-1.2s.9-1.3.9-2.1c0-.3 0-.7-.1-1-.3-.8-.8-1.5-1.5-2-.3-.2-.7-.4-1-.5.6-.3 1.2-.7 1.6-1.2.3-.3.5-.7.6-1.2.1-.4.2-.9.1-1.3 0-.2-.1-.3-.1-.5-.1-.5-.4-.9-.7-1.2-.5-.5-1.1-1-1.8-1.2-.2-.1-.4-.1-.7-.1.5-.3.9-.7 1.2-1.2.3-.4.5-.9.6-1.4.1-.5.1-1-.1-1.5-.1-.5-.4-1-.8-1.3-.5-.6-1.2-.9-2-1.1-.3-.1-.6-.1-.8-.1.3-.3.6-.7.9-1.1.2-.4.4-.9.5-1.3.1-.5 0-.9-.1-1.4-.1-.2-.1-.3-.2-.5-.2-.4-.5-.8-.8-1.1-.5-.4-1.2-.7-1.8-.8-.4-.1-.9-.1-1.3 0 .2-.3.4-.6.6-1 .3-.8.4-1.7.2-2.5-.1-.3-.2-.6-.4-.9-.5-.7-1.1-1.1-1.9-1.3-.8-.2-1.6-.2-2.3 0 .1-.2.3-.5.3-.8.2-.7.3-1.5.1-2.3-.1-.5-.4-1-.8-1.3-.5-.5-1.1-.8-1.7-1-.7-.1-1.4-.1-2 .1-.2.1-.5.2-.7.3.1-.2.2-.4.2-.6.2-.7.2-1.4 0-2-.2-.7-.6-1.2-1.2-1.7-.4-.3-1-.6-1.5-.6-.6-.1-1.1 0-1.6.1s-.9.3-1.3.6c.2-.7.2-1.4 0-2-.1-.4-.3-.8-.6-1.2-.3-.4-.6-.7-1-.9-.4-.2-.9-.4-1.3-.4-.5 0-.9 0-1.3.1-.7.2-1.3.6-1.8 1 0-.5 0-.9-.2-1.3-.2-.5-.4-1-.8-1.5-.4-.4-.8-.7-1.3-.9-.7-.2-1.4-.2-2.1 0-.7.2-1.3.6-1.7 1.1-.1.2-.3.3-.4.5 0-.3-.1-.5-.1-.8-.2-.6-.5-1.2-1-1.7s-1.1-.8-1.7-1c-.5-.1-1-.1-1.5.1-.8.2-1.4.7-1.9 1.3-.2.2-.3.5-.5.7-.2-.8-.6-1.5-1.2-2s-1.3-.9-2.1-.9h-1c-.8.3-1.5.8-2 1.5-.2.3-.4.7-.5 1-.3-.6-.7-1.2-1.2-1.6-.3-.3-.7-.5-1.2-.6-.4-.1-.9-.2-1.3-.1-.2 0-.3.1-.5.1-.5.1-.9.4-1.2.7-.5.4-1 1-1.2 1.7-.1.2-.1.4-.1.7-.3-.5-.7-.9-1.2-1.2-.4-.3-.9-.5-1.4-.6-1-.4-1.5-.4-2-.2-.5.1-1 .4-1.3.8-.6.5-.9 1.2-1.1 2-.1.3-.1.6-.1.8-.3-.3-.7-.6-1.1-.9-.4-.2-.9-.4-1.3-.5-.5-.1-.9 0-1.4.1-.2.1-.3.1-.5.2-.4.2-.8.5-1.1.8-.4.5-.7 1.2-.8 1.8-.1.4-.1.9 0 1.3-.3-.2-.6-.4-1-.6-.8-.4-1.7-.4-2.5-.2-.3.1-.6.2-.9.4-.7.5-1.1 1.1-1.3 1.9-.2.8-.2 1.6 0 2.3-.2-.1-.5-.3-.8-.3-.8-.2-1.6-.2-2.3 0-.5.1-1 .4-1.3.8-.5.5-.8 1.1-1 1.7-.1.7-.1 1.4.1 2 .1.2.2.5.3.7-.2-.1-.4-.2-.6-.2-.7-.2-1.4-.2-2 0-.7.2-1.3.6-1.7 1.1-.3.4-.6 1-.6 1.5-.1.6 0 1.1.1 1.6s.3.9.6 1.3c-.7-.1-1.4-.1-2 .1-.4.1-.8.3-1.2.6-.4.3-.7.6-.9 1-.2.4-.4.9-.4 1.3 0 .5 0 .9.1 1.3.2.7.6 1.3 1 1.8-.5 0-.9 0-1.3.2-.5.2-1 .4-1.5.8-.4.4-.7.8-.9 1.3-.2.7-.2 1.4 0 2.1.2.7.6 1.3 1.1 1.7.1.1.3.2.4.4-.3 0-.5.1-.8.1-.6.2-1.2.5-1.7 1s-.8 1.1-1 1.7c-.1.5-.1 1 .1 1.5.2.8.7 1.4 1.3 1.9.1.4.3.6.6.8-.8.2-1.5.7-2 1.3-.5.6-.9 1.3-.9 2.1 0 .3 0 .7.1 1 .3.8.8 1.5 1.5 2 .3.2.7.4 1 .5-.6.3-1.2.7-1.6 1.2-.3.3-.5.7-.6 1.2-.1.4-.2.9-.1 1.3 0 .2.1.3.1.5.1.5.4.9.7 1.2.5.5 1.1 1 1.7 1.2.2.1.4.1.7.1-.5.3-.9.7-1.2 1.2-.3.4-.5.9-.6 1.3-.1.6-.1 1.2.1 1.7.1.5.4 1 .8 1.3.5.6 1.2.9 2 1.1.3.1.6.1.8.1-.3.3-.6.7-.9 1.1-.2.4-.3.9-.4 1.4-.1.4 0 .9.1 1.3.1.2.1.3.2.5.2.4.5.8.8 1.1.5.4 1.2.7 1.8.8.4.1.9.1 1.3 0-.2.3-.4.6-.6 1-.4.8-.4 1.7-.2 2.5.1.3.2.6.4.9.5.7 1.1 1.1 1.9 1.3.8.2 1.6.2 2.3 0-.1.2-.3.5-.3.8-.2.8-.2 1.6 0 2.3.1.5.4 1 .8 1.3.5.5 1.1.8 1.7 1 .7.1 1.4.1 2-.1.2-.1.5-.2.7-.3-.1.2-.2.4-.2.6-.2.7-.2 1.4 0 2 .2.7.6 1.3 1.1 1.7.4.3 1 .6 1.5.6.6.1 1.1 0 1.6-.1s.9-.3 1.3-.6c-.1.7-.1 1.4.1 2 .1.4.3.8.6 1.2.3.4.6.7 1 .9.4.2.9.4 1.3.4.5 0 .9 0 1.3-.1.7-.2 1.3-.6 1.8-1 0 .5 0 .9.2 1.3.2.5.4 1 .8 1.5.4.4.8.7 1.3.9.7.2 1.4.2 2.1 0 .7-.2 1.3-.6 1.7-1.1.1-.2.3-.3.4-.5 0 .3.1.5.1.8.2.6.5 1.2 1 1.7s1.1.8 1.7 1c.5.1 1 .1 1.5-.1.8-.2 1.4-.7 1.9-1.3.2-.2.3-.5.5-.7.2.8.6 1.6 1.2 2.2.6.5 1.3.9 2.1.9.3 0 .7 0 1-.1.8-.3 1.5-.8 2-1.5.2-.3.4-.7.5-1 .3.6.7 1.2 1.2 1.6.3.3.7.5 1.2.6.4.1.9.2 1.3.1.2 0 .3-.1.5-.1.5-.1.9-.4 1.2-.7.5-.5 1-1.1 1.2-1.8.1-.2.1-.4.1-.7.3.5.7.9 1.2 1.2.4.3.9.5 1.3.6.5.1 1 .1 1.5-.1.5-.1 1-.4 1.3-.8.6-.5.9-1.2 1.1-2 .1-.3.1-.6.1-.8.3.3.7.6 1.1.9.4.2.9.4 1.3.5.4.1.9 0 1.3-.1.2-.1.3-.1.5-.2.4-.2.8-.5 1.1-.8.4-.5.7-1.2.8-1.8.1-.4.1-.9 0-1.3.3.2.6.4 1 .6.8.4 1.7.4 2.5.2.3-.1.6-.2.9-.4.7-.5 1.1-1.1 1.3-1.9.2-.8.2-1.6 0-2.3.2.1.5.3.8.3.7.2 1.5.3 2.3.1.5-.1 1-.4 1.3-.8.5-.5.8-1.1 1-1.7.1-.7.1-1.4-.1-2-.1-.2-.2-.5-.3-.7.2.1.4.2.6.2.7.2 1.4.2 2 0 .7-.2 1.3-.6 1.8-1.2.3-.4.6-1 .6-1.5.1-.6 0-1.1-.1-1.6s-.3-.9-.6-1.3c.7.2 1.4.2 2 0 .4-.1.8-.3 1.2-.6.4-.3.7-.6.9-1 .2-.4.4-.9.4-1.3 0-.5 0-.9-.1-1.3-.2-.7-.6-1.3-1-1.8.5 0 .9 0 1.3-.2.5-.2 1-.4 1.5-.8.4-.4.7-.8.9-1.3.2-.7.2-1.4 0-2.1-.2-.7-.6-1.3-1.1-1.7-.2-.1-.3-.3-.5-.4.3 0 .5-.1.8-.1.6-.2 1.2-.5 1.7-1s.8-1.1 1-1.7c.1-.5.1-1-.1-1.5.4-1.1 0-1.7-.6-2.2zm-8 14.7C75.4 90.1 50.2 97.5 30 86.5S2.6 50.2 13.6 30.1 49.8 2.6 69.9 13.7c9.6 5.3 16.8 14.2 19.9 24.7C92.9 49 91.7 60.3 86.4 70zm8.8-19.2v.6c0 .5-.2 1-.5 1.3-.4.4-.8.7-1.3.8-.2.1-.4.1-.6.1.1-1.5.2-3.1.1-4.6.5.1.9.3 1.3.5.4.4.8.8 1 1.3zm-1.5-8.1c.3.2.5.3.7.6.3.3.4.6.5 1 .1.3.1.5 0 .8-.1.4-.4.8-.7 1.1-.4.3-.8.6-1.3.7h-.1c-.1-1.5-.3-3.1-.6-4.6.6 0 1.1.2 1.5.4zM92.2 36c.3.1.6.3.8.5.2.2.4.5.4.8.1.3.1.6 0 .9-.1.5-.4 1-.7 1.3-.3.3-.7.5-1 .7-.2-.7-.4-1.5-.6-2.2-.2-.7-.5-1.5-.7-2.2.6-.1 1.2 0 1.8.2zm-2.5-6.3c.3.1.5.2.7.4.2.2.4.4.5.6 0 .1.1.2.1.3.1.3.1.6 0 .8-.1.5-.3 1-.6 1.3-.2.3-.5.5-.8.8-.6-1.4-1.2-2.8-2-4.2.7-.2 1.5-.3 2.1 0zm-3.4-6c.5.1.9.4 1.1.8.1.2.2.3.2.5.1.5.1 1.1-.1 1.6-.2.4-.5.8-.9 1.1-.8-1.3-1.7-2.6-2.6-3.8.2-.1.4-.2.6-.2.6-.1 1.2-.1 1.7 0zm-5.7-5.2c.4-.1.9-.2 1.3-.1s.8.3 1 .6c.2.2.3.5.4.8.1.5.1 1 0 1.5-.1.4-.4.8-.6 1.1-1-1.2-2-2.3-3.1-3.3.4-.3.7-.5 1-.6zm-4.8-4.6c.3-.1.7-.1 1.1-.1.3 0 .6.2.9.4.3.3.6.6.7 1 .1.4.1.9 0 1.3-.1.3-.2.7-.4 1-1.2-1-2.4-2-3.7-2.8.3-.4.8-.6 1.4-.8zm-5.6-3.7c.3-.1.5-.1.8-.1.3 0 .5.1.8.2.2.1.4.3.6.5.2.2.3.5.4.7.2.7.1 1.4-.1 2-.6-.4-1.3-.8-2-1.2s-1.3-.7-2.1-1c.4-.5 1-.9 1.6-1.1zm-6.1-2.8c.4-.1.8-.1 1.2 0 .3.1.6.3.8.6.2.3.4.6.5.9.1.5.1 1.1 0 1.6-1.4-.6-2.8-1.1-4.3-1.6l.6-.9c.4-.3.8-.5 1.2-.6zm-6.5-1.8c.3-.1.6-.1.9 0 .4.1.7.3 1 .6.3.3.5.7.7 1.2.1.4.1.8.1 1.2-1.5-.4-3-.7-4.5-.9.1-.4.3-.8.6-1.1.3-.5.7-.9 1.2-1zm-6.7-.8h.6c.5 0 1 .2 1.3.5.4.4.7.8.8 1.3.1.2.1.4.1.6-1.5-.1-3.1-.2-4.6-.1.1-.5.3-.9.5-1.3.3-.4.7-.8 1.3-1zm-8.2 1.4c.2-.3.3-.5.6-.7.2-.2.5-.3.7-.4h.3c.3-.1.5-.1.8 0 .4.1.8.4 1.1.7.3.4.6.8.7 1.3-1.5.1-3.1.3-4.6.6 0-.5.2-1 .4-1.5zM36 7.8c.1-.3.3-.6.5-.8.2-.2.5-.4.8-.4.3-.1.6-.1.9 0 .5.1 1 .4 1.3.7.3.3.5.7.7 1-.7.2-1.5.4-2.2.6-.7.2-1.5.5-2.2.7-.1-.6 0-1.2.2-1.8zm-6.3 2.5c.1-.3.2-.5.4-.7.2-.2.4-.4.6-.5l.3-.2c.3-.1.6-.1.8 0 .5.1 1 .3 1.3.6.3.2.5.5.8.8-1.4.6-2.8 1.2-4.2 2-.2-.6-.2-1.4 0-2zm-6 3.4c.1-.5.4-.9.8-1.1.2-.1.3-.2.5-.2.5-.1 1.1-.1 1.6.1.4.2.8.5 1.1.9-1.3.8-2.6 1.7-3.8 2.6-.1-.2-.2-.4-.2-.6-.1-.6-.1-1.2 0-1.7zM18.4 18c.1-.4.3-.8.6-1 .2-.2.5-.3.8-.4.5-.1 1-.1 1.5 0 .4.1.8.4 1.1.6-1.2 1-2.3 2-3.3 3.1-.2-.3-.4-.7-.5-1-.3-.4-.3-.8-.2-1.3zm-4.6 5.2c.1-.3.2-.6.4-.8.3-.3.6-.6 1-.7.4-.1.9-.1 1.3 0 .3.1.7.2 1 .4-1 1.2-2 2.4-2.8 3.7-.4-.4-.7-.9-.8-1.4-.1-.5-.1-.9-.1-1.2zm-3.5 5c.2-.2.3-.4.6-.5.2-.2.5-.3.8-.4.7-.2 1.4-.1 2 .1-.4.6-.8 1.3-1.2 2-.4.6-.7 1.3-1 2.1-.6-.4-1-1-1.2-1.7-.1-.2-.1-.5-.1-.8-.1-.3-.1-.5.1-.8zm-2.9 6.5c.1-.3.3-.6.6-.8.3-.2.6-.4.9-.5.5-.1 1.1-.1 1.6 0-.6 1.4-1.1 2.8-1.6 4.3-.3-.2-.6-.4-.8-.6-.3-.3-.6-.7-.7-1.2-.1-.4-.1-.8 0-1.2zm-1.9 6.8c.1-.4.3-.7.6-1 .3-.3.7-.5 1.2-.7.4-.1.8-.1 1.2-.1-.4 1.5-.6 3-.8 4.5-.4-.1-.8-.3-1.1-.6-.4-.3-.7-.8-.9-1.3-.2-.2-.2-.5-.2-.8zm-.7 7.7v-.6c0-.5.2-.9.5-1.3.4-.4.8-.7 1.3-.8.2 0 .4 0 .6-.1-.1 1.5-.2 3.1-.1 4.6-.5-.1-.9-.3-1.3-.5-.5-.3-.8-.8-1-1.3zm1.4 8.1c-.3-.2-.5-.3-.7-.6-.3-.3-.4-.6-.5-1-.1-.3-.1-.5 0-.8.1-.4.4-.8.7-1.1.4-.3.8-.6 1.3-.7.2 1.5.4 3.1.7 4.6-.4 0-1-.1-1.5-.4zM7.8 64c-.3-.1-.6-.3-.8-.5-.2-.2-.4-.5-.4-.8-.1-.3-.1-.6 0-.9.1-.5.4-1 .7-1.3.3-.3.7-.5 1-.6.2.7.4 1.5.6 2.2.2.7.5 1.5.7 2.2-.6 0-1.2-.1-1.8-.3zm2.5 6.3c-.3-.1-.5-.2-.7-.4-.2-.2-.4-.4-.5-.6-.1-.1-.1-.2-.2-.3-.1-.3-.1-.6 0-.8.1-.5.3-1 .6-1.3.2-.3.5-.5.7-.7.6 1.4 1.2 2.8 2 4.2-.6.1-1.3.1-1.9-.1zm3.4 6c-.5-.1-.9-.4-1.1-.8-.1-.2-.2-.3-.2-.5-.1-.5-.1-1.1.1-1.6.2-.4.5-.8.9-1.1.8 1.3 1.7 2.6 2.6 3.8-.2.1-.4.2-.6.2-.6.1-1.2.1-1.7 0zm5.7 5.2c-.4.1-.9.2-1.3.1s-.8-.3-1-.6c-.2-.2-.3-.5-.4-.8-.1-.5-.1-1 0-1.5.1-.4.4-.8.6-1.1 1 1.2 2 2.3 3.1 3.3-.4.3-.7.5-1 .6zm4.8 4.6c-.3.1-.7.1-1.1.1-.3 0-.6-.2-.9-.4-.3-.3-.6-.6-.7-1-.1-.4-.1-.9 0-1.3.1-.3.2-.7.4-1 1.2 1 2.4 2 3.6 2.8-.3.3-.7.6-1.3.8zm5.6 3.7c-.3.1-.5.1-.8.1-.3 0-.5-.1-.8-.2-.2-.1-.4-.3-.6-.5-.2-.2-.3-.5-.4-.7-.2-.7-.1-1.4.1-2 .6.4 1.3.8 2 1.2.6.4 1.3.7 2.1 1-.4.5-1 .9-1.6 1.1zm6.1 2.8c-.4.1-.8.1-1.2 0-.3-.1-.6-.3-.8-.6-.2-.3-.4-.6-.5-.9-.1-.5-.1-1.1 0-1.6 1.4.6 2.9 1.1 4.3 1.6-.2.3-.4.7-.7.9-.3.3-.7.5-1.1.6zm6.5 1.8c-.3.1-.6.1-.9 0-.4-.1-.7-.3-1-.6-.3-.3-.5-.7-.7-1.2-.1-.4-.1-.8-.1-1.2 1.5.4 3 .7 4.5.9-.1.4-.3.8-.6 1.1-.3.6-.7.9-1.2 1zm6.7.8h-.6c-.5 0-.9-.2-1.3-.5-.4-.4-.7-.8-.8-1.3-.1-.2-.1-.4-.1-.6 1.5.1 3.1.2 4.6.1-.1.5-.3.9-.5 1.3-.3.4-.7.8-1.3 1zm8.1-1.5c-.2.3-.3.5-.6.7-.2.2-.5.3-.7.4h-.3c-.3.1-.5.1-.8 0-.4-.1-.8-.4-1.1-.7-.3-.4-.6-.8-.7-1.3v-.1c1.5-.1 3.1-.3 4.6-.6 0 .6-.1 1.2-.4 1.6zm6.7-1.5c-.1.3-.3.6-.5.8-.2.2-.5.4-.8.4-.3.1-.6.1-.9 0-.5-.1-1-.4-1.3-.7-.3-.3-.5-.7-.7-1 .7-.2 1.5-.4 2.2-.6.7-.2 1.5-.5 2.2-.7.1.6.1 1.2-.2 1.8zm6.4-2.5c-.1.3-.2.5-.4.7-.2.2-.4.4-.6.5l-.3.2c-.3.1-.6.1-.8 0-.5-.1-1-.3-1.3-.6-.3-.2-.5-.5-.8-.8 1.4-.6 2.8-1.2 4.2-2 .2.6.2 1.4 0 2zm5.9-3.4c-.1.5-.4.9-.8 1.1-.2.1-.3.2-.5.2-.5.1-1.1.1-1.6-.1-.4-.2-.8-.5-1.1-.9 1.3-.8 2.6-1.7 3.8-2.6.1.2.2.4.2.6.1.6.2 1.2 0 1.7zm5.4-4.3c-.1.4-.3.8-.6 1-.2.2-.5.3-.8.4-.5.1-1 .1-1.5 0-.4-.1-.8-.4-1.1-.6 1.2-1 2.3-2 3.3-3.1.2.3.4.7.5 1 .2.4.2.8.2 1.3zm4.6-5.2c0 .3-.2.6-.4.9-.3.3-.6.6-1 .7-.4.1-.9.1-1.3 0-.3-.1-.7-.2-1-.4 1-1.2 2-2.4 2.8-3.6.4.4.7.8.8 1.3.1.4.1.8.1 1.1zm3.5-5c-.1.2-.3.4-.5.6-.2.2-.5.3-.7.4-.7.2-1.4.1-2-.1.4-.6.8-1.3 1.2-2s.7-1.3 1-2.1c.6.4 1 1 1.2 1.7.1.3.1.5.1.8-.1.2-.2.5-.3.7zm2.9-6.5c-.1.3-.3.6-.6.8-.3.2-.6.4-.9.5-.5.1-1.1.1-1.6 0 .6-1.4 1.1-2.9 1.6-4.3l.9.6c.3.3.6.7.7 1.2 0 .4.1.8-.1 1.2zm1.9-6.8c-.1.4-.3.7-.6 1-.3.3-.7.5-1.2.7-.4.1-.8.1-1.2.1.4-1.5.7-3 .9-4.5.4.1.8.3 1.1.6.4.3.7.8.9 1.2.1.3.1.6.1.9z"/><path d="M39.5 13.8c.9-.3 1.4-1.2 1.1-2-.3-.9-1.2-1.4-2-1.1-.9.3-1.4 1.2-1.1 2 .2.9 1.1 1.4 2 1.1zM33.7 16.1c.8-.4 1.2-1.4.8-2.2-.4-.8-1.4-1.2-2.2-.8-.8.4-1.2 1.4-.8 2.2.4.8 1.4 1.2 2.2.8zM28.3 19.2c.7-.5.9-1.5.4-2.3-.5-.7-1.5-.9-2.3-.4-.7.5-.9 1.5-.4 2.3.6.8 1.6.9 2.3.4zM23.5 23.2c.6-.6.6-1.7 0-2.3-.6-.6-1.7-.6-2.3 0-.6.6-.6 1.7 0 2.3.7.7 1.7.7 2.3 0zM19.5 27.9c.5-.7.4-1.8-.4-2.3-.7-.5-1.8-.4-2.3.4-.5.7-.4 1.7.4 2.3.7.5 1.8.4 2.3-.4zM14.1 34c.8.4 1.8.1 2.2-.7.4-.8.1-1.8-.7-2.2-.8-.4-1.8-.1-2.2.7-.5.8-.1 1.8.7 2.2zM11.9 40.1c.8.4 1.8.1 2.2-.7.4-.8.1-1.8-.7-2.2-.2-.1-.3-.1-.5-.2-.8-.3-1.8.1-2.1 1-.3.8.1 1.8 1 2.1.1 0 .1.1.1 0zM10.8 46.5c.9.2 1.7-.4 1.9-1.3.2-.9-.4-1.7-1.3-1.9s-1.7.4-1.9 1.3v.1c-.1.9.5 1.7 1.3 1.8zM12.4 51.3c0-.9-.8-1.6-1.7-1.6-.9 0-1.6.8-1.6 1.7 0 .9.8 1.6 1.7 1.6.9 0 1.6-.8 1.6-1.7zM13.1 57.5c-.2-.9-1.1-1.4-2-1.2-.8.2-1.4 1-1.2 1.8.2.9 1 1.5 1.9 1.3.9-.1 1.5-.9 1.3-1.9zM14.8 63.5c-.3-.8-1.3-1.3-2.1-.9-.8.3-1.3 1.3-.9 2.1.3.8 1.3 1.3 2.1.9.8-.3 1.3-1.3.9-2.1zM15.3 68.5c-.8.5-1 1.5-.6 2.2.5.8 1.5 1 2.2.6.8-.5 1-1.5.6-2.2-.4-.8-1.4-1.1-2.2-.6zM18.8 74c-.7.6-.8 1.6-.2 2.3s1.6.8 2.3.2c.7-.6.8-1.6.2-2.3-.5-.7-1.5-.8-2.3-.2zM23.2 78.8c-.6.7-.5 1.7.2 2.3.7.6 1.7.5 2.3-.2.6-.7.5-1.7-.2-2.3-.7-.6-1.7-.5-2.3.2zM30.5 82.2c-.8-.5-1.8-.2-2.2.6-.5.8-.2 1.8.6 2.2s1.8.2 2.2-.6c.4-.7.2-1.7-.6-2.2zM36.1 85c-.8-.3-1.8.1-2.1 1-.3.8.1 1.8 1 2.1.8.3 1.8-.1 2.1-.9.3-.9-.1-1.9-1-2.2zM42 86.8c-.9-.2-1.7.4-1.9 1.3-.2.9.4 1.7 1.3 1.9.9.2 1.7-.4 1.9-1.2.2-.9-.4-1.8-1.3-2zM48.2 87.6c-.9 0-1.7.7-1.7 1.6 0 .9.7 1.7 1.6 1.7.9 0 1.7-.7 1.7-1.6 0-.9-.7-1.6-1.6-1.7zM54.5 87.4c-.9.1-1.5.9-1.4 1.8.1.9.9 1.5 1.8 1.4.9-.1 1.5-.9 1.4-1.8-.1-.9-.9-1.5-1.8-1.4zM60.5 86.2c-.9.3-1.4 1.2-1.1 2 .3.9 1.2 1.4 2 1.1.9-.3 1.4-1.2 1.1-2-.2-.9-1.1-1.4-2-1.1zM66.3 83.9c-.8.4-1.2 1.4-.8 2.2.4.8 1.4 1.2 2.2.8.8-.4 1.2-1.4.8-2.2-.4-.8-1.4-1.2-2.2-.8zM71.7 80.8c-.7.5-.9 1.5-.4 2.3.5.7 1.5.9 2.3.4s.9-1.5.4-2.3c-.6-.8-1.6-.9-2.3-.4zM76.5 76.8c-.6.6-.6 1.7 0 2.3.6.6 1.7.6 2.3 0 .6-.6.6-1.7 0-2.3-.7-.6-1.7-.7-2.3 0zM80.5 72.1c-.5.7-.4 1.8.4 2.3s1.8.4 2.3-.4c.5-.7.4-1.7-.4-2.3-.7-.5-1.8-.4-2.3.4zM85.9 66c-.8-.4-1.8-.1-2.2.7-.4.8-.1 1.8.7 2.2.8.4 1.8.1 2.2-.7.4-.8.1-1.8-.7-2.2zM88.1 59.9c-.8-.3-1.8.1-2.1 1s.1 1.8 1 2.1c.1 0 .1 0 .2.1.8.3 1.8-.1 2.1-1 .3-.8-.1-1.8-1-2.1-.1-.1-.2-.1-.2-.1zM89.2 53.5c-.9-.2-1.7.4-1.9 1.3-.2.9.4 1.7 1.3 1.9.9.2 1.7-.4 1.9-1.3v-.1c.1-.9-.5-1.7-1.3-1.8zM87.6 48.7c0 .9.8 1.6 1.7 1.6s1.6-.8 1.6-1.7c0-.9-.8-1.6-1.7-1.6-.9 0-1.6.8-1.6 1.7zM88.2 40.6c-.9.2-1.5 1-1.3 1.9.2.9 1 1.5 1.9 1.3.9-.2 1.4-1 1.3-1.9-.1-.9-1-1.5-1.9-1.3zM85.2 36.5c.3.8 1.3 1.3 2.1.9.8-.3 1.3-1.3.9-2.1s-1.3-1.3-2.1-.9c-.8.3-1.3 1.3-.9 2.1zM84.7 31.5c.8-.5 1-1.5.6-2.2-.5-.8-1.5-1-2.2-.6-.8.5-1 1.5-.6 2.2.4.8 1.4 1.1 2.2.6zM81.3 26.1c.7-.6.8-1.6.2-2.3-.6-.7-1.6-.8-2.3-.2-.7.6-.8 1.6-.2 2.3.5.6 1.6.7 2.3.2zM76.8 21.2c.6-.7.5-1.7-.2-2.3s-1.7-.5-2.3.2-.5 1.7.2 2.3c.7.6 1.7.5 2.3-.2zM69.5 17.8c.8.5 1.8.2 2.2-.6s.2-1.8-.6-2.2c-.8-.5-1.8-.2-2.2.6-.4.7-.2 1.7.6 2.2zM63.9 15c.8.3 1.8-.1 2.1-.9.3-.8-.1-1.8-.9-2.1-.8-.3-1.8.1-2.1.9v.1c-.3.8.1 1.7.9 2zM58 13.2c.9.2 1.7-.4 1.9-1.3.2-.9-.4-1.7-1.3-1.9-.9-.2-1.7.4-1.9 1.2-.2.9.4 1.8 1.3 2zM51.8 12.4c.9 0 1.7-.7 1.7-1.6 0-.9-.7-1.7-1.6-1.7-.9 0-1.7.7-1.7 1.6 0 .9.7 1.6 1.6 1.7zM45.6 12.6c.9-.1 1.5-.9 1.4-1.8-.1-.9-.9-1.5-1.8-1.4-.9.1-1.5.9-1.4 1.8 0 .9.9 1.5 1.8 1.4z"/><path d="M60.4 85.6c19.7-5.7 31-26.3 25.3-45.9s-26.3-31-45.9-25.3-31 26.3-25.3 45.9c2.7 9.5 9.1 17.4 17.8 22.2 8.5 4.7 18.6 5.8 28.1 3.1zM15.7 60C10.2 41 21 21.2 39.9 15.6s38.8 5.3 44.3 24.2S79 78.7 60 84.2c-9.1 2.7-18.9 1.6-27.2-3-8.3-4.5-14.4-12.1-17.1-21.2z"/><path d="M97.2 36.3c-7.6-26-34.8-41-60.9-33.4s-41 34.8-33.4 60.9 34.8 41 60.9 33.4c12.4-3.7 23-12.1 29.2-23.6 6.3-11.4 7.8-24.8 4.2-37.3zM91.8 73C79.1 96.1 50.1 104.5 27 91.8S-4.5 50.1 8.2 27 49.9-4.5 73 8.2c11.1 6.1 19.3 16.3 22.8 28.5 3.6 12.1 2.2 25.2-4 36.3z"/></svg>