<?xml version="1.0" standalone="no"?>
<!DOCTYPE svg PUBLIC "-//W3C//DTD SVG 1.1//EN" "http://www.w3.org/Graphics/SVG/1.1/DTD/svg11.dtd">
<svg xmlns="http://www.w3.org/2000/svg" xmlns:xlink="http://www.w3.org/1999/xlink" version="1.0" id="Layer_1" x="0px" y="0px" viewBox="0 0 100 100" style="enable-background:new 0 0 100 100;" xml:space="preserve" width="100" height="100">
<title>Asset 7</title>
<g>
	<g id="Layer_1-2">
		<path d="M71.7,50c0-12-9.7-21.8-21.7-21.8c-12,0-21.8,9.7-21.8,21.7s9.7,21.8,21.7,21.8c5.8,0,11.3-2.3,15.4-6.4    C69.5,61.3,71.7,55.8,71.7,50z M50,70.3c-11.2,0-20.3-9.1-20.4-20.3c0-11.2,9.1-20.3,20.3-20.4c11.2,0,20.3,9.1,20.4,20.3    c0,5.4-2.1,10.6-6,14.4C60.6,68.2,55.4,70.4,50,70.3z"/>
		<path d="M51.5,80.9c0.7-0.4,1.3-1,1.7-1.7c0.2-0.4,0.4-0.9,0.5-1.3c0.3,0.5,0.6,1,1.1,1.4c0.3,0.3,0.7,0.5,1.2,0.7    c0.4,0.2,0.9,0.3,1.3,0.3c0.3,0,0.6,0,0.8-0.1c0.4-0.1,0.8-0.3,1.2-0.6c0.5-0.4,0.9-0.9,1.2-1.5c0.3-0.6,0.4-1.3,0.4-1.9    c0-0.1,0-0.2,0-0.2c0.3,0.3,0.6,0.6,1,0.9c0.6,0.4,1.4,0.6,2.2,0.7c0.6,0,1.2-0.2,1.7-0.4c0.6-0.3,1-0.8,1.3-1.3    c0.3-0.6,0.4-1.2,0.4-1.9c0-0.5-0.1-1-0.3-1.5c0.7,0.5,1.6,0.8,2.5,0.8c0.5,0,0.9-0.1,1.3-0.2c0.9-0.3,1.6-1,1.9-1.9    c0.2-0.4,0.2-0.9,0.2-1.3c0-0.9-0.3-1.7-0.8-2.5c0.5,0.2,1,0.2,1.5,0.2c0.7,0,1.3-0.1,1.9-0.4c0.6-0.3,1-0.8,1.3-1.3    c0.3-0.5,0.4-1.1,0.4-1.7c0-0.8-0.2-1.5-0.7-2.2c-0.2-0.4-0.5-0.7-0.9-1h0.2c0.9,0,1.7-0.2,2.5-0.7c0.3-0.2,0.7-0.5,0.9-0.8    c0.3-0.3,0.5-0.7,0.6-1.2c0.1-0.3,0.1-0.6,0.1-0.8c0-0.5-0.1-0.9-0.3-1.3c-0.3-0.6-0.7-1.2-1.2-1.6c-0.3-0.2-0.6-0.4-0.9-0.6    c0.7-0.2,1.4-0.5,2-0.9c0.4-0.3,0.7-0.7,1-1.2c0.5-1,0.5-2.1,0-3.1c-0.4-0.7-1-1.3-1.7-1.7c-0.4-0.2-0.9-0.4-1.3-0.5    c0.5-0.3,1-0.6,1.4-1.1c0.3-0.3,0.5-0.7,0.7-1.2c0.2-0.4,0.3-0.9,0.3-1.3c0-0.3,0-0.6-0.1-0.8c-0.1-0.4-0.3-0.8-0.6-1.2    c-0.4-0.5-0.9-0.9-1.5-1.2c-0.6-0.3-1.3-0.4-1.9-0.4H76c0.3-0.3,0.6-0.6,0.9-1c0.4-0.6,0.6-1.4,0.7-2.2c0-0.6-0.1-1.1-0.4-1.6    c-0.3-0.6-0.8-1-1.3-1.3c-0.6-0.3-1.2-0.4-1.9-0.4c-0.5,0-1,0.1-1.5,0.3c0.5-0.7,0.7-1.6,0.7-2.5c0-0.5-0.1-0.9-0.2-1.3    c-0.3-0.9-1-1.6-1.9-1.9c-0.4-0.2-0.9-0.2-1.3-0.2c-0.9,0-1.8,0.3-2.5,0.8c0.2-0.5,0.2-1,0.3-1.5c0-0.7-0.1-1.3-0.4-1.9    c-0.3-0.6-0.8-1-1.3-1.3c-0.5-0.3-1.1-0.4-1.7-0.4c-0.8,0-1.5,0.2-2.2,0.7c-0.4,0.2-0.7,0.5-1,0.9c0-0.1,0-0.2,0-0.2    c0-0.9-0.2-1.7-0.7-2.5c-0.2-0.3-0.5-0.7-0.8-0.9c-0.3-0.3-0.7-0.5-1.2-0.6c-0.3-0.1-0.6-0.1-0.8-0.1c-0.5,0-0.9,0.1-1.3,0.3    c-0.6,0.3-1.2,0.7-1.6,1.2c-0.2,0.3-0.4,0.6-0.6,0.9c-0.1-0.7-0.5-1.4-0.9-2c-0.3-0.4-0.7-0.7-1.2-1c-1-0.5-2.1-0.5-3.1,0    c-0.7,0.4-1.3,1-1.7,1.7c-0.2,0.4-0.4,0.9-0.5,1.3c-0.3-0.5-0.6-1-1.1-1.4c-0.3-0.3-0.7-0.6-1.2-0.7c-0.4-0.2-0.9-0.3-1.3-0.3    c-0.3,0-0.6,0-0.8,0.1c-0.4,0.1-0.8,0.3-1.2,0.6c-0.5,0.4-0.9,0.9-1.2,1.5c-0.3,0.6-0.4,1.3-0.4,1.9c0,0.1,0,0.2,0,0.2    c-0.3-0.3-0.6-0.6-1-0.9c-0.6-0.4-1.4-0.6-2.2-0.7c-0.6,0-1.2,0.2-1.7,0.4c-0.6,0.3-1,0.8-1.3,1.3c-0.3,0.6-0.4,1.2-0.4,1.9    c0,0.5,0.1,1,0.2,1.5c-0.7-0.5-1.5-0.7-2.4-0.8c-0.5,0-0.9,0.1-1.3,0.2c-0.9,0.3-1.6,1-1.9,1.9c-0.2,0.4-0.2,0.9-0.2,1.3    c0,0.9,0.3,1.7,0.8,2.5c-0.5-0.2-1-0.2-1.5-0.2c-0.7,0-1.3,0.1-1.9,0.4c-0.6,0.3-1,0.8-1.3,1.3c-0.3,0.5-0.4,1.1-0.4,1.7    c0,0.8,0.2,1.5,0.7,2.2c0.2,0.4,0.5,0.7,0.9,1h-0.2c-0.9,0-1.7,0.2-2.5,0.7c-0.3,0.2-0.7,0.5-0.9,0.8c-0.3,0.3-0.5,0.7-0.6,1.2    c-0.1,0.3-0.1,0.6-0.1,0.8c0,0.5,0.1,0.9,0.3,1.3c0.3,0.6,0.7,1.2,1.2,1.6c0.3,0.2,0.6,0.4,0.9,0.6c-0.7,0.1-1.4,0.5-2,0.9    c-0.4,0.3-0.7,0.7-1,1.2c-0.5,1-0.5,2.1,0,3.1c0.4,0.7,1,1.3,1.7,1.7c0.4,0.2,0.9,0.4,1.3,0.5c-0.5,0.3-1,0.6-1.4,1.1    c-0.3,0.3-0.5,0.7-0.7,1.2c-0.2,0.4-0.3,0.9-0.3,1.3c0,0.3,0,0.6,0.1,0.8c0.1,0.4,0.3,0.8,0.6,1.2c0.4,0.5,0.9,0.9,1.5,1.2    c0.6,0.3,1.3,0.4,1.9,0.4h0.2c-0.3,0.3-0.6,0.6-0.9,1c-0.4,0.6-0.6,1.4-0.7,2.2c0,0.6,0.2,1.2,0.4,1.7c0.3,0.6,0.8,1,1.3,1.3    c0.6,0.3,1.2,0.4,1.9,0.4c0.5,0,1-0.1,1.5-0.2c-0.5,0.7-0.8,1.6-0.8,2.5c0,0.5,0.1,0.9,0.2,1.3c0.3,0.8,1,1.5,1.8,1.8    c0.4,0.2,0.9,0.2,1.3,0.2c0.9,0,1.7-0.3,2.5-0.8c-0.2,0.5-0.2,1-0.2,1.5c0,0.7,0.1,1.3,0.4,1.9c0.3,0.6,0.8,1,1.3,1.3    c0.5,0.3,1.1,0.4,1.7,0.4c0.8,0,1.5-0.2,2.2-0.7c0.4-0.2,0.7-0.5,1-0.9c0,0.1,0,0.2,0,0.2c0,0.9,0.2,1.7,0.7,2.5    c0.2,0.3,0.5,0.7,0.8,0.9c0.3,0.3,0.7,0.5,1.2,0.6c0.3,0.1,0.6,0.1,0.8,0.1c0.5,0,0.9-0.1,1.3-0.3c0.6-0.3,1.2-0.7,1.7-1.2    c0.2-0.3,0.4-0.6,0.6-0.9c0.1,0.7,0.4,1.4,0.9,2c0.3,0.4,0.7,0.7,1.2,1C49.4,81.4,50.6,81.4,51.5,80.9L51.5,80.9z M31.6,68.4    c-10.2-10.2-10.2-26.7,0-36.9s26.7-10.2,36.9,0s10.2,26.7,0,36.9c-4.9,4.9-11.5,7.6-18.4,7.6C43.1,76.1,36.4,73.4,31.6,68.4z     M58.9,78c-0.1,0.2-0.3,0.4-0.5,0.6c-0.2,0.1-0.4,0.3-0.7,0.3c-0.2,0-0.3,0-0.5,0c-0.3,0-0.5-0.1-0.8-0.2    c-0.4-0.2-0.8-0.5-1.1-0.8c-0.2-0.3-0.4-0.6-0.5-0.9c1.6-0.3,3.1-0.7,4.6-1.2c0,0.2,0.1,0.3,0.1,0.5C59.5,76.8,59.3,77.5,58.9,78z     M65.7,75.1c-0.2,0.3-0.4,0.6-0.8,0.8c-0.3,0.2-0.6,0.3-1,0.3c-0.5,0-1-0.2-1.5-0.4c-0.3-0.2-0.6-0.5-0.9-0.9    c1.4-0.7,2.7-1.5,4-2.3c0.2,0.4,0.3,0.9,0.3,1.3C65.9,74.3,65.9,74.7,65.7,75.1z M71.6,70.5c-0.1,0.2-0.2,0.5-0.4,0.7    c-0.2,0.2-0.4,0.3-0.7,0.4c-0.3,0.1-0.5,0.1-0.8,0.1c-0.7,0-1.4-0.3-2-0.7c0.6-0.5,1.2-1,1.8-1.6c0.6-0.6,1.1-1.2,1.6-1.8    c0.4,0.6,0.7,1.3,0.7,2C71.7,70,71.7,70.3,71.6,70.5z M76.2,64c0,0.3-0.1,0.7-0.3,1c-0.2,0.3-0.5,0.6-0.8,0.8    c-0.4,0.2-0.8,0.3-1.2,0.3c-0.5,0-0.9-0.1-1.3-0.3c0.9-1.3,1.7-2.6,2.3-4c0.3,0.2,0.6,0.6,0.9,0.9C76,63,76.1,63.5,76.2,64    L76.2,64z M78.9,56.5C79,56.8,79,57,79,57.3c0,0.2,0,0.3,0,0.5c-0.1,0.3-0.2,0.5-0.4,0.7c-0.3,0.3-0.6,0.6-1,0.7    c-0.4,0.2-0.9,0.3-1.3,0.3c-0.1,0-0.3,0-0.5-0.1c0.5-1.5,1-3,1.2-4.5c0.5,0.2,1,0.5,1.3,0.9C78.5,56,78.7,56.2,78.9,56.5    L78.9,56.5z M79.7,49.1c0.3,0.6,0.3,1.2,0,1.8c-0.3,0.5-0.6,0.8-1.1,1.1c-0.4,0.2-0.8,0.3-1.2,0.4c0-0.8,0.1-1.6,0.1-2.4    s0-1.6-0.1-2.4c0.6,0.1,1.2,0.3,1.7,0.7C79.3,48.5,79.6,48.8,79.7,49.1z M78,41.1c0.2,0.1,0.4,0.3,0.6,0.5    c0.1,0.2,0.3,0.4,0.3,0.7c0,0.2,0,0.3,0,0.5c0,0.3-0.1,0.5-0.2,0.8c-0.2,0.4-0.5,0.8-0.8,1.1c-0.3,0.2-0.6,0.4-0.9,0.5    c-0.3-1.6-0.7-3.1-1.2-4.6c0.2,0,0.3-0.1,0.5-0.1C76.8,40.6,77.5,40.7,78,41.1z M75.1,34.3c0.3,0.2,0.6,0.4,0.8,0.8    c0.2,0.3,0.3,0.6,0.3,1c0,0.5-0.2,1-0.4,1.4c-0.2,0.3-0.5,0.6-0.9,0.9c-0.7-1.4-1.4-2.8-2.3-4c0.4-0.2,0.9-0.3,1.3-0.3    C74.3,34,74.7,34.1,75.1,34.3z M70.5,28.4c0.3,0.1,0.5,0.2,0.7,0.4c0.2,0.2,0.3,0.4,0.4,0.7c0.1,0.3,0.1,0.6,0.1,0.8    c0,0.7-0.3,1.4-0.7,2c-0.5-0.6-1-1.2-1.6-1.8c-0.6-0.6-1.2-1.1-1.8-1.6c0.6-0.4,1.3-0.7,2-0.7C70,28.3,70.3,28.3,70.5,28.4z     M62.5,24.3c0.4-0.3,0.9-0.4,1.4-0.4c0.3,0,0.7,0.1,1,0.3c0.3,0.2,0.6,0.5,0.8,0.8c0.2,0.4,0.3,0.8,0.3,1.2c0,0.5-0.1,0.9-0.3,1.3    c-1.3-0.9-2.6-1.7-4-2.3C61.9,24.8,62.2,24.5,62.5,24.3z M56.4,21.2c0.3-0.1,0.5-0.2,0.8-0.2c0.2,0,0.3,0,0.5,0.1    c0.2,0.1,0.5,0.2,0.7,0.3c0.3,0.3,0.6,0.6,0.7,1c0.2,0.4,0.3,0.9,0.3,1.3c0,0.1,0,0.3-0.1,0.5c-1.5-0.5-3-1-4.5-1.2    c0.2-0.5,0.5-1,0.9-1.3C55.9,21.4,56.2,21.3,56.4,21.2L56.4,21.2z M49.1,20.3c0.6-0.3,1.2-0.3,1.8,0c0.5,0.3,0.8,0.6,1.1,1.1    c0.2,0.4,0.3,0.8,0.4,1.2c-0.8,0-1.6-0.1-2.4-0.1s-1.6,0-2.4,0.1c0.1-0.6,0.3-1.2,0.7-1.7C48.5,20.7,48.8,20.5,49.1,20.3z     M41.1,22c0.1-0.2,0.3-0.4,0.5-0.6c0.2-0.1,0.4-0.3,0.7-0.3c0.2,0,0.3-0.1,0.5-0.1c0.3,0,0.5,0.1,0.8,0.2c0.4,0.2,0.8,0.5,1.1,0.8    c0.2,0.3,0.4,0.6,0.5,0.9c-1.6,0.3-3.1,0.7-4.6,1.2c0-0.2-0.1-0.3-0.1-0.5C40.6,23.1,40.7,22.5,41.1,22z M34.3,24.9    c0.2-0.3,0.4-0.6,0.8-0.8c0.3-0.2,0.6-0.3,1-0.3c0.5,0,1,0.2,1.4,0.4c0.3,0.2,0.6,0.5,0.9,0.9c-1.4,0.7-2.8,1.4-4.1,2.3    C34.1,27,34,26.6,34,26.1C34,25.7,34.1,25.3,34.3,24.9z M28.4,29.5c0.2-0.5,0.6-0.9,1.1-1.1c0.3-0.1,0.6-0.1,0.8-0.1    c0.7,0,1.4,0.3,2,0.7c-0.6,0.5-1.2,1-1.8,1.6s-1.1,1.1-1.6,1.8c-0.5-0.6-0.7-1.2-0.8-2C28.3,30.1,28.3,29.8,28.4,29.5z M23.8,36    c0-0.3,0.1-0.7,0.3-1c0.2-0.3,0.5-0.6,0.8-0.8c0.4-0.2,0.8-0.3,1.2-0.3c0.5,0,0.9,0.1,1.3,0.3c-0.9,1.3-1.7,2.7-2.4,4.1    c-0.3-0.2-0.6-0.6-0.9-0.9C24,37.1,23.8,36.5,23.8,36z M21.1,43.5C21,43.3,21,43,21,42.7c0-0.2,0-0.3,0.1-0.5    c0.1-0.2,0.2-0.5,0.3-0.7c0.3-0.3,0.6-0.6,1-0.7c0.4-0.2,0.9-0.3,1.3-0.3c0.1,0,0.3,0,0.5,0.1c-0.5,1.5-1,3-1.2,4.5    c-0.5-0.2-1-0.5-1.3-0.9C21.4,44.1,21.3,43.8,21.1,43.5L21.1,43.5z M20.3,50.9c-0.3-0.6-0.3-1.2,0-1.8c0.3-0.5,0.6-0.8,1.1-1.1    c0.4-0.2,0.8-0.3,1.2-0.4c0,0.8-0.1,1.6-0.1,2.4s0,1.6,0.1,2.4C22,52.3,21.4,52,21,51.7C20.7,51.5,20.5,51.2,20.3,50.9L20.3,50.9z     M22,58.9c-0.2-0.1-0.4-0.3-0.6-0.5c-0.1-0.2-0.3-0.4-0.3-0.7c0-0.2-0.1-0.3-0.1-0.5c0-0.3,0.1-0.5,0.2-0.8    c0.2-0.4,0.5-0.8,0.8-1.1c0.3-0.2,0.6-0.4,0.9-0.5c0.3,1.6,0.7,3.1,1.2,4.6c-0.2,0-0.3,0.1-0.5,0.1C23.1,59.4,22.5,59.2,22,58.9    L22,58.9z M24.9,65.7c-0.3-0.2-0.6-0.4-0.8-0.8c-0.2-0.3-0.3-0.6-0.3-1c0-0.5,0.2-1,0.5-1.5c0.2-0.3,0.5-0.6,0.9-0.9    c0.7,1.4,1.5,2.7,2.3,4c-0.4,0.2-0.9,0.3-1.3,0.3C25.7,65.9,25.3,65.9,24.9,65.7L24.9,65.7z M29.5,71.6c-0.5-0.2-0.9-0.6-1.1-1.1    c-0.1-0.3-0.1-0.6-0.1-0.8c0-0.7,0.3-1.4,0.8-2c0.5,0.6,1,1.2,1.6,1.8s1.2,1.1,1.8,1.6c-0.6,0.4-1.3,0.7-2,0.7    C30.1,71.7,29.8,71.7,29.5,71.6L29.5,71.6z M37.4,75.7C37,76,36.5,76.2,36,76.2c-0.3,0-0.7-0.1-1-0.3c-0.3-0.2-0.6-0.5-0.8-0.8    c-0.2-0.4-0.3-0.8-0.3-1.2c0-0.5,0.1-0.9,0.3-1.3c1.3,0.9,2.7,1.7,4.1,2.4C38.1,75.2,37.8,75.5,37.4,75.7L37.4,75.7z M43.5,78.8    C43.2,78.9,43,79,42.7,79c-0.2,0-0.3,0-0.5,0c-0.2-0.1-0.5-0.2-0.7-0.3c-0.3-0.3-0.6-0.6-0.7-1c-0.2-0.4-0.3-0.9-0.3-1.3    c0-0.1,0-0.3,0.1-0.5c1.5,0.5,3,1,4.5,1.2c-0.2,0.5-0.5,1-0.9,1.3C44,78.6,43.8,78.7,43.5,78.8L43.5,78.8z M48,78.6    c-0.2-0.4-0.3-0.8-0.4-1.2c0.8,0,1.6,0.1,2.4,0.1s1.6,0,2.4-0.1c-0.1,0.6-0.3,1.2-0.7,1.7c-0.2,0.3-0.5,0.5-0.8,0.6    c-0.6,0.3-1.2,0.3-1.8,0C48.6,79.4,48.3,79,48,78.6z"/>
		<path d="M50,27.8c0.9,0,1.7-0.7,1.7-1.7c0-0.9-0.7-1.7-1.7-1.7s-1.7,0.7-1.7,1.7C48.3,27,49.1,27.8,50,27.8z"/>
		<path d="M45.4,28.3c0.9-0.2,1.5-1.1,1.3-2c-0.2-0.9-1.1-1.5-2-1.3c-0.9,0.2-1.5,1-1.3,1.9C43.6,27.8,44.4,28.4,45.4,28.3    C45.3,28.3,45.4,28.3,45.4,28.3z"/>
		<path d="M41,29.7c0.8-0.4,1.2-1.4,0.8-2.2c-0.4-0.8-1.4-1.2-2.2-0.8c-0.8,0.4-1.2,1.4-0.8,2.2c0,0,0,0,0,0    C39.1,29.7,40.1,30.1,41,29.7C40.9,29.7,41,29.7,41,29.7z"/>
		<path d="M36.9,32c0.7-0.6,0.9-1.6,0.3-2.3s-1.6-0.9-2.3-0.3s-0.9,1.6-0.3,2.3l0,0C35.2,32.4,36.2,32.6,36.9,32z"/>
		<path d="M33.5,35.1c0.6-0.7,0.6-1.7-0.1-2.4c-0.7-0.6-1.7-0.6-2.4,0.1c-0.6,0.7-0.6,1.7,0.1,2.4C31.8,35.9,32.9,35.8,33.5,35.1z"/>
		<path d="M28.5,39.5c0.8,0.5,1.8,0.2,2.3-0.6c0.5-0.8,0.2-1.8-0.6-2.3c-0.8-0.5-1.8-0.2-2.3,0.6C27.4,38,27.7,39,28.5,39.5    C28.5,39.5,28.5,39.5,28.5,39.5z"/>
		<path d="M26.7,44.2c0.9,0.3,1.8-0.2,2.1-1.1c0.3-0.9-0.2-1.8-1.1-2.1c-0.9-0.3-1.8,0.2-2.1,1.1C25.4,43,25.9,43.9,26.7,44.2z"/>
		<path d="M26.1,49.2c0.9,0.1,1.7-0.6,1.8-1.5s-0.6-1.7-1.5-1.8c-0.9-0.1-1.7,0.6-1.8,1.5C24.5,48.2,25.1,49.1,26.1,49.2z"/>
		<path d="M27.9,52.3c-0.1-0.9-0.9-1.6-1.8-1.5c-0.9,0.1-1.6,0.9-1.5,1.8c0.1,0.9,0.9,1.6,1.8,1.5C27.3,54.1,28,53.2,27.9,52.3z"/>
		<path d="M28.9,56.9c-0.3-0.9-1.2-1.4-2.1-1.1c-0.9,0.3-1.4,1.2-1.1,2.1l0,0c0.3,0.9,1.2,1.4,2.1,1.1    C28.7,58.7,29.1,57.8,28.9,56.9z"/>
		<path d="M30.8,61.2c-0.5-0.8-1.5-1.1-2.3-0.6c-0.8,0.5-1.1,1.5-0.6,2.3l0,0c0.5,0.8,1.5,1.1,2.3,0.6C30.9,63,31.2,62,30.8,61.2z"/>
		<path d="M31.1,64.7c-0.7,0.6-0.7,1.7-0.1,2.4s1.7,0.7,2.4,0.1c0.7-0.6,0.7-1.7,0.1-2.4C32.9,64.2,31.8,64.1,31.1,64.7z"/>
		<path d="M34.6,68.4c-0.5,0.8-0.4,1.8,0.4,2.3c0.8,0.5,1.8,0.4,2.3-0.4c0.5-0.7,0.4-1.8-0.4-2.3C36.2,67.4,35.1,67.6,34.6,68.4    C34.6,68.3,34.6,68.4,34.6,68.4z"/>
		<path d="M41,70.3c-0.8-0.4-1.8-0.2-2.3,0.7s-0.2,1.8,0.7,2.3c0.1,0,0.2,0.1,0.3,0.1c0.8,0.4,1.8,0.2,2.3-0.7    c0.4-0.8,0.2-1.8-0.7-2.3C41.1,70.4,41.1,70.3,41,70.3z"/>
		<path d="M45.4,71.7c-0.9-0.2-1.8,0.4-1.9,1.3c-0.2,0.9,0.4,1.8,1.3,1.9c0.9,0.2,1.8-0.4,1.9-1.3C46.9,72.8,46.3,71.9,45.4,71.7    C45.4,71.7,45.4,71.7,45.4,71.7z"/>
		<path d="M51.7,73.9c0-0.9-0.7-1.7-1.7-1.7s-1.7,0.7-1.7,1.7c0,0.9,0.7,1.7,1.7,1.7S51.7,74.8,51.7,73.9z"/>
		<path d="M54.6,71.7c-0.9,0.2-1.5,1.1-1.3,2c0.2,0.9,1.1,1.5,2,1.3c0.9-0.2,1.5-1,1.3-1.9C56.4,72.2,55.6,71.6,54.6,71.7    C54.6,71.7,54.6,71.7,54.6,71.7z"/>
		<path d="M59,70.3c-0.8,0.4-1.2,1.4-0.8,2.2c0.4,0.8,1.4,1.2,2.2,0.8s1.2-1.4,0.8-2.2c0,0,0,0,0,0C60.9,70.3,59.9,69.9,59,70.3    C59.1,70.3,59.1,70.3,59,70.3z"/>
		<path d="M63.1,68c-0.7,0.5-0.9,1.6-0.4,2.3c0.5,0.7,1.6,0.9,2.3,0.4c0.7-0.5,0.9-1.6,0.4-2.3C64.9,67.6,63.8,67.4,63.1,68z"/>
		<path d="M66.5,64.9c-0.6,0.7-0.6,1.7,0.1,2.4c0.7,0.6,1.7,0.6,2.4-0.1c0.6-0.7,0.6-1.7-0.1-2.4C68.2,64.1,67.1,64.2,66.5,64.9z"/>
		<path d="M71.5,60.5c-0.8-0.5-1.8-0.2-2.3,0.6c-0.5,0.8-0.2,1.8,0.6,2.3l0,0c0.8,0.5,1.8,0.2,2.3-0.6C72.6,62,72.3,61,71.5,60.5z"/>
		<path d="M73.2,55.8c-0.9-0.3-1.8,0.2-2.1,1.1c-0.3,0.9,0.2,1.8,1.1,2.1c0.9,0.3,1.8-0.2,2.1-1.1C74.6,57,74.1,56.1,73.2,55.8z"/>
		<path d="M74,50.8c-0.9-0.1-1.7,0.6-1.8,1.5s0.6,1.7,1.5,1.8c0.9,0.1,1.7-0.6,1.8-1.5C75.5,51.8,74.9,50.9,74,50.8z"/>
		<path d="M72.1,47.7c0.1,0.9,0.9,1.6,1.8,1.5c0.9-0.1,1.6-0.9,1.5-1.8c-0.1-0.9-0.9-1.6-1.8-1.5C72.7,45.9,72,46.8,72.1,47.7z"/>
		<path d="M71.1,43.1c0.3,0.9,1.2,1.4,2.1,1.1c0.9-0.3,1.4-1.2,1.1-2.1c-0.3-0.9-1.2-1.4-2.1-1.1S70.9,42.2,71.1,43.1L71.1,43.1z"/>
		<path d="M69.2,38.9c0.5,0.8,1.5,1.1,2.3,0.6c0.8-0.5,1.1-1.5,0.6-2.3c-0.5-0.8-1.5-1.1-2.3-0.6C69,37,68.7,38.1,69.2,38.9    C69.2,38.9,69.2,38.9,69.2,38.9z"/>
		<path d="M68.9,35.3c0.7-0.6,0.7-1.7,0.1-2.4c-0.6-0.7-1.7-0.7-2.4-0.1c-0.7,0.6-0.7,1.7-0.1,2.4C67.1,35.8,68.2,35.9,68.9,35.3z"/>
		<path d="M65.4,31.7c0.5-0.8,0.4-1.8-0.4-2.3c-0.8-0.5-1.8-0.4-2.3,0.4c-0.5,0.7-0.4,1.8,0.4,2.3C63.8,32.6,64.9,32.4,65.4,31.7    C65.4,31.7,65.4,31.7,65.4,31.7z"/>
		<path d="M59,29.7c0.8,0.4,1.8,0.2,2.3-0.7c0.4-0.8,0.2-1.8-0.7-2.3c-0.1,0-0.2-0.1-0.3-0.1c-0.8-0.4-1.8-0.2-2.3,0.7    c-0.4,0.8-0.2,1.8,0.7,2.3C58.9,29.6,58.9,29.7,59,29.7z"/>
		<path d="M54.6,28.3c0.9,0.1,1.8-0.5,1.9-1.4c0.1-0.8-0.4-1.6-1.2-1.9c-0.9-0.2-1.8,0.4-2,1.3C53.1,27.2,53.7,28.1,54.6,28.3    L54.6,28.3L54.6,28.3z"/>
		<path d="M50,35.1c-8.2,0-14.9,6.7-14.9,14.9S41.8,64.9,50,64.9c8.2,0,14.9-6.7,14.9-14.9S58.2,35.1,50,35.1    C50,35.1,50,35.1,50,35.1z M50,53.9c-2.2,0-3.9-1.8-3.9-3.9c0-2.2,1.8-3.9,3.9-3.9c2.2,0,3.9,1.8,3.9,3.9    C53.9,52.2,52.2,53.9,50,53.9L50,53.9z"/>
		<path d="M94.4,55.3c-0.2-0.2-0.5-0.3-0.7-0.5c0.8-0.2,1.5-0.6,2-1.2c0.5-0.6,0.9-1.3,0.9-2.1c0-0.3,0-0.7-0.1-1    c-0.3-0.8-0.8-1.5-1.5-2c-0.3-0.2-0.7-0.4-1-0.5c0.6-0.3,1.2-0.7,1.6-1.2c0.3-0.3,0.5-0.7,0.6-1.2c0.1-0.4,0.2-0.9,0.1-1.3    c0-0.2-0.1-0.3-0.1-0.5c-0.1-0.5-0.4-0.9-0.7-1.2c-0.5-0.5-1.1-1-1.8-1.2c-0.2-0.1-0.4-0.1-0.7-0.1c0.5-0.3,0.9-0.7,1.2-1.2    c0.3-0.4,0.5-0.9,0.6-1.4c0.1-0.5,0.1-1-0.1-1.5c-0.1-0.5-0.4-1-0.8-1.3c-0.5-0.6-1.2-0.9-2-1.1c-0.3-0.1-0.6-0.1-0.8-0.1    c0.3-0.3,0.6-0.7,0.9-1.1c0.2-0.4,0.4-0.9,0.5-1.3c0.1-0.5,0-0.9-0.1-1.4c-0.1-0.2-0.1-0.3-0.2-0.5c-0.2-0.4-0.5-0.8-0.8-1.1    c-0.5-0.4-1.2-0.7-1.8-0.8c-0.4-0.1-0.9-0.1-1.3,0c0.2-0.3,0.4-0.6,0.6-1c0.3-0.8,0.4-1.7,0.2-2.5c-0.1-0.3-0.2-0.6-0.4-0.9    c-0.5-0.7-1.1-1.1-1.9-1.3c-0.8-0.2-1.6-0.2-2.3,0c0.1-0.2,0.3-0.5,0.3-0.8c0.2-0.7,0.3-1.5,0.1-2.3c-0.1-0.5-0.4-1-0.8-1.3    c-0.5-0.5-1.1-0.8-1.7-1c-0.7-0.1-1.4-0.1-2,0.1c-0.2,0.1-0.5,0.2-0.7,0.3c0.1-0.2,0.2-0.4,0.2-0.6c0.2-0.7,0.2-1.4,0-2    c-0.2-0.7-0.6-1.2-1.2-1.7c-0.4-0.3-1-0.6-1.5-0.6c-0.6-0.1-1.1,0-1.6,0.1c-0.5,0.1-0.9,0.3-1.3,0.6c0.2-0.7,0.2-1.4,0-2    c-0.1-0.4-0.3-0.8-0.6-1.2c-0.3-0.4-0.6-0.7-1-0.9c-0.4-0.2-0.9-0.4-1.3-0.4c-0.5,0-0.9,0-1.3,0.1c-0.7,0.2-1.3,0.6-1.8,1    c0-0.5,0-0.9-0.2-1.3c-0.2-0.5-0.4-1-0.8-1.5c-0.4-0.4-0.8-0.7-1.3-0.9c-0.7-0.2-1.4-0.2-2.1,0c-0.7,0.2-1.3,0.6-1.7,1.1    c-0.1,0.2-0.3,0.3-0.4,0.5c0-0.3-0.1-0.5-0.1-0.8c-0.2-0.6-0.5-1.2-1-1.7c-0.5-0.5-1.1-0.8-1.7-1c-0.5-0.1-1-0.1-1.5,0.1    c-0.8,0.2-1.4,0.7-1.9,1.3c-0.2,0.2-0.3,0.5-0.5,0.7c-0.2-0.8-0.6-1.5-1.2-2c-0.6-0.5-1.3-0.9-2.1-0.9c-0.3,0-0.6,0-1,0    c-0.8,0.3-1.5,0.8-2,1.5c-0.2,0.3-0.4,0.7-0.5,1c-0.3-0.6-0.7-1.2-1.2-1.6c-0.3-0.3-0.7-0.5-1.2-0.6c-0.4-0.1-0.9-0.2-1.3-0.1    c-0.2,0-0.3,0.1-0.5,0.1c-0.5,0.1-0.9,0.4-1.2,0.7c-0.5,0.4-1,1-1.2,1.7c-0.1,0.2-0.1,0.4-0.1,0.7c-0.3-0.5-0.7-0.9-1.2-1.2    c-0.4-0.3-0.9-0.5-1.4-0.6C38,5,37.5,5,37,5.2c-0.5,0.1-1,0.4-1.3,0.8c-0.6,0.5-0.9,1.2-1.1,2c-0.1,0.3-0.1,0.6-0.1,0.8    c-0.3-0.3-0.7-0.6-1.1-0.9c-0.4-0.2-0.9-0.4-1.3-0.5c-0.5-0.1-0.9,0-1.4,0.1c-0.2,0.1-0.3,0.1-0.5,0.2c-0.4,0.2-0.8,0.5-1.1,0.8    c-0.4,0.5-0.7,1.2-0.8,1.8c-0.1,0.4-0.1,0.9,0,1.3c-0.3-0.2-0.6-0.4-1-0.6c-0.8-0.4-1.7-0.4-2.5-0.2c-0.3,0.1-0.6,0.2-0.9,0.4    c-0.7,0.5-1.1,1.1-1.3,1.9c-0.2,0.8-0.2,1.6,0,2.3c-0.2-0.1-0.5-0.3-0.8-0.3c-0.8-0.2-1.6-0.2-2.3,0c-0.5,0.1-1,0.4-1.3,0.8    c-0.5,0.5-0.8,1.1-1,1.7c-0.1,0.7-0.1,1.4,0.1,2c0.1,0.2,0.2,0.5,0.3,0.7c-0.2-0.1-0.4-0.2-0.6-0.2c-0.7-0.2-1.4-0.2-2,0    c-0.7,0.2-1.3,0.6-1.7,1.1c-0.3,0.4-0.6,1-0.6,1.5c-0.1,0.6,0,1.1,0.1,1.6c0.1,0.5,0.3,0.9,0.6,1.3c-0.7-0.1-1.4-0.1-2,0.1    c-0.4,0.1-0.8,0.3-1.2,0.6c-0.4,0.3-0.7,0.6-0.9,1c-0.2,0.4-0.4,0.9-0.4,1.3c0,0.5,0,0.9,0.1,1.3c0.2,0.7,0.6,1.3,1,1.8    c-0.5,0-0.9,0-1.3,0.2c-0.5,0.2-1,0.4-1.5,0.8c-0.4,0.4-0.7,0.8-0.9,1.3c-0.2,0.7-0.2,1.4,0,2.1c0.2,0.7,0.6,1.3,1.1,1.7    c0.1,0.1,0.3,0.2,0.4,0.4c-0.3,0-0.5,0.1-0.8,0.1c-0.6,0.2-1.2,0.5-1.7,1c-0.5,0.5-0.8,1.1-1,1.7c-0.1,0.5-0.1,1,0.1,1.5    c0.2,0.8,0.7,1.4,1.3,1.9C5.8,44.8,6,45,6.3,45.2c-0.8,0.2-1.5,0.7-2,1.3c-0.5,0.6-0.9,1.3-0.9,2.1c0,0.3,0,0.7,0.1,1    c0.3,0.8,0.8,1.5,1.5,2c0.3,0.2,0.7,0.4,1,0.5c-0.6,0.3-1.2,0.7-1.6,1.2c-0.3,0.3-0.5,0.7-0.6,1.2c-0.1,0.4-0.2,0.9-0.1,1.3    c0,0.2,0.1,0.3,0.1,0.5c0.1,0.5,0.4,0.9,0.7,1.2c0.5,0.5,1.1,1,1.7,1.2c0.2,0.1,0.4,0.1,0.7,0.1c-0.5,0.3-0.9,0.7-1.2,1.2    c-0.3,0.4-0.5,0.9-0.6,1.3C5,61.9,5,62.5,5.2,63c0.1,0.5,0.4,1,0.8,1.3c0.5,0.6,1.2,0.9,2,1.1c0.3,0.1,0.6,0.1,0.8,0.1    c-0.3,0.3-0.6,0.7-0.9,1.1C7.7,67,7.6,67.5,7.5,68c-0.1,0.4,0,0.9,0.1,1.3c0.1,0.2,0.1,0.3,0.2,0.5c0.2,0.4,0.5,0.8,0.8,1.1    c0.5,0.4,1.2,0.7,1.8,0.8c0.4,0.1,0.9,0.1,1.3,0c-0.2,0.3-0.4,0.6-0.6,1c-0.4,0.8-0.4,1.7-0.2,2.5c0.1,0.3,0.2,0.6,0.4,0.9    c0.5,0.7,1.1,1.1,1.9,1.3c0.8,0.2,1.6,0.2,2.3,0c-0.1,0.2-0.3,0.5-0.3,0.8c-0.2,0.8-0.2,1.6,0,2.3c0.1,0.5,0.4,1,0.8,1.3    c0.5,0.5,1.1,0.8,1.7,1c0.7,0.1,1.4,0.1,2-0.1c0.2-0.1,0.5-0.2,0.7-0.3c-0.1,0.2-0.2,0.4-0.2,0.6c-0.2,0.7-0.2,1.4,0,2    c0.2,0.7,0.6,1.3,1.1,1.7c0.4,0.3,1,0.6,1.5,0.6c0.6,0.1,1.1,0,1.6-0.1c0.5-0.1,0.9-0.3,1.3-0.6c-0.1,0.7-0.1,1.4,0.1,2    c0.1,0.4,0.3,0.8,0.6,1.2c0.3,0.4,0.6,0.7,1,0.9c0.4,0.2,0.9,0.4,1.3,0.4c0.5,0,0.9,0,1.3-0.1c0.7-0.2,1.3-0.6,1.8-1    c0,0.5,0,0.9,0.2,1.3c0.2,0.5,0.4,1,0.8,1.5c0.4,0.4,0.8,0.7,1.3,0.9c0.7,0.2,1.4,0.2,2.1,0c0.7-0.2,1.3-0.6,1.7-1.1    c0.1-0.2,0.3-0.3,0.4-0.5c0,0.3,0.1,0.5,0.1,0.8c0.2,0.6,0.5,1.2,1,1.7c0.5,0.5,1.1,0.8,1.7,1c0.5,0.1,1,0.1,1.5-0.1    c0.8-0.2,1.4-0.7,1.9-1.3c0.2-0.2,0.3-0.5,0.5-0.7c0.2,0.8,0.6,1.6,1.2,2.2c0.6,0.5,1.3,0.9,2.1,0.9c0.3,0,0.7,0,1-0.1    c0.8-0.3,1.5-0.8,2-1.5c0.2-0.3,0.4-0.7,0.5-1c0.3,0.6,0.7,1.2,1.2,1.6c0.3,0.3,0.7,0.5,1.2,0.6c0.4,0.1,0.9,0.2,1.3,0.1    c0.2,0,0.3-0.1,0.5-0.1c0.5-0.1,0.9-0.4,1.2-0.7c0.5-0.5,1-1.1,1.2-1.8c0.1-0.2,0.1-0.4,0.1-0.7c0.3,0.5,0.7,0.9,1.2,1.2    c0.4,0.3,0.9,0.5,1.3,0.6c0.5,0.1,1,0.1,1.5-0.1c0.5-0.1,1-0.4,1.3-0.8c0.6-0.5,0.9-1.2,1.1-2c0.1-0.3,0.1-0.6,0.1-0.8    c0.3,0.3,0.7,0.6,1.1,0.9c0.4,0.2,0.9,0.4,1.3,0.5c0.4,0.1,0.9,0,1.3-0.1c0.2-0.1,0.3-0.1,0.5-0.2c0.4-0.2,0.8-0.5,1.1-0.8    c0.4-0.5,0.7-1.2,0.8-1.8c0.1-0.4,0.1-0.9,0-1.3c0.3,0.2,0.6,0.4,1,0.6c0.8,0.4,1.7,0.4,2.5,0.2c0.3-0.1,0.6-0.2,0.9-0.4    c0.7-0.5,1.1-1.1,1.3-1.9c0.2-0.8,0.2-1.6,0-2.3c0.2,0.1,0.5,0.3,0.8,0.3c0.7,0.2,1.5,0.3,2.3,0.1c0.5-0.1,1-0.4,1.3-0.8    c0.5-0.5,0.8-1.1,1-1.7c0.1-0.7,0.1-1.4-0.1-2c-0.1-0.2-0.2-0.5-0.3-0.7c0.2,0.1,0.4,0.2,0.6,0.2c0.7,0.2,1.4,0.2,2,0    c0.7-0.2,1.3-0.6,1.8-1.2c0.3-0.4,0.6-1,0.6-1.5c0.1-0.6,0-1.1-0.1-1.6c-0.1-0.5-0.3-0.9-0.6-1.3c0.7,0.2,1.4,0.2,2,0    c0.4-0.1,0.8-0.3,1.2-0.6c0.4-0.3,0.7-0.6,0.9-1c0.2-0.4,0.4-0.9,0.4-1.3c0-0.5,0-0.9-0.1-1.3c-0.2-0.7-0.6-1.3-1-1.8    c0.5,0,0.9,0,1.3-0.2c0.5-0.2,1-0.4,1.5-0.8c0.4-0.4,0.7-0.8,0.9-1.3c0.2-0.7,0.2-1.4,0-2.1c-0.2-0.7-0.6-1.3-1.1-1.7    c-0.2-0.1-0.3-0.3-0.5-0.4c0.3,0,0.5-0.1,0.8-0.1c0.6-0.2,1.2-0.5,1.7-1c0.5-0.5,0.8-1.1,1-1.7c0.1-0.5,0.1-1-0.1-1.5    C95.4,56.4,95,55.8,94.4,55.3z M86.4,70C75.4,90.1,50.2,97.5,30,86.5S2.6,50.2,13.6,30.1S49.8,2.6,69.9,13.7    c9.6,5.3,16.8,14.2,19.9,24.7C92.9,49,91.7,60.3,86.4,70L86.4,70z M95.2,50.8c0,0.2,0,0.4,0,0.6c0,0.5-0.2,1-0.5,1.3    c-0.4,0.4-0.8,0.7-1.3,0.8c-0.2,0.1-0.4,0.1-0.6,0.1c0.1-1.5,0.2-3.1,0.1-4.6c0.5,0.1,0.9,0.3,1.3,0.5    C94.6,49.9,95,50.3,95.2,50.8z M93.7,42.7c0.3,0.2,0.5,0.3,0.7,0.6c0.3,0.3,0.4,0.6,0.5,1c0.1,0.3,0.1,0.5,0,0.8    c-0.1,0.4-0.4,0.8-0.7,1.1c-0.4,0.3-0.8,0.6-1.3,0.7h-0.1c-0.1-1.5-0.3-3.1-0.6-4.6C92.8,42.3,93.3,42.5,93.7,42.7z M92.2,36    c0.3,0.1,0.6,0.3,0.8,0.5c0.2,0.2,0.4,0.5,0.4,0.8c0.1,0.3,0.1,0.6,0,0.9c-0.1,0.5-0.4,1-0.7,1.3c-0.3,0.3-0.7,0.5-1,0.7    c-0.2-0.7-0.4-1.5-0.6-2.2c-0.2-0.7-0.5-1.5-0.7-2.2C91,35.7,91.6,35.8,92.2,36L92.2,36z M89.7,29.7c0.3,0.1,0.5,0.2,0.7,0.4    c0.2,0.2,0.4,0.4,0.5,0.6c0,0.1,0.1,0.2,0.1,0.3c0.1,0.3,0.1,0.6,0,0.8c-0.1,0.5-0.3,1-0.6,1.3c-0.2,0.3-0.5,0.5-0.8,0.8    c-0.6-1.4-1.2-2.8-2-4.2l0,0C88.3,29.5,89.1,29.4,89.7,29.7L89.7,29.7z M86.3,23.7c0.5,0.1,0.9,0.4,1.1,0.8    c0.1,0.2,0.2,0.3,0.2,0.5c0.1,0.5,0.1,1.1-0.1,1.6c-0.2,0.4-0.5,0.8-0.9,1.1c-0.8-1.3-1.7-2.6-2.6-3.8c0.2-0.1,0.4-0.2,0.6-0.2    C85.2,23.6,85.8,23.6,86.3,23.7L86.3,23.7z M80.6,18.5c0.4-0.1,0.9-0.2,1.3-0.1c0.4,0.1,0.8,0.3,1,0.6c0.2,0.2,0.3,0.5,0.4,0.8    c0.1,0.5,0.1,1,0,1.5c-0.1,0.4-0.4,0.8-0.6,1.1c-1-1.2-2-2.3-3.1-3.3C80,18.8,80.3,18.6,80.6,18.5L80.6,18.5z M75.8,13.9    c0.3-0.1,0.7-0.1,1.1-0.1c0.3,0,0.6,0.2,0.9,0.4c0.3,0.3,0.6,0.6,0.7,1c0.1,0.4,0.1,0.9,0,1.3c-0.1,0.3-0.2,0.7-0.4,1    c-1.2-1-2.4-2-3.7-2.8C74.7,14.3,75.2,14.1,75.8,13.9z M70.2,10.2c0.3-0.1,0.5-0.1,0.8-0.1c0.3,0,0.5,0.1,0.8,0.2    c0.2,0.1,0.4,0.3,0.6,0.5c0.2,0.2,0.3,0.5,0.4,0.7c0.2,0.7,0.1,1.4-0.1,2c-0.6-0.4-1.3-0.8-2-1.2s-1.3-0.7-2.1-1    C69,10.8,69.6,10.4,70.2,10.2z M64.1,7.4c0.4-0.1,0.8-0.1,1.2,0c0.3,0.1,0.6,0.3,0.8,0.6c0.2,0.3,0.4,0.6,0.5,0.9    c0.1,0.5,0.1,1.1,0,1.6c-1.4-0.6-2.8-1.1-4.3-1.6c0.2-0.3,0.4-0.6,0.6-0.9C63.3,7.7,63.7,7.5,64.1,7.4z M57.6,5.6    c0.3-0.1,0.6-0.1,0.9,0c0.4,0.1,0.7,0.3,1,0.6c0.3,0.3,0.5,0.7,0.7,1.2c0.1,0.4,0.1,0.8,0.1,1.2c-1.5-0.4-3-0.7-4.5-0.9    c0.1-0.4,0.3-0.8,0.6-1.1C56.7,6.1,57.1,5.7,57.6,5.6z M50.9,4.8c0.2,0,0.4,0,0.6,0c0.5,0,1,0.2,1.3,0.5c0.4,0.4,0.7,0.8,0.8,1.3    c0.1,0.2,0.1,0.4,0.1,0.6c-1.5-0.1-3.1-0.2-4.6-0.1c0.1-0.5,0.3-0.9,0.5-1.3C49.9,5.4,50.3,5,50.9,4.8L50.9,4.8z M42.7,6.2    c0.2-0.3,0.3-0.5,0.6-0.7c0.2-0.2,0.5-0.3,0.7-0.4h0.3c0.3-0.1,0.5-0.1,0.8,0c0.4,0.1,0.8,0.4,1.1,0.7c0.3,0.4,0.6,0.8,0.7,1.3    l0,0c-1.5,0.1-3.1,0.3-4.6,0.6C42.3,7.2,42.5,6.7,42.7,6.2z M36,7.8c0.1-0.3,0.3-0.6,0.5-0.8c0.2-0.2,0.5-0.4,0.8-0.4    c0.3-0.1,0.6-0.1,0.9,0c0.5,0.1,1,0.4,1.3,0.7c0.3,0.3,0.5,0.7,0.7,1c-0.7,0.2-1.5,0.4-2.2,0.6c-0.7,0.2-1.5,0.5-2.2,0.7    C35.7,9,35.8,8.4,36,7.8L36,7.8z M29.7,10.3c0.1-0.3,0.2-0.5,0.4-0.7c0.2-0.2,0.4-0.4,0.6-0.5L31,8.9c0.3-0.1,0.6-0.1,0.8,0    c0.5,0.1,1,0.3,1.3,0.6c0.3,0.2,0.5,0.5,0.8,0.8c-1.4,0.6-2.8,1.2-4.2,2l0,0C29.5,11.7,29.5,10.9,29.7,10.3z M23.7,13.7    c0.1-0.5,0.4-0.9,0.8-1.1c0.2-0.1,0.3-0.2,0.5-0.2c0.5-0.1,1.1-0.1,1.6,0.1c0.4,0.2,0.8,0.5,1.1,0.9c-1.3,0.8-2.6,1.7-3.8,2.6    c-0.1-0.2-0.2-0.4-0.2-0.6C23.6,14.8,23.6,14.2,23.7,13.7z M18.4,18c0.1-0.4,0.3-0.8,0.6-1c0.2-0.2,0.5-0.3,0.8-0.4    c0.5-0.1,1-0.1,1.5,0c0.4,0.1,0.8,0.4,1.1,0.6c-1.2,1-2.3,2-3.3,3.1c-0.2-0.3-0.4-0.7-0.5-1C18.3,18.9,18.3,18.5,18.4,18L18.4,18z     M13.8,23.2c0.1-0.3,0.2-0.6,0.4-0.8c0.3-0.3,0.6-0.6,1-0.7c0.4-0.1,0.9-0.1,1.3,0c0.3,0.1,0.7,0.2,1,0.4c-1,1.2-2,2.4-2.8,3.7    c-0.4-0.4-0.7-0.9-0.8-1.4C13.8,23.9,13.8,23.5,13.8,23.2z M10.3,28.2c0.2-0.2,0.3-0.4,0.6-0.5c0.2-0.2,0.5-0.3,0.8-0.4    c0.7-0.2,1.4-0.1,2,0.1c-0.4,0.6-0.8,1.3-1.2,2c-0.4,0.6-0.7,1.3-1,2.1c-0.6-0.4-1-1-1.2-1.7c-0.1-0.2-0.1-0.5-0.1-0.8    C10.1,28.7,10.1,28.5,10.3,28.2z M7.4,34.7c0.1-0.3,0.3-0.6,0.6-0.8c0.3-0.2,0.6-0.4,0.9-0.5c0.5-0.1,1.1-0.1,1.6,0    c-0.6,1.4-1.1,2.8-1.6,4.3c-0.3-0.2-0.6-0.4-0.8-0.6c-0.3-0.3-0.6-0.7-0.7-1.2C7.3,35.5,7.3,35.1,7.4,34.7z M5.5,41.5    c0.1-0.4,0.3-0.7,0.6-1c0.3-0.3,0.7-0.5,1.2-0.7c0.4-0.1,0.8-0.1,1.2-0.1c-0.4,1.5-0.6,3-0.8,4.5c-0.4-0.1-0.8-0.3-1.1-0.6    c-0.4-0.3-0.7-0.8-0.9-1.3C5.5,42.1,5.5,41.8,5.5,41.5z M4.8,49.2c0-0.2,0-0.4,0-0.6c0-0.5,0.2-0.9,0.5-1.3    c0.4-0.4,0.8-0.7,1.3-0.8c0.2,0,0.4,0,0.6-0.1c-0.1,1.5-0.2,3.1-0.1,4.6c-0.5-0.1-0.9-0.3-1.3-0.5C5.3,50.2,5,49.7,4.8,49.2z     M6.2,57.3c-0.3-0.2-0.5-0.3-0.7-0.6c-0.3-0.3-0.4-0.6-0.5-1c-0.1-0.3-0.1-0.5,0-0.8c0.1-0.4,0.4-0.8,0.7-1.1    c0.4-0.3,0.8-0.6,1.3-0.7l0,0c0.2,1.5,0.4,3.1,0.7,4.6C7.3,57.7,6.7,57.6,6.2,57.3z M7.8,64c-0.3-0.1-0.6-0.3-0.8-0.5    c-0.2-0.2-0.4-0.5-0.4-0.8c-0.1-0.3-0.1-0.6,0-0.9c0.1-0.5,0.4-1,0.7-1.3c0.3-0.3,0.7-0.5,1-0.6c0.2,0.7,0.4,1.5,0.6,2.2    c0.2,0.7,0.5,1.5,0.7,2.2C9,64.3,8.4,64.2,7.8,64L7.8,64z M10.3,70.3c-0.3-0.1-0.5-0.2-0.7-0.4c-0.2-0.2-0.4-0.4-0.5-0.6    C9,69.2,9,69.1,8.9,69c-0.1-0.3-0.1-0.6,0-0.8c0.1-0.5,0.3-1,0.6-1.3c0.2-0.3,0.5-0.5,0.7-0.7c0.6,1.4,1.2,2.8,2,4.2l0,0    C11.6,70.5,10.9,70.5,10.3,70.3z M13.7,76.3c-0.5-0.1-0.9-0.4-1.1-0.8c-0.1-0.2-0.2-0.3-0.2-0.5c-0.1-0.5-0.1-1.1,0.1-1.6    c0.2-0.4,0.5-0.8,0.9-1.1c0.8,1.3,1.7,2.6,2.6,3.8c-0.2,0.1-0.4,0.2-0.6,0.2C14.8,76.4,14.2,76.4,13.7,76.3z M19.4,81.5    c-0.4,0.1-0.9,0.2-1.3,0.1c-0.4-0.1-0.8-0.3-1-0.6c-0.2-0.2-0.3-0.5-0.4-0.8c-0.1-0.5-0.1-1,0-1.5c0.1-0.4,0.4-0.8,0.6-1.1    c1,1.2,2,2.3,3.1,3.3C20,81.2,19.7,81.4,19.4,81.5z M24.2,86.1c-0.3,0.1-0.7,0.1-1.1,0.1c-0.3,0-0.6-0.2-0.9-0.4    c-0.3-0.3-0.6-0.6-0.7-1c-0.1-0.4-0.1-0.9,0-1.3c0.1-0.3,0.2-0.7,0.4-1c1.2,1,2.4,2,3.6,2.8C25.2,85.6,24.8,85.9,24.2,86.1z     M29.8,89.8c-0.3,0.1-0.5,0.1-0.8,0.1c-0.3,0-0.5-0.1-0.8-0.2c-0.2-0.1-0.4-0.3-0.6-0.5c-0.2-0.2-0.3-0.5-0.4-0.7    c-0.2-0.7-0.1-1.4,0.1-2c0.6,0.4,1.3,0.8,2,1.2c0.6,0.4,1.3,0.7,2.1,1C31,89.2,30.4,89.6,29.8,89.8z M35.9,92.6    c-0.4,0.1-0.8,0.1-1.2,0c-0.3-0.1-0.6-0.3-0.8-0.6c-0.2-0.3-0.4-0.6-0.5-0.9c-0.1-0.5-0.1-1.1,0-1.6c1.4,0.6,2.9,1.1,4.3,1.6    c-0.2,0.3-0.4,0.7-0.7,0.9C36.7,92.3,36.3,92.5,35.9,92.6z M42.4,94.4c-0.3,0.1-0.6,0.1-0.9,0c-0.4-0.1-0.7-0.3-1-0.6    c-0.3-0.3-0.5-0.7-0.7-1.2c-0.1-0.4-0.1-0.8-0.1-1.2c1.5,0.4,3,0.7,4.5,0.9c-0.1,0.4-0.3,0.8-0.6,1.1C43.3,94,42.9,94.3,42.4,94.4    z M49.1,95.2c-0.2,0-0.4,0-0.6,0c-0.5,0-0.9-0.2-1.3-0.5c-0.4-0.4-0.7-0.8-0.8-1.3c-0.1-0.2-0.1-0.4-0.1-0.6    c1.5,0.1,3.1,0.2,4.6,0.1c-0.1,0.5-0.3,0.9-0.5,1.3C50.1,94.6,49.7,95,49.1,95.2L49.1,95.2z M57.2,93.7c-0.2,0.3-0.3,0.5-0.6,0.7    c-0.2,0.2-0.5,0.3-0.7,0.4h-0.3c-0.3,0.1-0.5,0.1-0.8,0c-0.4-0.1-0.8-0.4-1.1-0.7c-0.3-0.4-0.6-0.8-0.7-1.3c0,0,0,0,0-0.1    c1.5-0.1,3.1-0.3,4.6-0.6C57.6,92.7,57.5,93.3,57.2,93.7L57.2,93.7z M63.9,92.2c-0.1,0.3-0.3,0.6-0.5,0.8    c-0.2,0.2-0.5,0.4-0.8,0.4c-0.3,0.1-0.6,0.1-0.9,0c-0.5-0.1-1-0.4-1.3-0.7c-0.3-0.3-0.5-0.7-0.7-1c0.7-0.2,1.5-0.4,2.2-0.6    c0.7-0.2,1.5-0.5,2.2-0.7C64.2,91,64.2,91.6,63.9,92.2L63.9,92.2z M70.3,89.7c-0.1,0.3-0.2,0.5-0.4,0.7c-0.2,0.2-0.4,0.4-0.6,0.5    L69,91.1c-0.3,0.1-0.6,0.1-0.8,0c-0.5-0.1-1-0.3-1.3-0.6c-0.3-0.2-0.5-0.5-0.8-0.8c1.4-0.6,2.8-1.2,4.2-2l0,0    C70.5,88.3,70.5,89.1,70.3,89.7L70.3,89.7z M76.2,86.3c-0.1,0.5-0.4,0.9-0.8,1.1c-0.2,0.1-0.3,0.2-0.5,0.2    c-0.5,0.1-1.1,0.1-1.6-0.1c-0.4-0.2-0.8-0.5-1.1-0.9c1.3-0.8,2.6-1.7,3.8-2.6c0.1,0.2,0.2,0.4,0.2,0.6    C76.3,85.2,76.4,85.8,76.2,86.3L76.2,86.3z M81.6,82c-0.1,0.4-0.3,0.8-0.6,1c-0.2,0.2-0.5,0.3-0.8,0.4c-0.5,0.1-1,0.1-1.5,0    c-0.4-0.1-0.8-0.4-1.1-0.6c1.2-1,2.3-2,3.3-3.1c0.2,0.3,0.4,0.7,0.5,1C81.6,81.1,81.6,81.5,81.6,82L81.6,82z M86.2,76.8    c0,0.3-0.2,0.6-0.4,0.9c-0.3,0.3-0.6,0.6-1,0.7c-0.4,0.1-0.9,0.1-1.3,0c-0.3-0.1-0.7-0.2-1-0.4c1-1.2,2-2.4,2.8-3.6    c0.4,0.4,0.7,0.8,0.8,1.3C86.2,76.1,86.2,76.5,86.2,76.8L86.2,76.8z M89.7,71.8c-0.1,0.2-0.3,0.4-0.5,0.6    c-0.2,0.2-0.5,0.3-0.7,0.4c-0.7,0.2-1.4,0.1-2-0.1c0.4-0.6,0.8-1.3,1.2-2s0.7-1.3,1-2.1c0.6,0.4,1,1,1.2,1.7    c0.1,0.3,0.1,0.5,0.1,0.8C89.9,71.3,89.8,71.6,89.7,71.8L89.7,71.8z M92.6,65.3c-0.1,0.3-0.3,0.6-0.6,0.8    c-0.3,0.2-0.6,0.4-0.9,0.5c-0.5,0.1-1.1,0.1-1.6,0c0.6-1.4,1.1-2.9,1.6-4.3c0.3,0.2,0.6,0.4,0.9,0.6c0.3,0.3,0.6,0.7,0.7,1.2    C92.7,64.5,92.8,64.9,92.6,65.3L92.6,65.3z M94.5,58.5c-0.1,0.4-0.3,0.7-0.6,1c-0.3,0.3-0.7,0.5-1.2,0.7c-0.4,0.1-0.8,0.1-1.2,0.1    c0.4-1.5,0.7-3,0.9-4.5c0.4,0.1,0.8,0.3,1.1,0.6c0.4,0.3,0.7,0.8,0.9,1.2C94.5,57.9,94.5,58.2,94.5,58.5z"/>
		<path d="M39.5,13.8c0.9-0.3,1.4-1.2,1.1-2c-0.3-0.9-1.2-1.4-2-1.1c-0.9,0.3-1.4,1.2-1.1,2C37.7,13.6,38.6,14.1,39.5,13.8z"/>
		<path d="M33.7,16.1c0.8-0.4,1.2-1.4,0.8-2.2c-0.4-0.8-1.4-1.2-2.2-0.8c-0.8,0.4-1.2,1.4-0.8,2.2C31.9,16.1,32.9,16.5,33.7,16.1    C33.7,16.1,33.7,16.1,33.7,16.1z"/>
		<path d="M28.3,19.2c0.7-0.5,0.9-1.5,0.4-2.3c-0.5-0.7-1.5-0.9-2.3-0.4c-0.7,0.5-0.9,1.5-0.4,2.3c0,0,0,0,0,0    C26.6,19.6,27.6,19.7,28.3,19.2z"/>
		<path d="M23.5,23.2c0.6-0.6,0.6-1.7,0-2.3c-0.6-0.6-1.7-0.6-2.3,0c-0.6,0.6-0.6,1.7,0,2.3C21.9,23.9,22.9,23.9,23.5,23.2    C23.5,23.2,23.5,23.2,23.5,23.2z"/>
		<path d="M19.5,27.9c0.5-0.7,0.4-1.8-0.4-2.3c-0.7-0.5-1.8-0.4-2.3,0.4c-0.5,0.7-0.4,1.7,0.4,2.3C17.9,28.8,19,28.7,19.5,27.9z"/>
		<path d="M14.1,34c0.8,0.4,1.8,0.1,2.2-0.7c0.4-0.8,0.1-1.8-0.7-2.2c-0.8-0.4-1.8-0.1-2.2,0.7C12.9,32.6,13.3,33.6,14.1,34    C14.1,34,14.1,34,14.1,34z"/>
		<path d="M11.9,40.1c0.8,0.4,1.8,0.1,2.2-0.7c0.4-0.8,0.1-1.8-0.7-2.2c-0.2-0.1-0.3-0.1-0.5-0.2c-0.8-0.3-1.8,0.1-2.1,1    c-0.3,0.8,0.1,1.8,1,2.1C11.9,40.1,11.9,40.2,11.9,40.1L11.9,40.1z"/>
		<path d="M10.8,46.5c0.9,0.2,1.7-0.4,1.9-1.3c0.2-0.9-0.4-1.7-1.3-1.9s-1.7,0.4-1.9,1.3c0,0,0,0,0,0.1C9.4,45.6,10,46.4,10.8,46.5z    "/>
		<path d="M12.4,51.3c0-0.9-0.8-1.6-1.7-1.6c-0.9,0-1.6,0.8-1.6,1.7c0,0.9,0.8,1.6,1.7,1.6C11.7,53,12.4,52.2,12.4,51.3z"/>
		<path d="M13.1,57.5c-0.2-0.9-1.1-1.4-2-1.2c-0.8,0.2-1.4,1-1.2,1.8c0.2,0.9,1,1.5,1.9,1.3c0,0,0,0,0,0    C12.7,59.3,13.3,58.5,13.1,57.5C13.1,57.5,13.1,57.5,13.1,57.5z"/>
		<path d="M14.8,63.5c-0.3-0.8-1.3-1.3-2.1-0.9c-0.8,0.3-1.3,1.3-0.9,2.1c0.3,0.8,1.3,1.3,2.1,0.9c0,0,0,0,0,0    C14.7,65.3,15.2,64.3,14.8,63.5z"/>
		<path d="M15.3,68.5c-0.8,0.5-1,1.5-0.6,2.2c0.5,0.8,1.5,1,2.2,0.6c0.8-0.5,1-1.5,0.6-2.2C17.1,68.3,16.1,68,15.3,68.5L15.3,68.5z"/>
		<path d="M18.8,74c-0.7,0.6-0.8,1.6-0.2,2.3s1.6,0.8,2.3,0.2c0.7-0.6,0.8-1.6,0.2-2.3C20.6,73.5,19.6,73.4,18.8,74L18.8,74z"/>
		<path d="M23.2,78.8c-0.6,0.7-0.5,1.7,0.2,2.3c0.7,0.6,1.7,0.5,2.3-0.2c0.6-0.7,0.5-1.7-0.2-2.3C24.8,78,23.8,78.1,23.2,78.8    C23.2,78.8,23.2,78.8,23.2,78.8z"/>
		<path d="M30.5,82.2c-0.8-0.5-1.8-0.2-2.2,0.6c-0.5,0.8-0.2,1.8,0.6,2.2s1.8,0.2,2.2-0.6C31.5,83.7,31.3,82.7,30.5,82.2z"/>
		<path d="M36.1,85c-0.8-0.3-1.8,0.1-2.1,1c-0.3,0.8,0.1,1.8,1,2.1c0.8,0.3,1.8-0.1,2.1-0.9C37.4,86.3,37,85.3,36.1,85    C36.1,85,36.1,85,36.1,85z"/>
		<path d="M42,86.8c-0.9-0.2-1.7,0.4-1.9,1.3c-0.2,0.9,0.4,1.7,1.3,1.9c0.9,0.2,1.7-0.4,1.9-1.2C43.5,87.9,42.9,87,42,86.8z"/>
		<path d="M48.2,87.6c-0.9,0-1.7,0.7-1.7,1.6c0,0.9,0.7,1.7,1.6,1.7c0.9,0,1.7-0.7,1.7-1.6C49.8,88.4,49.1,87.7,48.2,87.6z"/>
		<path d="M54.5,87.4c-0.9,0.1-1.5,0.9-1.4,1.8c0.1,0.9,0.9,1.5,1.8,1.4c0.9-0.1,1.5-0.9,1.4-1.8C56.2,87.9,55.4,87.3,54.5,87.4    C54.5,87.4,54.5,87.4,54.5,87.4z"/>
		<path d="M60.5,86.2c-0.9,0.3-1.4,1.2-1.1,2c0.3,0.9,1.2,1.4,2,1.1c0.9-0.3,1.4-1.2,1.1-2C62.3,86.4,61.4,85.9,60.5,86.2z"/>
		<path d="M66.3,83.9c-0.8,0.4-1.2,1.4-0.8,2.2c0.4,0.8,1.4,1.2,2.2,0.8c0.8-0.4,1.2-1.4,0.8-2.2C68.1,83.9,67.1,83.5,66.3,83.9    C66.3,83.9,66.3,83.9,66.3,83.9z"/>
		<path d="M71.7,80.8c-0.7,0.5-0.9,1.5-0.4,2.3c0.5,0.7,1.5,0.9,2.3,0.4s0.9-1.5,0.4-2.3c0,0,0,0,0,0C73.4,80.4,72.4,80.3,71.7,80.8    z"/>
		<path d="M76.5,76.8c-0.6,0.6-0.6,1.7,0,2.3c0.6,0.6,1.7,0.6,2.3,0c0.6-0.6,0.6-1.7,0-2.3C78.1,76.2,77.1,76.1,76.5,76.8    C76.5,76.8,76.5,76.8,76.5,76.8z"/>
		<path d="M80.5,72.1c-0.5,0.7-0.4,1.8,0.4,2.3s1.8,0.4,2.3-0.4c0.5-0.7,0.4-1.7-0.4-2.3C82.1,71.2,81,71.3,80.5,72.1z"/>
		<path d="M85.9,66c-0.8-0.4-1.8-0.1-2.2,0.7c-0.4,0.8-0.1,1.8,0.7,2.2c0.8,0.4,1.8,0.1,2.2-0.7c0,0,0,0,0,0    C87,67.4,86.7,66.4,85.9,66z"/>
		<path d="M88.1,59.9c-0.8-0.3-1.8,0.1-2.1,1s0.1,1.8,1,2.1c0.1,0,0.1,0,0.2,0.1c0.8,0.3,1.8-0.1,2.1-1c0.3-0.8-0.1-1.8-1-2.1    C88.2,59.9,88.1,59.9,88.1,59.9z"/>
		<path d="M89.2,53.5c-0.9-0.2-1.7,0.4-1.9,1.3c-0.2,0.9,0.4,1.7,1.3,1.9c0.9,0.2,1.7-0.4,1.9-1.3c0,0,0,0,0-0.1    C90.6,54.4,90,53.6,89.2,53.5z"/>
		<path d="M87.6,48.7c0,0.9,0.8,1.6,1.7,1.6s1.6-0.8,1.6-1.7c0-0.9-0.8-1.6-1.7-1.6C88.3,47,87.6,47.8,87.6,48.7z"/>
		<path d="M88.2,40.6c-0.9,0.2-1.5,1-1.3,1.9c0.2,0.9,1,1.5,1.9,1.3c0.9-0.2,1.4-1,1.3-1.9C90,41,89.1,40.4,88.2,40.6    C88.2,40.6,88.2,40.6,88.2,40.6z"/>
		<path d="M85.2,36.5c0.3,0.8,1.3,1.3,2.1,0.9c0.8-0.3,1.3-1.3,0.9-2.1s-1.3-1.3-2.1-0.9c0,0,0,0,0,0C85.3,34.7,84.8,35.7,85.2,36.5    z"/>
		<path d="M84.7,31.5c0.8-0.5,1-1.5,0.6-2.2c-0.5-0.8-1.5-1-2.2-0.6c-0.8,0.5-1,1.5-0.6,2.2C82.9,31.7,83.9,32,84.7,31.5z"/>
		<path d="M81.3,26.1c0.7-0.6,0.8-1.6,0.2-2.3c-0.6-0.7-1.6-0.8-2.3-0.2l0,0c-0.7,0.6-0.8,1.6-0.2,2.3    C79.5,26.5,80.6,26.6,81.3,26.1z"/>
		<path d="M76.8,21.2c0.6-0.7,0.5-1.7-0.2-2.3s-1.7-0.5-2.3,0.2s-0.5,1.7,0.2,2.3c0,0,0,0,0,0C75.2,22,76.2,21.9,76.8,21.2z"/>
		<path d="M69.5,17.8c0.8,0.5,1.8,0.2,2.2-0.6s0.2-1.8-0.6-2.2c-0.8-0.5-1.8-0.2-2.2,0.6C68.5,16.3,68.7,17.3,69.5,17.8L69.5,17.8z"/>
		<path d="M63.9,15c0.8,0.3,1.8-0.1,2.1-0.9c0.3-0.8-0.1-1.8-0.9-2.1c-0.8-0.3-1.8,0.1-2.1,0.9c0,0,0,0,0,0.1    C62.7,13.8,63.1,14.7,63.9,15z"/>
		<path d="M58,13.2c0.9,0.2,1.7-0.4,1.9-1.3c0.2-0.9-0.4-1.7-1.3-1.9c-0.9-0.2-1.7,0.4-1.9,1.2C56.5,12.1,57.1,13,58,13.2z"/>
		<path d="M51.8,12.4c0.9,0,1.7-0.7,1.7-1.6c0-0.9-0.7-1.7-1.6-1.7c-0.9,0-1.7,0.7-1.7,1.6C50.2,11.6,50.9,12.3,51.8,12.4    C51.8,12.4,51.8,12.4,51.8,12.4z"/>
		<path d="M45.6,12.6c0.9-0.1,1.5-0.9,1.4-1.8c-0.1-0.9-0.9-1.5-1.8-1.4c-0.9,0.1-1.5,0.9-1.4,1.8C43.8,12.1,44.7,12.7,45.6,12.6    C45.6,12.6,45.6,12.6,45.6,12.6z"/>
		<path d="M60.4,85.6c19.7-5.7,31-26.3,25.3-45.9s-26.3-31-45.9-25.3s-31,26.3-25.3,45.9c2.7,9.5,9.1,17.4,17.8,22.2    C40.8,87.2,50.9,88.3,60.4,85.6z M15.7,60C10.2,41,21,21.2,39.9,15.6s38.8,5.3,44.3,24.2S79,78.7,60,84.2    c-9.1,2.7-18.9,1.6-27.2-3C24.5,76.7,18.4,69.1,15.7,60z"/>
		<path d="M97.2,36.3c-7.6-26-34.8-41-60.9-33.4s-41,34.8-33.4,60.9s34.8,41,60.9,33.4C76.2,93.5,86.8,85.1,93,73.6    C99.3,62.2,100.8,48.8,97.2,36.3z M91.8,73C79.1,96.1,50.1,104.5,27,91.8S-4.5,50.1,8.2,27S49.9-4.5,73,8.2    c11.1,6.1,19.3,16.3,22.8,28.5C99.4,48.8,98,61.9,91.8,73L91.8,73z"/>
	</g>
</g>
</svg>