<svg id="Layer_1" data-name="Layer 1" xmlns="http://www.w3.org/2000/svg" xmlns:xlink="http://www.w3.org/1999/xlink" viewBox="0 0 720 150"><defs><style>.cls-1{fill:none;}.cls-2{fill:#fff;}.cls-3{font-size:15.98px;fill:#3d5579;font-family:Poppins-SemiBold, Poppins;font-weight:600;}.cls-4{clip-path:url(#clip-path);}.cls-5{fill:#696a6a;}.cls-6{fill:#66686c;}.cls-7{fill:#27803b;}.cls-8{fill:#e9661c;}.cls-9{fill:#d36969;}</style><clipPath id="clip-path"><rect class="cls-1" x="52.27" y="30" width="131.87" height="65.94"/></clipPath></defs><rect class="cls-2" x="-0.5" width="720" height="150"/><text class="cls-3" transform="translate(55.49 115.6)">UPI on delivery</text><text class="cls-3" transform="translate(294.09 115.6)">Free delivery</text><text class="cls-3" transform="translate(498.38 115.6)">2 levels of discounts</text><g id="layer1"><g id="g22"><g class="cls-4"><g id="g24"><g id="g30"><path id="path32" class="cls-5" d="M62.64,77.29h.84l-.78,3.29a1.38,1.38,0,0,0,.06,1.09,1,1,0,0,0,.9.37,1.55,1.55,0,0,0,1.07-.37,2,2,0,0,0,.59-1.09l.79-3.29H67l-.8,3.37a3,3,0,0,1-.93,1.64,2.74,2.74,0,0,1-1.76.54A1.75,1.75,0,0,1,62,82.3a1.93,1.93,0,0,1-.15-1.64Z"/></g><g id="g34"><path id="path36" class="cls-5" d="M66.85,82.7l1.34-5.62,2.56,3.3.21.3.2.36.9-3.75h.79l-1.34,5.62L68.9,79.55a3,3,0,0,1-.2-.29,3.18,3.18,0,0,1-.16-.32l-.9,3.76Z"/></g><g id="g38"><path id="path40" class="cls-5" d="M72.78,82.7l1.3-5.41h.85L73.64,82.7Z"/></g><g id="g42"><path id="path44" class="cls-5" d="M74.87,82.7l1.29-5.41H79.1l-.18.75H76.84l-.32,1.35H78.6l-.18.77H76.33l-.6,2.54Z"/></g><g id="g46"><path id="path48" class="cls-5" d="M78.75,82.7l1.3-5.41h.85L79.61,82.7Z"/></g><g id="g50"><path id="path52" class="cls-5" d="M80.84,82.7l1.29-5.41h2.94l-.18.75H82.81l-.32,1.35h2.08l-.18.78H82.3l-.42,1.74H84l-.19.79Z"/></g><g id="g54"><path id="path56" class="cls-5" d="M85.81,81.91h.72a3.54,3.54,0,0,0,.91-.09,1.62,1.62,0,0,0,.58-.27,2.2,2.2,0,0,0,.6-.65A2.76,2.76,0,0,0,89,80a2.63,2.63,0,0,0,.07-.9,1.26,1.26,0,0,0-.29-.65,1.06,1.06,0,0,0-.47-.28,4.3,4.3,0,0,0-1-.08h-.62Zm-1,.79,1.3-5.41h1.15a6.78,6.78,0,0,1,1.56.12,1.63,1.63,0,0,1,.71.39,1.66,1.66,0,0,1,.47.92A3,3,0,0,1,89.88,80a3.78,3.78,0,0,1-.54,1.28,3.28,3.28,0,0,1-.91.91,2.56,2.56,0,0,1-.88.39,6.06,6.06,0,0,1-1.4.12H84.76Z"/></g><g id="g58"><path id="path60" class="cls-5" d="M94.05,79.55h.22a2.31,2.31,0,0,0,1-.15.85.85,0,0,0,.37-.57.58.58,0,0,0-.11-.61,1.59,1.59,0,0,0-.89-.17h-.22Zm-.23.72-.58,2.43h-.8l1.29-5.41H95a3.89,3.89,0,0,1,.83.07.93.93,0,0,1,.42.21.91.91,0,0,1,.27.51,1.68,1.68,0,0,1,0,.7,2,2,0,0,1-.31.71,1.55,1.55,0,0,1-.51.51,1.58,1.58,0,0,1-.52.21,4.55,4.55,0,0,1-.86.06h-.5Z"/></g><g id="g62"><path id="path64" class="cls-5" d="M97.58,80.58h1.47l-.25-1.24,0-.27c0-.1,0-.21,0-.34a2.55,2.55,0,0,1-.17.33l-.16.28Zm1.86,2.12-.26-1.39H97.09l-1,1.39h-.9l3.9-5.62,1.2,5.62Z"/></g><g id="g66"><path id="path68" class="cls-5" d="M101.57,82.7l.59-2.47-1.07-2.94h.9l.66,1.84a1.89,1.89,0,0,1,.06.18l.06.25a2.07,2.07,0,0,1,.17-.24,1.92,1.92,0,0,1,.16-.21l1.57-1.82h.86L103,80.23l-.59,2.47Z"/></g><g id="g70"><path id="path72" class="cls-5" d="M109.74,80a2.9,2.9,0,0,1,0-.35c0-.15,0-.29,0-.39a3.14,3.14,0,0,1-.18.37c-.07.12-.15.25-.24.38l-2.07,2.88L106.66,80c0-.12,0-.24-.07-.35l0-.34a3.55,3.55,0,0,1-.11.36c0,.12-.1.25-.16.39l-1.2,2.66h-.79l2.59-5.63.74,3.41a2,2,0,0,1,0,.27c0,.12,0,.28.07.46.09-.15.21-.35.38-.59,0-.06.08-.11.1-.15l2.33-3.4-.07,5.63h-.8Z"/></g><g id="g74"><path id="path76" class="cls-5" d="M111.16,82.7l1.3-5.41h2.94l-.18.75h-2.09l-.32,1.35h2.08l-.18.78h-2.08l-.42,1.74h2.08l-.19.79Z"/></g><g id="g78"><path id="path80" class="cls-5" d="M115.09,82.7l1.34-5.62,2.56,3.3c.06.1.13.2.2.3s.14.23.21.36l.9-3.75h.79l-1.34,5.62-2.61-3.36a3,3,0,0,1-.2-.29,3.24,3.24,0,0,1-.17-.32l-.9,3.76Z"/></g><g id="g82"><path id="path84" class="cls-5" d="M123.82,78l-1.11,4.66h-.86L123,78h-1.4l.17-.75h3.65l-.18.75Z"/></g><g id="g86"><path id="path88" class="cls-5" d="M124.71,81.62l.76-.33a.7.7,0,0,0,.23.55.86.86,0,0,0,.61.19,1,1,0,0,0,.66-.21,1,1,0,0,0,.37-.59c.07-.31-.12-.6-.57-.85l-.15-.08a2.62,2.62,0,0,1-1-.79,1.12,1.12,0,0,1-.08-.86,1.83,1.83,0,0,1,.69-1.07,2,2,0,0,1,1.25-.41,1.67,1.67,0,0,1,.92.23.9.9,0,0,1,.38.67l-.75.35a.9.9,0,0,0-.26-.37.66.66,0,0,0-.41-.12,1,1,0,0,0-.59.18.89.89,0,0,0-.32.5c-.08.32.15.63.67.91l.1,0a2.28,2.28,0,0,1,.9.72,1.17,1.17,0,0,1,.08.88,2.14,2.14,0,0,1-.76,1.22,2.21,2.21,0,0,1-1.39.45,1.47,1.47,0,0,1-1-.31,1.16,1.16,0,0,1-.35-.91"/></g><g id="g90"><path id="path92" class="cls-5" d="M131,82.7l1.29-5.41h.86l-1.3,5.41Z"/></g><g id="g94"><path id="path96" class="cls-5" d="M133.12,82.7l1.35-5.62,2.55,3.3.21.3q.11.16.21.36l.9-3.75h.79l-1.35,5.62-2.61-3.36a2.9,2.9,0,0,1-.19-.29,3.24,3.24,0,0,1-.17-.32l-.9,3.76Z"/></g><g id="g98"><path id="path100" class="cls-5" d="M141.86,78l-1.12,4.66h-.85L141,78h-1.4l.18-.75h3.65l-.18.75Z"/></g><g id="g102"><path id="path104" class="cls-5" d="M142.79,82.7l1.3-5.41H147l-.18.75h-2.09l-.32,1.35h2.08l-.18.78h-2.08l-.42,1.74h2.08l-.19.79Z"/></g><g id="g106"><path id="path108" class="cls-5" d="M148.31,79.6h.16a2,2,0,0,0,.94-.16.88.88,0,0,0,.36-.58q.1-.45-.09-.63a1.33,1.33,0,0,0-.84-.18h-.16Zm-.21.68-.58,2.42h-.81l1.3-5.41h1.19a3.85,3.85,0,0,1,.8.07,1,1,0,0,1,.44.24,1,1,0,0,1,.26.5,1.58,1.58,0,0,1,0,.68,2,2,0,0,1-.55,1,1.77,1.77,0,0,1-1,.44l1.22,2.46h-1l-1.18-2.42Z"/></g><g id="g110"><path id="path112" class="cls-5" d="M150.84,82.7l1.3-5.41h2.94l-.18.75h-2.09l-.32,1.35h2.08l-.18.77h-2.08l-.61,2.54Z"/></g><g id="g114"><path id="path116" class="cls-5" d="M156.07,80.58h1.47l-.25-1.24,0-.27a3.28,3.28,0,0,1,0-.34c-.06.12-.11.23-.17.33s-.11.2-.17.28Zm1.86,2.12-.27-1.39h-2.08l-1,1.39h-.9l3.9-5.62,1.2,5.62Z"/></g><g id="g118"><path id="path120" class="cls-5" d="M164.4,78.61a1.9,1.9,0,0,0-.65-.48,2.09,2.09,0,0,0-.81-.16,2.31,2.31,0,0,0-1.54.57,2.67,2.67,0,0,0-.9,1.48,1.73,1.73,0,0,0,.18,1.44,1.37,1.37,0,0,0,1.2.57,2.77,2.77,0,0,0,.93-.17,4,4,0,0,0,.93-.52l-.23,1a3.76,3.76,0,0,1-.85.38,3.39,3.39,0,0,1-.91.12,2.59,2.59,0,0,1-1.07-.2,1.87,1.87,0,0,1-.76-.6,2,2,0,0,1-.37-.91,3.07,3.07,0,0,1,.06-1.12,3.83,3.83,0,0,1,.48-1.12A3.71,3.71,0,0,1,162,77.37a3.2,3.2,0,0,1,1.15-.2,2.22,2.22,0,0,1,1.56.55Z"/></g><g id="g122"><path id="path124" class="cls-5" d="M164.49,82.7l1.29-5.41h2.94l-.18.75h-2.08l-.33,1.35h2.09l-.19.78H166l-.42,1.74h2.09l-.19.79Z"/></g><g id="g126"><path id="path128" class="cls-6" d="M148.87,72.59H143L151.17,43h5.89Z"/></g><g id="g130"><path id="path132" class="cls-6" d="M145.81,44a2.16,2.16,0,0,0-1.89-.84H111.55L110,48.9H139.4l-1.72,6.19H108.24l-4.89,17.64h5.89l3.28-11.84H139a3.73,3.73,0,0,0,2.34-.85,3.91,3.91,0,0,0,1.44-2.09l3.28-11.84a2.39,2.39,0,0,0-.25-2.14"/></g><g id="g134"><path id="path136" class="cls-6" d="M99.92,70.74a2.7,2.7,0,0,1-2.6,2H67a2.11,2.11,0,0,1-1.85-.85,2.33,2.33,0,0,1-.26-2.09l7.41-26.67h5.89L71.52,66.93H95.09l6.62-23.82h5.89Z"/></g><g id="g138"><path id="path140" class="cls-7" d="M167.22,43.07l7.46,14.83L159,72.71Z"/></g><g id="g142"><path id="path144" class="cls-8" d="M162,43.07l7.45,14.83L153.77,72.71Z"/></g></g></g></g></g><path class="cls-9" d="M342.65,81.15a1.93,1.93,0,1,1-1.93-1.92,1.93,1.93,0,0,1,1.93,1.92"/><path class="cls-9" d="M386.23,81.15a1.93,1.93,0,1,1-1.92-1.92,1.92,1.92,0,0,1,1.92,1.92"/><path class="cls-9" d="M394.56,61.92h-.28l-3.56-14.41a1.29,1.29,0,0,0-1.28-1H372.77V36.28a1.26,1.26,0,0,0-.37-.9,1.3,1.3,0,0,0-.91-.38H327.9a1.28,1.28,0,0,0-1.28,1.28V76A6.42,6.42,0,0,0,333,82.43h.12a7.69,7.69,0,0,0,15.15,0h28.43a7.69,7.69,0,0,0,15.15,0h2.68A6.4,6.4,0,0,0,401,76V68.33a6.4,6.4,0,0,0-6.41-6.41ZM370.21,37.56V68.33h-41V37.56ZM340.72,86.28a5.12,5.12,0,1,1,3.63-1.5A5.12,5.12,0,0,1,340.72,86.28Zm0-12.82a7.68,7.68,0,0,0-7.57,6.41H333A3.84,3.84,0,0,1,329.19,76V70.89h41v9H348.3a7.7,7.7,0,0,0-7.58-6.41Zm43.59,12.82a5.14,5.14,0,1,1,3.62-1.5A5.14,5.14,0,0,1,384.31,86.28ZM398.41,76a3.86,3.86,0,0,1-3.85,3.85h-2.68a7.69,7.69,0,0,0-15.15,0h-4V49.1h15.67L392,63.51c.35,1.37,2,.88,2.56,1a3.86,3.86,0,0,1,3.85,3.85Z"/><path class="cls-9" d="M386.68,52.64a1.27,1.27,0,0,0-1.28-1h-8.78A1.28,1.28,0,0,0,375.34,53V63.2a1.26,1.26,0,0,0,1.28,1.28H388a1.27,1.27,0,0,0,1.28-1.59Zm-8.78,9.28V54.23h6.54l1.92,7.69Z"/><path class="cls-9" d="M310.48,48.44H292.1a1.5,1.5,0,0,0,0,3h18.38a1.5,1.5,0,0,0,0-3Z"/><path class="cls-9" d="M310.48,64.44h-12a1.5,1.5,0,0,0,0,3h12a1.5,1.5,0,0,0,0-3Z"/><path class="cls-9" d="M310.48,56.44h-30a1.5,1.5,0,0,0,0,3h30a1.5,1.5,0,0,0,0-3Z"/><path class="cls-9" d="M555.33,82.52a4.3,4.3,0,0,0,2.71,1h.13l15.51-.62,1,2.09a4.63,4.63,0,0,0,4.19,2.71,4.92,4.92,0,0,0,1.85-.37l20.07-9a4.7,4.7,0,0,0,2.34-6.16L589.57,42.25a4.43,4.43,0,0,0-4.06-2.71l-12.2-.5h-.12a3.25,3.25,0,0,0-1.11.13c-1.35-2-3.08-3.7-4.8-4.07a3.89,3.89,0,0,0-3.7,1.23,4.83,4.83,0,0,0-1.35,3.7c.25,2,1.72,3.57,3,4.8a4.15,4.15,0,0,0-1.61.49L555,50a4,4,0,0,0-2.09,3.58L554,79.81a4.71,4.71,0,0,0,1.35,2.71ZM585.51,42a1.9,1.9,0,0,1,1.85,1.23l13.42,29.93A2.12,2.12,0,0,1,599.67,76L579.6,85a2.12,2.12,0,0,1-2.83-1.11L575.53,81v-.12l-12.19-27.1a2.06,2.06,0,0,1,.25-2.22l7.51-9.11c.37.62.62,1.23,1,1.85a4.1,4.1,0,0,0-1.35,1.84,4.78,4.78,0,0,0,.12,3.45,4.48,4.48,0,0,0,4.07,2.59,4.92,4.92,0,0,0,1.85-.37,4.2,4.2,0,0,0,2.34-2.46,4.84,4.84,0,0,0-.13-3.45,4.47,4.47,0,0,0-4.06-2.59h-.62c-.24-.61-.61-1.23-1-2Zm-12.32,5c0-.13.13-.13.13-.25.24.49.37,1,.61,1.36A1.19,1.19,0,0,0,575,49a.46.46,0,0,0,.37-.12,1.29,1.29,0,0,0,.74-1.61c-.12-.37-.37-.86-.62-1.47a2.1,2.1,0,0,1,1.23,1.1,1.55,1.55,0,0,1,0,1.48,2.37,2.37,0,0,1-1.1,1.11,1.9,1.9,0,0,1-2.59-1A2.16,2.16,0,0,1,573.19,47.05Zm-7.88-9a1.74,1.74,0,0,1,1.35-.62c1,.25,2.1,1.36,3.21,3l-.25.24-2.22,2.71c-1.1-.86-2.58-2.34-2.71-3.69A1.82,1.82,0,0,1,565.31,38.06Zm-9.11,14L563.46,48l-1.72,2.1a4.53,4.53,0,0,0-.62,4.8l11.46,25.49L558,81a2,2,0,0,1-1.11-.37,1.54,1.54,0,0,1-.49-1l-1.11-26.24a1.76,1.76,0,0,1,.87-1.35Z"/><path class="cls-9" d="M581.32,77h.25a1.33,1.33,0,0,0,1.23-1l3-18.72a1.15,1.15,0,0,0-1-1.35,1.14,1.14,0,0,0-1.35,1l-3,18.72A1.06,1.06,0,0,0,581.32,77Z"/><path class="cls-9" d="M570.73,60.1a5.54,5.54,0,0,0,4.56,6.29c.24,0,.61.12.86.12A5.45,5.45,0,0,0,577,55.67,5.38,5.38,0,0,0,570.73,60.1Zm8.37,1.36a3,3,0,0,1-3.45,2.46,3,3,0,0,1-2.46-3.45,2.94,2.94,0,0,1,3-2.46h.49A3,3,0,0,1,579.1,61.46Z"/><path class="cls-9" d="M589.45,76.48c.25,0,.61.13.86.13a5.45,5.45,0,0,0,.86-10.84,5.46,5.46,0,0,0-6.28,4.56A5.56,5.56,0,0,0,589.45,76.48Zm-2.09-5.91a2.91,2.91,0,0,1,2.95-2.46h.49a3,3,0,0,1,2.47,3.45A3,3,0,0,1,589.82,74,3,3,0,0,1,587.36,70.57Z"/><path class="cls-9" d="M565.62,73.68h.11a.64.64,0,0,0,.6-.47l1.42-9a.57.57,0,1,0-1.13-.18l-1.42,9A.5.5,0,0,0,565.62,73.68Z"/><path class="cls-9" d="M560.51,65.56a2.67,2.67,0,0,0,2.2,3c.12,0,.3.06.41.06a2.62,2.62,0,0,0,.42-5.21A2.6,2.6,0,0,0,560.51,65.56Zm4,.65a1.44,1.44,0,0,1-1.66,1.19,1.47,1.47,0,0,1-1.19-1.66,1.41,1.41,0,0,1,1.42-1.19h.24A1.47,1.47,0,0,1,564.55,66.21Z"/></svg>