<svg height="512" viewBox="0 0 64 64" width="512" xmlns="http://www.w3.org/2000/svg"><path d="M50.6 50c-.35.19-.73.35-1.12.47l-10.99 3.38c-.32.1-.66.15-1 .15h-.07a3.418 3.418 0 01-3.37-4H16v6.44c.52.23 1.01.57 1.42.98l.01.01 1.12-1.49A4.836 4.836 0 0122.42 54h7.92c1.06 0 2.08.42 2.83 1.17l2.24 2.24c.38.38.89.59 1.42.59H43c1.1 0 2 .9 2 2 0 .55-.22 1.05-.59 1.41-.36.37-.86.59-1.41.59h19V50z" fill="#cf9e76"/><path d="M32 42v4h-4v-4z" fill="#ccd1d9"/><path d="M30 34c2.21 0 4 1.79 4 4v2c0 1.1-.9 2-2 2h-5.17c-.53 0-1.04-.21-1.42-.59L24 40h-6c-1.1 0-2 .9-2 2V56.44c-.62-.29-1.31-.44-2.01-.44-1.83 0-3.51 1.04-4.33 2.68L8 62H2V38c0-2.21 1.79-4 4-4h18z" fill="#ccd1d9"/><circle cx="9" cy="41" fill="#fcd770" r="3"/><circle cx="9" cy="51" fill="#fcd770" r="3"/><path d="M17.43 57.43L22 62H8l1.66-3.32c.82-1.64 2.5-2.68 4.33-2.68.7 0 1.39.15 2.01.44.52.23 1.01.57 1.42.98z" fill="#fc6e51"/><path d="M43 58c1.1 0 2 .9 2 2 0 .55-.22 1.05-.59 1.41-.36.37-.86.59-1.41.59H22l-4.57-4.57 1.12-1.49A4.836 4.836 0 0122.42 54h7.92c1.06 0 2.08.42 2.83 1.17l2.24 2.24c.38.38.89.59 1.42.59z" fill="#ff826e"/><path d="M54 37v4h-6v-4z" fill="#ffc729"/><path d="M54 34.08V37h-6v-9l.99.16A6.01 6.01 0 0154 34.08zM30 28v6h-6c.04-2.9 2.15-5.36 5.01-5.84zM48 41v3l-11.52 3.29c-.74.21-1.36.65-1.79 1.23-.33.43-.55.94-.64 1.48H30v-4h2v-4c1.1 0 2-.9 2-2v-2c0-2.21-1.79-4-4-4v-6l1-.17 1.66-.27c.58-.1 1.12-.32 1.58-.63l.26 2.1c.14 1.13.7 2.13 1.5 2.84S37.86 33 39 33c2.29 0 4.21-1.7 4.5-3.97l.26-2.1c.46.31 1 .53 1.58.63l1.66.27 1 .17v12z" fill="#fcd770"/><path d="M43.76 26.93A4.013 4.013 0 0142 23.61V22.4c2.36-1.07 4-3.44 4-6.19v-2.09c0-1.17-.95-2.12-2.12-2.12h-4c-.56 0-1.1-.22-1.5-.62L37 10l-1.38 1.38c-.4.4-.94.62-1.5.62-1.17 0-2.12.95-2.12 2.12V16c0 2.78 1.63 5.19 4 6.32v1.29c0 1.37-.69 2.59-1.76 3.32-.46.31-1 .53-1.58.63l-1.66.27-.93-.15A6.294 6.294 0 0125 23a10.242 10.242 0 003-7.24V13c0-6.08 4.92-11 11-11 3.04 0 5.79 1.23 7.78 3.22S50 9.96 50 13v2.76c0 2.71 1.08 5.32 3 7.24a6.294 6.294 0 01-5.07 4.68l-.93.15-1.66-.27a4.07 4.07 0 01-1.58-.63z" fill="#656d78"/><path d="M48 44v-3h6v3.35A6.387 6.387 0 0150.6 50c-.35.19-.73.35-1.12.47l-10.99 3.38c-.32.1-.66.15-1 .15h-.07a3.418 3.418 0 01-3.37-4c.09-.54.31-1.05.64-1.48.43-.58 1.05-1.02 1.79-1.23zM26.83 42H28v4h2v4h-6V40l1.41 1.41c.38.38.89.59 1.42.59zM43.76 26.93l-.26 2.1A4.535 4.535 0 0139 33c-1.14 0-2.2-.42-3-1.13s-1.36-1.71-1.5-2.84l-.26-2.1A4.013 4.013 0 0036 23.61v-1.29c.92.44 1.94.68 3.03.68h.18c.99 0 1.94-.21 2.79-.6v1.21c0 1.37.69 2.59 1.76 3.32z" fill="#f0d0b4"/><path d="M46 14.12v2.09A6.798 6.798 0 0139.21 23h-.18c-1.09 0-2.11-.24-3.03-.68-2.37-1.13-4-3.54-4-6.32v-1.88c0-1.17.95-2.12 2.12-2.12.56 0 1.1-.22 1.5-.62L37 10l1.38 1.38c.4.4.94.62 1.5.62h4c1.17 0 2.12.95 2.12 2.12z" fill="#f0d0b4"/><g><path d="M53.354 49A7.342 7.342 0 0055 44.348V34.083a6.969 6.969 0 00-4.255-6.435 7.268 7.268 0 003.224-4.405l.138-.549-.4-.4A9.186 9.186 0 0151 15.757V13c0-6.617-5.383-12-12-12S27 6.383 27 13v2.757c0 2.469-.961 4.79-2.707 6.536l-.4.4.138.549a7.272 7.272 0 003.245 4.417A6.964 6.964 0 0023.103 33H6c-2.757 0-5 2.243-5 5v25h62V49zm-20.048 0H31v-2h2v-4.184A2.996 2.996 0 0035 40v-2a5.01 5.01 0 00-4-4.899v-4.254l1.821-.304c.206-.034.399-.097.595-.154l.096.766C33.856 31.917 36.216 34 39 34s5.144-2.083 5.488-4.845l.096-.766c.195.058.389.12.595.154l1.821.304V43.246L36.206 46.33a4.43 4.43 0 00-2.9 2.67zM29 53h-6.578a5.874 5.874 0 00-4.675 2.337l-.492.656c-.083-.056-.169-.104-.255-.156V51h12zm-12.288 5.126L19.586 61H9.618l.938-1.875A3.82 3.82 0 0113.993 57c1.028 0 1.993.4 2.719 1.126zM23 49h-6v-7c0-.551.448-1 1-1h5zm2 0v-6.638a2.962 2.962 0 001.828.638H27v4h2v2zm4-4v-2h2v2zm7.328-32.914l.672-.672.672.672a3.142 3.142 0 002.207.914h4c.618 0 1.121.503 1.121 1.121v2.088A5.798 5.798 0 0139.21 22h-.176C35.707 22 33 19.308 33 15.998v-1.879c0-.617.503-1.119 1.121-1.119.822 0 1.626-.333 2.207-.914zM39.034 24h.176a7.73 7.73 0 001.805-.22 4.971 4.971 0 001.683 3.579l-.194 1.548C42.283 30.67 40.777 32 39 32s-3.283-1.33-3.504-3.093l-.194-1.548a4.968 4.968 0 001.687-3.632 8.032 8.032 0 002.045.273zM49 38h4v2h-4zM36.755 48.253l10.954-3.13 1.584 1.584 1.414-1.414L49 43.586V42h4v2.348c0 1.443-.562 2.8-1.582 3.82a5.425 5.425 0 01-2.232 1.344l-10.99 3.381a2.526 2.526 0 01-.776.107A2.423 2.423 0 0135 50.58a2.43 2.43 0 011.755-2.327zM53 34.083V36h-4v-6.803c2.326.475 4 2.494 4 4.886zM26.125 23.267A11.165 11.165 0 0029 15.757V13c0-5.514 4.486-10 10-10s10 4.486 10 10v2.757c0 2.8 1.017 5.443 2.875 7.509a5.288 5.288 0 01-4.106 3.425l-.769.128-1.492-.249A2.99 2.99 0 0143 23.611v-.601a7.795 7.795 0 004-6.801v-2.088C47 12.4 45.6 11 43.879 11h-4c-.295 0-.584-.12-.793-.328L38 9.586V6h-2v3.586l-1.086 1.086a1.133 1.133 0 01-.793.328A3.123 3.123 0 0031 14.119v1.879c0 2.947 1.612 5.52 4 6.909v.705a2.99 2.99 0 01-2.507 2.959l-1.492.249-.769-.128a5.288 5.288 0 01-4.107-3.425zM29 29.197V33h-3.872A4.98 4.98 0 0129 29.197zM3 38c0-1.654 1.346-3 3-3h24c1.654 0 3 1.346 3 3v2c0 .551-.448 1-1 1h-5.172c-.263 0-.521-.107-.707-.293L24.414 39H18c-1.654 0-3 1.346-3 3v13.091a5.813 5.813 0 00-6.234 3.139L7.382 61H3zm39 23H22.414l-3.665-3.665.598-.797A3.862 3.862 0 0122.422 55h7.921c.802 0 1.556.312 2.122.878l2.242 2.243c.566.567 1.32.879 2.121.879H43a1.001 1.001 0 010 2zm19 0H45.816c.112-.314.184-.648.184-1 0-1.654-1.346-3-3-3h-6.172c-.263 0-.521-.107-.707-.293l-2.242-2.243a4.942 4.942 0 00-2.879-1.4V51h2.043a4.43 4.43 0 004.443 4c.443 0 .881-.066 1.3-.196l10.988-3.38A7.305 7.305 0 0050.821 51H61z"/><path d="M9 45c2.206 0 4-1.794 4-4s-1.794-4-4-4-4 1.794-4 4 1.794 4 4 4zm0-6c1.103 0 2 .897 2 2s-.897 2-2 2-2-.897-2-2 .897-2 2-2zM9 55c2.206 0 4-1.794 4-4s-1.794-4-4-4-4 1.794-4 4 1.794 4 4 4zm0-6c1.103 0 2 .897 2 2s-.897 2-2 2-2-.897-2-2 .897-2 2-2z"/><circle cx="30" cy="38" r="1"/><path d="M57 57h2v2h-2zM57 53h2v2h-2z"/></g></svg>