<svg height="512pt" viewBox="0 0 512 512" width="512pt" xmlns="http://www.w3.org/2000/svg"><path d="m439.964844 486.578125 64.441406 17.828125-17.824219-64.441406c16.074219-24.742188 25.417969-54.261719 25.417969-85.964844 0-87.261719-70.738281-158-158-158s-158 70.738281-158 158 70.738281 158 158 158c31.703125 0 61.222656-9.34375 85.964844-25.421875zm0 0" fill="#ff6523"/><path d="m195.5 0-80 195.5 80 195.5c107.800781 0 195.5-87.699219 195.5-195.5s-87.699219-195.5-195.5-195.5zm0 0" fill="#ffc43b"/><path d="m0 195.5c0 35.132812 9.351562 69.339844 27.109375 99.371094l-26.390625 95.40625 95.410156-26.386719c30.03125 17.757813 64.238282 27.109375 99.371094 27.109375v-391c-107.800781 0-195.5 87.699219-195.5 195.5zm0 0" fill="#ffd87c"/><path d="m210.5 90h-15l-10 75.5 10 75.5h15zm0 0"/><path d="m180.5 90h15v151h-15zm0 0" fill="#292c32"/><path d="m210.5 271h-15l-10 15 10 15h15zm0 0"/><path d="m180.5 271h15v30h-15zm0 0" fill="#292c32"/></svg>